NimbusSanL-Regu.ufo
<glyph name="dollar" format="1">
  <advance width="556"/>
  <unicode hex="0024"/>
  <outline>
    <contour>
      <point x="243" y="770" type="line"/>
      <point x="302" y="770" type="line"/>
      <point x="302" y="716" type="line"/>
      <point x="423" y="707"/>
      <point x="496" y="633"/>
      <point x="496" y="519" type="curve"/>
      <point x="417" y="519" type="line"/>
      <point x="416" y="592"/>
      <point x="369" y="643"/>
      <point x="302" y="646" type="curve"/>
      <point x="302" y="397" type="line"/>
      <point x="394" y="369"/>
      <point x="407" y="364"/>
      <point x="433" y="349" type="curve" smooth="yes"/>
      <point x="491" y="316"/>
      <point x="518" y="266"/>
      <point x="518" y="195" type="curve" smooth="yes"/>
      <point x="518" y="117"/>
      <point x="484" y="48"/>
      <point x="426" y="12" type="curve" smooth="yes"/>
      <point x="393" y="-8"/>
      <point x="356" y="-19"/>
      <point x="302" y="-23" type="curve"/>
      <point x="302" y="-126" type="line"/>
      <point x="243" y="-126" type="line"/>
      <point x="243" y="-23" type="line"/>
      <point x="102" y="-14"/>
      <point x="26" y="69"/>
      <point x="33" y="208" type="curve"/>
      <point x="112" y="208" type="line"/>
      <point x="118" y="143"/>
      <point x="122" y="126"/>
      <point x="137" y="103" type="curve"/>
      <point x="160" y="72"/>
      <point x="198" y="52"/>
      <point x="243" y="46" type="curve"/>
      <point x="243" y="318" type="line"/>
      <point x="170" y="340"/>
      <point x="143" y="351"/>
      <point x="117" y="370" type="curve" smooth="yes"/>
      <point x="70" y="404"/>
      <point x="46" y="453"/>
      <point x="46" y="516" type="curve" smooth="yes"/>
      <point x="46" y="630"/>
      <point x="115" y="700"/>
      <point x="243" y="716" type="curve"/>
    </contour>
    <contour>
      <point x="243" y="405" type="curve"/>
      <point x="243" y="645" type="line"/>
      <point x="169" y="635"/>
      <point x="127" y="592"/>
      <point x="127" y="526" type="curve" smooth="yes"/>
      <point x="127" y="465"/>
      <point x="164" y="426"/>
    </contour>
    <contour>
      <point x="302" y="309" type="curve"/>
      <point x="302" y="46" type="line"/>
      <point x="345" y="51"/>
      <point x="370" y="60"/>
      <point x="394" y="83" type="curve" smooth="yes"/>
      <point x="421" y="109"/>
      <point x="436" y="144"/>
      <point x="436" y="183" type="curve" smooth="yes"/>
      <point x="436" y="249"/>
      <point x="404" y="279"/>
    </contour>
  </outline>
</glyph>
<glyph name="quotesingle" format="1">
  <advance width="191"/>
  <unicode hex="0027"/>
  <outline>
    <contour>
      <point x="48" y="709" type="line"/>
      <point x="142" y="709" type="line"/>
      <point x="142" y="598" type="line"/>
      <point x="115" y="464" type="line"/>
      <point x="75" y="464" type="line"/>
      <point x="48" y="598" type="line"/>
    </contour>
  </outline>
</glyph>
<glyph name="parenleft" format="1">
  <advance width="333"/>
  <unicode hex="0028"/>
  <outline>
    <contour>
      <point x="236" y="729" type="curve"/>
      <point x="291" y="729" type="line"/>
      <point x="203" y="587"/>
      <point x="154" y="418"/>
      <point x="154" y="259" type="curve" smooth="yes"/>
      <point x="154" y="99"/>
      <point x="203" y="-69"/>
      <point x="291" y="-212" type="curve"/>
      <point x="236" y="-212" type="line"/>
      <point x="136" y="-81"/>
      <point x="73" y="101"/>
      <point x="73" y="259" type="curve" smooth="yes"/>
      <point x="73" y="416"/>
      <point x="136" y="598"/>
    </contour>
  </outline>
</glyph>
<glyph name="comma" format="1">
  <advance width="278"/>
  <unicode hex="002C"/>
  <outline>
    <contour>
      <point x="87" y="104" type="line"/>
      <point x="192" y="104" type="line"/>
      <point x="192" y="-16" type="line" smooth="yes"/>
      <point x="192" y="-102"/>
      <point x="157" y="-147"/>
      <point x="87" y="-147" type="curve"/>
      <point x="87" y="-109" type="line"/>
      <point x="134" y="-107"/>
      <point x="147" y="-87"/>
      <point x="147" y="-18" type="curve" smooth="yes"/>
      <point x="147" y="0" type="line"/>
      <point x="87" y="0" type="line"/>
    </contour>
  </outline>
</glyph>
<glyph name="hyphen" format="1">
  <advance width="333"/>
  <unicode hex="002D"/>
  <outline>
    <contour>
      <point x="284" y="312" type="line"/>
      <point x="284" y="240" type="line"/>
      <point x="46" y="240" type="line"/>
      <point x="46" y="312" type="line"/>
    </contour>
  </outline>
</glyph>
<glyph name="slash" format="1">
  <advance width="278"/>
  <unicode hex="002F"/>
  <outline>
    <contour>
      <point x="229" y="729" type="line"/>
      <point x="284" y="729" type="line"/>
      <point x="47" y="-20" type="line"/>
      <point x="-8" y="-20" type="line"/>
    </contour>
  </outline>
</glyph>
<glyph name="zero" format="1">
  <advance width="556"/>
  <unicode hex="0030"/>
  <outline>
    <contour>
      <point x="275" y="709" type="curve" smooth="yes"/>
      <point x="342" y="709"/>
      <point x="401" y="681"/>
      <point x="438" y="631" type="curve" smooth="yes"/>
      <point x="485" y="567"/>
      <point x="507" y="475"/>
      <point x="507" y="337" type="curve" smooth="yes"/>
      <point x="507" y="104"/>
      <point x="425" y="-23"/>
      <point x="275" y="-23" type="curve" smooth="yes"/>
      <point x="123" y="-23"/>
      <point x="43" y="104"/>
      <point x="43" y="343" type="curve" smooth="yes"/>
      <point x="43" y="474"/>
      <point x="66" y="569"/>
      <point x="112" y="631" type="curve" smooth="yes"/>
      <point x="149" y="680"/>
      <point x="209" y="709"/>
    </contour>
    <contour>
      <point x="275" y="631" type="curve" smooth="yes"/>
      <point x="180" y="631"/>
      <point x="133" y="536"/>
      <point x="133" y="342" type="curve" smooth="yes"/>
      <point x="133" y="148"/>
      <point x="180" y="50"/>
      <point x="273" y="50" type="curve" smooth="yes"/>
      <point x="371" y="50"/>
      <point x="417" y="144"/>
      <point x="417" y="345" type="curve" smooth="yes"/>
      <point x="417" y="535"/>
      <point x="370" y="631"/>
    </contour>
  </outline>
</glyph>
<glyph name="one" format="1">
  <advance width="556"/>
  <unicode hex="0031"/>
  <outline>
    <contour>
      <point x="259" y="505" type="line"/>
      <point x="102" y="505" type="line"/>
      <point x="102" y="568" type="line"/>
      <point x="238" y="585"/>
      <point x="258" y="600"/>
      <point x="289" y="709" type="curve"/>
      <point x="347" y="709" type="line"/>
      <point x="347" y="0" type="line"/>
      <point x="259" y="0" type="line"/>
    </contour>
  </outline>
</glyph>
<glyph name="two" format="1">
  <advance width="556"/>
  <unicode hex="0032"/>
  <outline>
    <contour>
      <point x="506" y="87" type="line"/>
      <point x="506" y="0" type="line"/>
      <point x="34" y="0" type="line"/>
      <point x="42" y="156"/>
      <point x="85" y="223"/>
      <point x="233" y="307" type="curve" smooth="yes"/>
      <point x="325" y="359" type="line" smooth="yes"/>
      <point x="388" y="395"/>
      <point x="421" y="443"/>
      <point x="421" y="499" type="curve" smooth="yes"/>
      <point x="421" y="575"/>
      <point x="361" y="632"/>
      <point x="281" y="632" type="curve" smooth="yes"/>
      <point x="228" y="632"/>
      <point x="182" y="606"/>
      <point x="159" y="563" type="curve" smooth="yes"/>
      <point x="147" y="540"/>
      <point x="141" y="511"/>
      <point x="138" y="463" type="curve"/>
      <point x="50" y="463" type="line"/>
      <point x="52" y="535"/>
      <point x="63" y="579"/>
      <point x="88" y="617" type="curve" smooth="yes"/>
      <point x="127" y="677"/>
      <point x="194" y="709"/>
      <point x="284" y="709" type="curve" smooth="yes"/>
      <point x="351" y="709"/>
      <point x="403" y="691"/>
      <point x="445" y="653" type="curve" smooth="yes"/>
      <point x="487" y="615"/>
      <point x="511" y="560"/>
      <point x="511" y="501" type="curve" smooth="yes"/>
      <point x="511" y="414"/>
      <point x="460" y="341"/>
      <point x="361" y="287" type="curve" smooth="yes"/>
      <point x="261" y="233" type="line"/>
      <point x="174" y="182"/>
      <point x="142" y="145"/>
      <point x="133" y="87" type="curve"/>
    </contour>
  </outline>
</glyph>
<glyph name="four" format="1">
  <advance width="556"/>
  <unicode hex="0034"/>
  <outline>
    <contour>
      <point x="327" y="170" type="line"/>
      <point x="28" y="170" type="line"/>
      <point x="28" y="263" type="line"/>
      <point x="350" y="709" type="line"/>
      <point x="415" y="709" type="line"/>
      <point x="415" y="249" type="line"/>
      <point x="520" y="249" type="line"/>
      <point x="520" y="170" type="line"/>
      <point x="415" y="170" type="line"/>
      <point x="415" y="0" type="line"/>
      <point x="327" y="0" type="line"/>
    </contour>
    <contour>
      <point x="327" y="249" type="line"/>
      <point x="327" y="559" type="line"/>
      <point x="105" y="249" type="line"/>
    </contour>
  </outline>
</glyph>
<glyph name="seven" format="1">
  <advance width="556"/>
  <unicode hex="0037"/>
  <outline>
    <contour>
      <point x="520" y="709" type="line"/>
      <point x="520" y="635" type="line"/>
      <point x="360" y="422"/>
      <point x="271" y="227"/>
      <point x="232" y="0" type="curve"/>
      <point x="138" y="0" type="line"/>
      <point x="191" y="233"/>
      <point x="260" y="381"/>
      <point x="429" y="622" type="curve"/>
      <point x="46" y="622" type="line"/>
      <point x="46" y="709" type="line"/>
    </contour>
  </outline>
</glyph>
<glyph name="colon" format="1">
  <advance width="278"/>
  <unicode hex="003A"/>
  <outline>
    <contour>
      <point x="214" y="104" type="line"/>
      <point x="214" y="0" type="line"/>
      <point x="110" y="0" type="line"/>
      <point x="110" y="104" type="line"/>
    </contour>
    <contour>
      <point x="214" y="524" type="line"/>
      <point x="214" y="420" type="line"/>
      <point x="110" y="420" type="line"/>
      <point x="110" y="524" type="line"/>
    </contour>
  </outline>
</glyph>
<glyph name="semicolon" format="1">
  <advance width="278"/>
  <unicode hex="003B"/>
  <outline>
    <contour>
      <point x="215" y="524" type="line"/>
      <point x="215" y="420" type="line"/>
      <point x="111" y="420" type="line"/>
      <point x="111" y="524" type="line"/>
    </contour>
    <contour>
      <point x="110" y="104" type="line"/>
      <point x="215" y="104" type="line"/>
      <point x="215" y="-16" type="line" smooth="yes"/>
      <point x="215" y="-102"/>
      <point x="180" y="-147"/>
      <point x="110" y="-147" type="curve"/>
      <point x="110" y="-109" type="line"/>
      <point x="157" y="-107"/>
      <point x="170" y="-87"/>
      <point x="170" y="-18" type="curve" smooth="yes"/>
      <point x="170" y="0" type="line"/>
      <point x="110" y="0" type="line"/>
    </contour>
  </outline>
</glyph>
<glyph name="equal" format="1">
  <advance width="584"/>
  <unicode hex="003D"/>
  <outline>
    <contour>
      <point x="534" y="353" type="line"/>
      <point x="534" y="283" type="line"/>
      <point x="50" y="283" type="line"/>
      <point x="50" y="353" type="line"/>
    </contour>
    <contour>
      <point x="534" y="181" type="line"/>
      <point x="534" y="111" type="line"/>
      <point x="50" y="111" type="line"/>
      <point x="50" y="181" type="line"/>
    </contour>
  </outline>
</glyph>
<glyph name="A" format="1">
  <advance width="667"/>
  <unicode hex="0041"/>
  <outline>
    <contour>
      <point x="474" y="219" type="line"/>
      <point x="193" y="219" type="line"/>
      <point x="116" y="0" type="line"/>
      <point x="17" y="0" type="line"/>
      <point x="277" y="729" type="line"/>
      <point x="397" y="729" type="line"/>
      <point x="653" y="0" type="line"/>
      <point x="549" y="0" type="line"/>
    </contour>
    <contour>
      <point x="448" y="297" type="line"/>
      <point x="336" y="629" type="line"/>
      <point x="216" y="297" type="line"/>
    </contour>
  </outline>
</glyph>
<glyph name="D" format="1">
  <advance width="722"/>
  <unicode hex="0044"/>
  <outline>
    <contour>
      <point x="89" y="0" type="line"/>
      <point x="89" y="729" type="line"/>
      <point x="370" y="729" type="line" smooth="yes"/>
      <point x="555" y="729"/>
      <point x="667" y="591"/>
      <point x="667" y="365" type="curve" smooth="yes"/>
      <point x="667" y="138"/>
      <point x="554" y="0"/>
      <point x="370" y="0" type="curve" smooth="yes"/>
    </contour>
    <contour>
      <point x="182" y="82" type="line"/>
      <point x="354" y="82" type="line" smooth="yes"/>
      <point x="498" y="82"/>
      <point x="574" y="180"/>
      <point x="574" y="364" type="curve" smooth="yes"/>
      <point x="574" y="550"/>
      <point x="498" y="647"/>
      <point x="354" y="647" type="curve" smooth="yes"/>
      <point x="182" y="647" type="line"/>
    </contour>
  </outline>
</glyph>
<glyph name="F" format="1">
  <advance width="611"/>
  <unicode hex="0046"/>
  <outline>
    <contour>
      <point x="183" y="332" type="line"/>
      <point x="183" y="0" type="line"/>
      <point x="90" y="0" type="line"/>
      <point x="90" y="729" type="line"/>
      <point x="579" y="729" type="line"/>
      <point x="579" y="647" type="line"/>
      <point x="183" y="647" type="line"/>
      <point x="183" y="414" type="line"/>
      <point x="531" y="414" type="line"/>
      <point x="531" y="332" type="line"/>
    </contour>
  </outline>
</glyph>
<glyph name="H" format="1">
  <advance width="722"/>
  <unicode hex="0048"/>
  <outline>
    <contour>
      <point x="551" y="332" type="line"/>
      <point x="177" y="332" type="line"/>
      <point x="177" y="0" type="line"/>
      <point x="83" y="0" type="line"/>
      <point x="83" y="729" type="line"/>
      <point x="176" y="729" type="line"/>
      <point x="176" y="414" type="line"/>
      <point x="551" y="414" type="line"/>
      <point x="551" y="729" type="line"/>
      <point x="644" y="729" type="line"/>
      <point x="644" y="0" type="line"/>
      <point x="551" y="0" type="line"/>
    </contour>
  </outline>
</glyph>
<glyph name="K" format="1">
  <advance width="667"/>
  <unicode hex="004B"/>
  <outline>
    <contour>
      <point x="172" y="255" type="line"/>
      <point x="172" y="0" type="line"/>
      <point x="79" y="0" type="line"/>
      <point x="79" y="729" type="line"/>
      <point x="172" y="729" type="line"/>
      <point x="172" y="360" type="line"/>
      <point x="535" y="729" type="line"/>
      <point x="655" y="729" type="line"/>
      <point x="358" y="432" type="line"/>
      <point x="658" y="0" type="line"/>
      <point x="548" y="0" type="line"/>
      <point x="291" y="374" type="line"/>
    </contour>
  </outline>
</glyph>
<glyph name="L" format="1">
  <advance width="556"/>
  <unicode hex="004C"/>
  <outline>
    <contour>
      <point x="173" y="729" type="line"/>
      <point x="173" y="82" type="line"/>
      <point x="533" y="82" type="line"/>
      <point x="533" y="0" type="line"/>
      <point x="80" y="0" type="line"/>
      <point x="80" y="729" type="line"/>
    </contour>
  </outline>
</glyph>
<glyph name="M" format="1">
  <advance width="833"/>
  <unicode hex="004D"/>
  <outline>
    <contour>
      <point x="468" y="0" type="line"/>
      <point x="370" y="0" type="line"/>
      <point x="163" y="611" type="line"/>
      <point x="163" y="0" type="line"/>
      <point x="75" y="0" type="line"/>
      <point x="75" y="729" type="line"/>
      <point x="204" y="729" type="line"/>
      <point x="420" y="94" type="line"/>
      <point x="632" y="729" type="line"/>
      <point x="761" y="729" type="line"/>
      <point x="761" y="0" type="line"/>
      <point x="673" y="0" type="line"/>
      <point x="673" y="611" type="line"/>
    </contour>
  </outline>
</glyph>
<glyph name="N" format="1">
  <advance width="722"/>
  <unicode hex="004E"/>
  <outline>
    <contour>
      <point x="646" y="729" type="line"/>
      <point x="646" y="0" type="line"/>
      <point x="541" y="0" type="line"/>
      <point x="164" y="591" type="line"/>
      <point x="164" y="0" type="line"/>
      <point x="76" y="0" type="line"/>
      <point x="76" y="729" type="line"/>
      <point x="177" y="729" type="line"/>
      <point x="558" y="133" type="line"/>
      <point x="558" y="729" type="line"/>
    </contour>
  </outline>
</glyph>
<glyph name="P" format="1">
  <advance width="667"/>
  <unicode hex="0050"/>
  <outline>
    <contour>
      <point x="184" y="309" type="line"/>
      <point x="184" y="0" type="line"/>
      <point x="91" y="0" type="line"/>
      <point x="91" y="729" type="line"/>
      <point x="392" y="729" type="line" smooth="yes"/>
      <point x="536" y="729"/>
      <point x="617" y="652"/>
      <point x="617" y="515" type="curve" smooth="yes"/>
      <point x="617" y="448"/>
      <point x="598" y="401"/>
      <point x="554" y="361" type="curve" smooth="yes"/>
      <point x="515" y="326"/>
      <point x="470" y="309"/>
      <point x="413" y="309" type="curve" smooth="yes"/>
    </contour>
    <contour>
      <point x="184" y="391" type="line"/>
      <point x="378" y="391" type="line" smooth="yes"/>
      <point x="467" y="391"/>
      <point x="520" y="439"/>
      <point x="520" y="519" type="curve" smooth="yes"/>
      <point x="520" y="599"/>
      <point x="467" y="647"/>
      <point x="378" y="647" type="curve" smooth="yes"/>
      <point x="184" y="647" type="line"/>
    </contour>
  </outline>
</glyph>
<glyph name="Q" format="1">
  <advance width="778"/>
  <unicode hex="0051"/>
  <outline>
    <contour>
      <point x="733" y="-1" type="line"/>
      <point x="686" y="-59" type="line"/>
      <point x="581" y="28" type="line"/>
      <point x="522" y="-7"/>
      <point x="462" y="-23"/>
      <point x="390" y="-23" type="curve" smooth="yes"/>
      <point x="180" y="-23"/>
      <point x="38" y="131"/>
      <point x="38" y="359" type="curve" smooth="yes"/>
      <point x="38" y="587"/>
      <point x="180" y="741"/>
      <point x="390" y="741" type="curve" smooth="yes"/>
      <point x="600" y="741"/>
      <point x="742" y="587"/>
      <point x="742" y="361" type="curve" smooth="yes"/>
      <point x="742" y="246"/>
      <point x="708" y="152"/>
      <point x="639" y="76" type="curve"/>
    </contour>
    <contour>
      <point x="481" y="205" type="line"/>
      <point x="570" y="132" type="line"/>
      <point x="624" y="193"/>
      <point x="649" y="266"/>
      <point x="649" y="360" type="curve" smooth="yes"/>
      <point x="649" y="539"/>
      <point x="545" y="659"/>
      <point x="390" y="659" type="curve" smooth="yes"/>
      <point x="235" y="659"/>
      <point x="131" y="539"/>
      <point x="131" y="359" type="curve" smooth="yes"/>
      <point x="131" y="179"/>
      <point x="234" y="59"/>
      <point x="389" y="59" type="curve" smooth="yes"/>
      <point x="433" y="59"/>
      <point x="466" y="67"/>
      <point x="509" y="87" type="curve"/>
      <point x="435" y="149" type="line"/>
    </contour>
  </outline>
</glyph>
<glyph name="T" format="1">
  <advance width="611"/>
  <unicode hex="0054"/>
  <outline>
    <contour>
      <point x="354" y="647" type="line"/>
      <point x="354" y="0" type="line"/>
      <point x="261" y="0" type="line"/>
      <point x="261" y="647" type="line"/>
      <point x="21" y="647" type="line"/>
      <point x="21" y="729" type="line"/>
      <point x="593" y="729" type="line"/>
      <point x="593" y="647" type="line"/>
    </contour>
  </outline>
</glyph>
<glyph name="V" format="1">
  <advance width="667"/>
  <unicode hex="0056"/>
  <outline>
    <contour>
      <point x="392" y="0" type="line"/>
      <point x="292" y="0" type="line"/>
      <point x="30" y="729" type="line"/>
      <point x="130" y="729" type="line"/>
      <point x="344" y="112" type="line"/>
      <point x="546" y="729" type="line"/>
      <point x="645" y="729" type="line"/>
    </contour>
  </outline>
</glyph>
<glyph name="Y" format="1">
  <advance width="667"/>
  <unicode hex="0059"/>
  <outline>
    <contour>
      <point x="387" y="286" type="line"/>
      <point x="387" y="0" type="line"/>
      <point x="294" y="0" type="line"/>
      <point x="294" y="286" type="line"/>
      <point x="13" y="729" type="line"/>
      <point x="128" y="729" type="line"/>
      <point x="342" y="374" type="line"/>
      <point x="550" y="729" type="line"/>
      <point x="661" y="729" type="line"/>
    </contour>
  </outline>
</glyph>
<glyph name="bracketleft" format="1">
  <advance width="278"/>
  <unicode hex="005B"/>
  <outline>
    <contour>
      <point x="250" y="729" type="line"/>
      <point x="250" y="657" type="line"/>
      <point x="147" y="657" type="line"/>
      <point x="147" y="-140" type="line"/>
      <point x="250" y="-140" type="line"/>
      <point x="250" y="-212" type="line"/>
      <point x="64" y="-212" type="line"/>
      <point x="64" y="729" type="line"/>
    </contour>
  </outline>
</glyph>
<glyph name="bracketright" format="1">
  <advance width="278"/>
  <unicode hex="005D"/>
  <outline>
    <contour>
      <point x="23" y="-212" type="line"/>
      <point x="23" y="-140" type="line"/>
      <point x="126" y="-140" type="line"/>
      <point x="126" y="657" type="line"/>
      <point x="23" y="657" type="line"/>
      <point x="23" y="729" type="line"/>
      <point x="209" y="729" type="line"/>
      <point x="209" y="-212" type="line"/>
    </contour>
  </outline>
</glyph>
<glyph name="asciicircum" format="1">
  <advance width="469"/>
  <unicode hex="005E"/>
  <outline>
    <contour>
      <point x="197" y="709" type="line"/>
      <point x="270" y="709" type="line"/>
      <point x="425" y="329" type="line"/>
      <point x="356" y="329" type="line"/>
      <point x="234" y="629" type="line"/>
      <point x="113" y="329" type="line"/>
      <point x="44" y="329" type="line"/>
    </contour>
  </outline>
</glyph>
<glyph name="b" format="1">
  <advance width="556"/>
  <unicode hex="0062"/>
  <outline>
    <contour>
      <point x="54" y="729" type="line"/>
      <point x="137" y="729" type="line"/>
      <point x="137" y="453" type="line"/>
      <point x="176" y="512"/>
      <point x="227" y="539"/>
      <point x="299" y="539" type="curve" smooth="yes"/>
      <point x="437" y="539"/>
      <point x="523" y="434"/>
      <point x="523" y="264" type="curve" smooth="yes"/>
      <point x="523" y="90"/>
      <point x="433" y="-23"/>
      <point x="295" y="-23" type="curve" smooth="yes"/>
      <point x="222" y="-23"/>
      <point x="169" y="6"/>
      <point x="129" y="67" type="curve"/>
      <point x="129" y="0" type="line"/>
      <point x="54" y="0" type="line"/>
    </contour>
    <contour>
      <point x="283" y="461" type="curve" smooth="yes"/>
      <point x="195" y="461"/>
      <point x="137" y="381"/>
      <point x="137" y="258" type="curve" smooth="yes"/>
      <point x="137" y="135"/>
      <point x="195" y="55"/>
      <point x="283" y="55" type="curve" smooth="yes"/>
      <point x="374" y="55"/>
      <point x="436" y="136"/>
      <point x="436" y="255" type="curve" smooth="yes"/>
      <point x="436" y="380"/>
      <point x="376" y="461"/>
    </contour>
  </outline>
</glyph>
<glyph name="f" format="1">
  <advance width="278"/>
  <unicode hex="0066"/>
  <outline>
    <contour>
      <point x="258" y="524" type="line"/>
      <point x="258" y="456" type="line"/>
      <point x="171" y="456" type="line"/>
      <point x="171" y="0" type="line"/>
      <point x="88" y="0" type="line"/>
      <point x="88" y="456" type="line"/>
      <point x="18" y="456" type="line"/>
      <point x="18" y="524" type="line"/>
      <point x="88" y="524" type="line"/>
      <point x="88" y="613" type="line" smooth="yes"/>
      <point x="88" y="688"/>
      <point x="134" y="732"/>
      <point x="211" y="732" type="curve" smooth="yes"/>
      <point x="228" y="732"/>
      <point x="239" y="731"/>
      <point x="258" y="727" type="curve"/>
      <point x="258" y="658" type="line"/>
      <point x="239" y="659"/>
      <point x="236" y="659"/>
      <point x="229" y="659" type="curve" smooth="yes"/>
      <point x="191" y="659"/>
      <point x="171" y="641"/>
      <point x="171" y="606" type="curve" smooth="yes"/>
      <point x="171" y="524" type="line"/>
    </contour>
  </outline>
</glyph>
<glyph name="h" format="1">
  <advance width="556"/>
  <unicode hex="0068"/>
  <outline>
    <contour>
      <point x="70" y="729" type="line"/>
      <point x="153" y="729" type="line"/>
      <point x="153" y="452" type="line"/>
      <point x="202" y="516"/>
      <point x="247" y="539"/>
      <point x="321" y="539" type="curve" smooth="yes"/>
      <point x="423" y="539"/>
      <point x="486" y="484"/>
      <point x="486" y="396" type="curve" smooth="yes"/>
      <point x="486" y="0" type="line"/>
      <point x="403" y="0" type="line"/>
      <point x="403" y="363" type="line" smooth="yes"/>
      <point x="403" y="400"/>
      <point x="393" y="425"/>
      <point x="369" y="442" type="curve" smooth="yes"/>
      <point x="349" y="457"/>
      <point x="322" y="466"/>
      <point x="295" y="466" type="curve" smooth="yes"/>
      <point x="209" y="466"/>
      <point x="153" y="396"/>
      <point x="153" y="289" type="curve" smooth="yes"/>
      <point x="153" y="0" type="line"/>
      <point x="70" y="0" type="line"/>
    </contour>
  </outline>
</glyph>
<glyph name="j" format="1">
  <advance width="222"/>
  <unicode hex="006A"/>
  <outline>
    <contour>
      <point x="70" y="524" type="line"/>
      <point x="153" y="524" type="line"/>
      <point x="153" y="-109" type="line" smooth="yes"/>
      <point x="153" y="-180"/>
      <point x="104" y="-218"/>
      <point x="10" y="-218" type="curve" smooth="yes"/>
      <point x="-3" y="-218"/>
      <point x="-8" y="-217"/>
      <point x="-18" y="-215" type="curve"/>
      <point x="-18" y="-144" type="line"/>
      <point x="-1" y="-145"/>
      <point x="-1" y="-145"/>
      <point x="2" y="-145" type="curve" smooth="yes"/>
      <point x="53" y="-145"/>
      <point x="70" y="-128"/>
      <point x="70" y="-76" type="curve" smooth="yes"/>
    </contour>
    <contour>
      <point x="153" y="729" type="line"/>
      <point x="153" y="624" type="line"/>
      <point x="70" y="624" type="line"/>
      <point x="70" y="729" type="line"/>
    </contour>
  </outline>
</glyph>
<glyph name="l" format="1">
  <advance width="222"/>
  <unicode hex="006C"/>
  <outline>
    <contour>
      <point x="152" y="729" type="line"/>
      <point x="152" y="0" type="line"/>
      <point x="68" y="0" type="line"/>
      <point x="68" y="729" type="line"/>
    </contour>
  </outline>
</glyph>
<glyph name="m" format="1">
  <advance width="833"/>
  <unicode hex="006D"/>
  <outline>
    <contour>
      <point x="70" y="524" type="line"/>
      <point x="147" y="524" type="line"/>
      <point x="147" y="450" type="line"/>
      <point x="192" y="513"/>
      <point x="238" y="539"/>
      <point x="308" y="539" type="curve" smooth="yes"/>
      <point x="376" y="539"/>
      <point x="418" y="515"/>
      <point x="449" y="459" type="curve"/>
      <point x="498" y="518"/>
      <point x="540" y="539"/>
      <point x="610" y="539" type="curve" smooth="yes"/>
      <point x="708" y="539"/>
      <point x="762" y="487"/>
      <point x="762" y="393" type="curve" smooth="yes"/>
      <point x="762" y="0" type="line"/>
      <point x="678" y="0" type="line"/>
      <point x="678" y="361" type="line" smooth="yes"/>
      <point x="678" y="427"/>
      <point x="642" y="466"/>
      <point x="581" y="466" type="curve" smooth="yes"/>
      <point x="513" y="466"/>
      <point x="458" y="405"/>
      <point x="458" y="329" type="curve" smooth="yes"/>
      <point x="458" y="0" type="line"/>
      <point x="374" y="0" type="line"/>
      <point x="374" y="361" type="line" smooth="yes"/>
      <point x="374" y="428"/>
      <point x="339" y="466"/>
      <point x="277" y="466" type="curve" smooth="yes"/>
      <point x="209" y="466"/>
      <point x="154" y="405"/>
      <point x="154" y="329" type="curve" smooth="yes"/>
      <point x="154" y="0" type="line"/>
      <point x="70" y="0" type="line"/>
    </contour>
  </outline>
</glyph>
<glyph name="n" format="1">
  <advance width="556"/>
  <unicode hex="006E"/>
  <outline>
    <contour>
      <point x="70" y="524" type="line"/>
      <point x="147" y="524" type="line"/>
      <point x="147" y="436" type="line"/>
      <point x="193" y="509"/>
      <point x="243" y="539"/>
      <point x="321" y="539" type="curve" smooth="yes"/>
      <point x="422" y="539"/>
      <point x="487" y="483"/>
      <point x="487" y="396" type="curve" smooth="yes"/>
      <point x="487" y="0" type="line"/>
      <point x="404" y="0" type="line"/>
      <point x="404" y="363" type="line" smooth="yes"/>
      <point x="404" y="426"/>
      <point x="362" y="466"/>
      <point x="296" y="466" type="curve" smooth="yes"/>
      <point x="210" y="466"/>
      <point x="154" y="396"/>
      <point x="154" y="289" type="curve" smooth="yes"/>
      <point x="154" y="0" type="line"/>
      <point x="70" y="0" type="line"/>
    </contour>
  </outline>
</glyph>
<glyph name="q" format="1">
  <advance width="556"/>
  <unicode hex="0071"/>
  <outline>
    <contour>
      <point x="495" y="-218" type="line"/>
      <point x="412" y="-218" type="line"/>
      <point x="412" y="60" type="line"/>
      <point x="373" y="3"/>
      <point x="323" y="-23"/>
      <point x="250" y="-23" type="curve" smooth="yes"/>
      <point x="112" y="-23"/>
      <point x="26" y="82"/>
      <point x="26" y="252" type="curve" smooth="yes"/>
      <point x="26" y="426"/>
      <point x="116" y="539"/>
      <point x="254" y="539" type="curve" smooth="yes"/>
      <point x="323" y="539"/>
      <point x="382" y="509"/>
      <point x="421" y="454" type="curve"/>
      <point x="421" y="524" type="line"/>
      <point x="495" y="524" type="line"/>
    </contour>
    <contour>
      <point x="266" y="461" type="curve" smooth="yes"/>
      <point x="174" y="461"/>
      <point x="113" y="379"/>
      <point x="113" y="258" type="curve" smooth="yes"/>
      <point x="113" y="136"/>
      <point x="174" y="55"/>
      <point x="266" y="55" type="curve" smooth="yes"/>
      <point x="354" y="55"/>
      <point x="412" y="135"/>
      <point x="412" y="255" type="curve" smooth="yes"/>
      <point x="412" y="381"/>
      <point x="355" y="461"/>
    </contour>
  </outline>
</glyph>
<glyph name="s" format="1">
  <advance width="500"/>
  <unicode hex="0073"/>
  <outline>
    <contour>
      <point x="438" y="378" type="curve"/>
      <point x="350" y="378" type="line"/>
      <point x="348" y="433"/>
      <point x="312" y="462"/>
      <point x="245" y="462" type="curve" smooth="yes"/>
      <point x="177" y="462"/>
      <point x="134" y="431"/>
      <point x="134" y="383" type="curve" smooth="yes"/>
      <point x="134" y="346"/>
      <point x="163" y="324"/>
      <point x="231" y="308" type="curve" smooth="yes"/>
      <point x="311" y="289" type="line" smooth="yes"/>
      <point x="415" y="264"/>
      <point x="459" y="221"/>
      <point x="459" y="143" type="curve" smooth="yes"/>
      <point x="459" y="42"/>
      <point x="375" y="-23"/>
      <point x="243" y="-23" type="curve" smooth="yes"/>
      <point x="106" y="-23"/>
      <point x="38" y="35"/>
      <point x="34" y="156" type="curve"/>
      <point x="122" y="156" type="line"/>
      <point x="127" y="119"/>
      <point x="133" y="104"/>
      <point x="146" y="89" type="curve" smooth="yes"/>
      <point x="167" y="67"/>
      <point x="205" y="54"/>
      <point x="250" y="54" type="curve" smooth="yes"/>
      <point x="323" y="54"/>
      <point x="372" y="87"/>
      <point x="372" y="136" type="curve" smooth="yes"/>
      <point x="372" y="174"/>
      <point x="349" y="195"/>
      <point x="291" y="209" type="curve" smooth="yes"/>
      <point x="213" y="228" type="line" smooth="yes"/>
      <point x="89" y="258"/>
      <point x="47" y="297"/>
      <point x="47" y="379" type="curve" smooth="yes"/>
      <point x="47" y="476"/>
      <point x="126" y="539"/>
      <point x="248" y="539" type="curve" smooth="yes"/>
      <point x="369" y="539"/>
      <point x="437" y="481"/>
    </contour>
  </outline>
</glyph>
<glyph name="t" format="1">
  <advance width="278"/>
  <unicode hex="0074"/>
  <outline>
    <contour>
      <point x="254" y="524" type="line"/>
      <point x="254" y="456" type="line"/>
      <point x="168" y="456" type="line"/>
      <point x="168" y="97" type="line" smooth="yes"/>
      <point x="168" y="60"/>
      <point x="178" y="50"/>
      <point x="214" y="50" type="curve" smooth="yes"/>
      <point x="230" y="50"/>
      <point x="243" y="51"/>
      <point x="254" y="54" type="curve"/>
      <point x="254" y="-16" type="line"/>
      <point x="226" y="-21"/>
      <point x="206" y="-23"/>
      <point x="186" y="-23" type="curve" smooth="yes"/>
      <point x="121" y="-23"/>
      <point x="85" y="7"/>
      <point x="85" y="60" type="curve" smooth="yes"/>
      <point x="85" y="456" type="line"/>
      <point x="14" y="456" type="line"/>
      <point x="14" y="524" type="line"/>
      <point x="85" y="524" type="line"/>
      <point x="85" y="668" type="line"/>
      <point x="168" y="668" type="line"/>
      <point x="168" y="524" type="line"/>
    </contour>
  </outline>
</glyph>
<glyph name="v" format="1">
  <advance width="500"/>
  <unicode hex="0076"/>
  <outline>
    <contour>
      <point x="285" y="0" type="line"/>
      <point x="194" y="0" type="line"/>
      <point x="10" y="524" type="line"/>
      <point x="104" y="524" type="line"/>
      <point x="244" y="99" type="line"/>
      <point x="392" y="524" type="line"/>
      <point x="486" y="524" type="line"/>
    </contour>
  </outline>
</glyph>
<glyph name="braceleft" format="1">
  <advance width="334"/>
  <unicode hex="007B"/>
  <outline>
    <contour>
      <point x="276" y="729" type="line"/>
      <point x="276" y="664" type="line"/>
      <point x="261" y="664" type="line" smooth="yes"/>
      <point x="212" y="664"/>
      <point x="198" y="649"/>
      <point x="198" y="597" type="curve" smooth="yes"/>
      <point x="198" y="416" type="line" smooth="yes"/>
      <point x="198" y="324"/>
      <point x="177" y="283"/>
      <point x="116" y="259" type="curve"/>
      <point x="172" y="233"/>
      <point x="198" y="184"/>
      <point x="198" y="101" type="curve" smooth="yes"/>
      <point x="198" y="-80" type="line" smooth="yes"/>
      <point x="198" y="-132"/>
      <point x="212" y="-147"/>
      <point x="261" y="-147" type="curve" smooth="yes"/>
      <point x="276" y="-147" type="line"/>
      <point x="276" y="-212" type="line"/>
      <point x="230" y="-212" type="line" smooth="yes"/>
      <point x="161" y="-212"/>
      <point x="121" y="-164"/>
      <point x="121" y="-81" type="curve" smooth="yes"/>
      <point x="121" y="86" type="line" smooth="yes"/>
      <point x="121" y="178"/>
      <point x="102" y="212"/>
      <point x="43" y="224" type="curve"/>
      <point x="43" y="293" type="line"/>
      <point x="102" y="305"/>
      <point x="121" y="338"/>
      <point x="121" y="431" type="curve" smooth="yes"/>
      <point x="121" y="598" type="line" smooth="yes"/>
      <point x="121" y="681"/>
      <point x="161" y="729"/>
      <point x="230" y="729" type="curve" smooth="yes"/>
    </contour>
  </outline>
</glyph>
<glyph name="asciitilde" format="1">
  <advance width="584"/>
  <unicode hex="007E"/>
  <outline>
    <contour>
      <point x="455" y="411" type="curve"/>
      <point x="508" y="411" type="line"/>
      <point x="508" y="395" type="line" smooth="yes"/>
      <point x="508" y="318"/>
      <point x="467" y="268"/>
      <point x="403" y="268" type="curve" smooth="yes"/>
      <point x="378" y="268"/>
      <point x="348" y="278"/>
      <point x="322" y="294" type="curve" smooth="yes"/>
      <point x="224" y="357" type="line" smooth="yes"/>
      <point x="214" y="363"/>
      <point x="191" y="371"/>
      <point x="181" y="371" type="curve" smooth="yes"/>
      <point x="163" y="371"/>
      <point x="146" y="358"/>
      <point x="136" y="336" type="curve" smooth="yes"/>
      <point x="132" y="326"/>
      <point x="130" y="316"/>
      <point x="128" y="293" type="curve"/>
      <point x="75" y="293" type="line"/>
      <point x="80" y="387"/>
      <point x="118" y="438"/>
      <point x="183" y="438" type="curve" smooth="yes"/>
      <point x="201" y="438"/>
      <point x="220" y="432"/>
      <point x="237" y="422" type="curve" smooth="yes"/>
      <point x="354" y="353" type="line" smooth="yes"/>
      <point x="374" y="341"/>
      <point x="390" y="336"/>
      <point x="404" y="336" type="curve" smooth="yes"/>
      <point x="441" y="336"/>
      <point x="456" y="358"/>
    </contour>
  </outline>
</glyph>
<glyph name="exclamdown" format="1">
  <advance width="333"/>
  <unicode hex="00A1"/>
  <outline>
    <contour>
      <point x="122" y="-205" type="line"/>
      <point x="122" y="133" type="line"/>
      <point x="144" y="356" type="line"/>
      <point x="183" y="356" type="line"/>
      <point x="205" y="133" type="line"/>
      <point x="205" y="-205" type="line"/>
    </contour>
    <contour>
      <point x="121" y="420" type="line"/>
      <point x="121" y="524" type="line"/>
      <point x="205" y="524" type="line"/>
      <point x="205" y="420" type="line"/>
    </contour>
  </outline>
</glyph>
<glyph name="currency" format="1">
  <advance width="556"/>
  <unicode hex="00A4"/>
  <outline>
    <contour>
      <point x="485" y="190" type="line"/>
      <point x="427" y="136" type="line"/>
      <point x="374" y="189" type="line"/>
      <point x="347" y="169"/>
      <point x="313" y="159"/>
      <point x="274" y="159" type="curve" smooth="yes"/>
      <point x="241" y="159"/>
      <point x="206" y="168"/>
      <point x="180" y="184" type="curve"/>
      <point x="129" y="133" type="line"/>
      <point x="73" y="190" type="line"/>
      <point x="121" y="239" type="line"/>
      <point x="101" y="266"/>
      <point x="89" y="305"/>
      <point x="89" y="341" type="curve" smooth="yes"/>
      <point x="89" y="377"/>
      <point x="101" y="415"/>
      <point x="121" y="443" type="curve"/>
      <point x="67" y="498" type="line"/>
      <point x="123" y="551" type="line"/>
      <point x="178" y="496" type="line"/>
      <point x="207" y="513"/>
      <point x="239" y="522"/>
      <point x="275" y="522" type="curve" smooth="yes"/>
      <point x="312" y="522"/>
      <point x="347" y="512"/>
      <point x="373" y="494" type="curve"/>
      <point x="432" y="547" type="line"/>
      <point x="489" y="489" type="line"/>
      <point x="434" y="434" type="line"/>
      <point x="450" y="409"/>
      <point x="460" y="373"/>
      <point x="460" y="341" type="curve" smooth="yes"/>
      <point x="460" y="307"/>
      <point x="450" y="275"/>
      <point x="431" y="244" type="curve"/>
    </contour>
    <contour>
      <point x="274" y="445" type="curve" smooth="yes"/>
      <point x="216" y="445"/>
      <point x="168" y="398"/>
      <point x="168" y="340" type="curve" smooth="yes"/>
      <point x="168" y="283"/>
      <point x="216" y="236"/>
      <point x="275" y="236" type="curve" smooth="yes"/>
      <point x="332" y="236"/>
      <point x="381" y="283"/>
      <point x="381" y="339" type="curve" smooth="yes"/>
      <point x="381" y="398"/>
      <point x="334" y="445"/>
    </contour>
  </outline>
</glyph>
<glyph name="yen" format="1">
  <advance width="556"/>
  <unicode hex="00A5"/>
  <outline>
    <contour>
      <point x="495" y="354" type="line"/>
      <point x="495" y="303" type="line"/>
      <point x="325" y="303" type="line"/>
      <point x="325" y="226" type="line"/>
      <point x="495" y="226" type="line"/>
      <point x="495" y="175" type="line"/>
      <point x="325" y="175" type="line"/>
      <point x="325" y="0" type="line"/>
      <point x="237" y="0" type="line"/>
      <point x="237" y="175" type="line"/>
      <point x="65" y="175" type="line"/>
      <point x="65" y="226" type="line"/>
      <point x="237" y="226" type="line"/>
      <point x="237" y="303" type="line"/>
      <point x="65" y="303" type="line"/>
      <point x="65" y="354" type="line"/>
      <point x="216" y="354" type="line"/>
      <point x="11" y="709" type="line"/>
      <point x="96" y="709" type="line"/>
      <point x="281" y="387" type="line"/>
      <point x="460" y="709" type="line"/>
      <point x="545" y="709" type="line"/>
      <point x="344" y="354" type="line"/>
    </contour>
  </outline>
</glyph>
<glyph name="brokenbar" format="1">
  <advance width="260"/>
  <unicode hex="00A6"/>
  <outline>
    <contour>
      <point x="100" y="729" type="line"/>
      <point x="160" y="729" type="line"/>
      <point x="160" y="328" type="line"/>
      <point x="100" y="328" type="line"/>
    </contour>
    <contour>
      <point x="100" y="189" type="line"/>
      <point x="160" y="189" type="line"/>
      <point x="160" y="-212" type="line"/>
      <point x="100" y="-212" type="line"/>
    </contour>
  </outline>
</glyph>
<glyph name="section" format="1">
  <advance width="556"/>
  <unicode hex="00A7"/>
  <outline>
    <contour>
      <point x="464" y="524" type="line"/>
      <point x="380" y="524" type="line"/>
      <point x="380" y="533" type="line"/>
      <point x="380" y="550" type="line" smooth="yes"/>
      <point x="380" y="612"/>
      <point x="342" y="652"/>
      <point x="283" y="652" type="curve" smooth="yes"/>
      <point x="232" y="652"/>
      <point x="194" y="616"/>
      <point x="194" y="567" type="curve" smooth="yes"/>
      <point x="194" y="538"/>
      <point x="209" y="518"/>
      <point x="251" y="490" type="curve" smooth="yes"/>
      <point x="397" y="396" type="line" smooth="yes"/>
      <point x="478" y="344"/>
      <point x="506" y="301"/>
      <point x="506" y="229" type="curve" smooth="yes"/>
      <point x="506" y="153"/>
      <point x="469" y="100"/>
      <point x="397" y="73" type="curve"/>
      <point x="437" y="28"/>
      <point x="450" y="-2"/>
      <point x="450" y="-45" type="curve" smooth="yes"/>
      <point x="450" y="-141"/>
      <point x="370" y="-213"/>
      <point x="263" y="-213" type="curve" smooth="yes"/>
      <point x="179" y="-213"/>
      <point x="112" y="-170"/>
      <point x="88" y="-100" type="curve" smooth="yes"/>
      <point x="79" y="-73"/>
      <point x="77" y="-61"/>
      <point x="77" y="-14" type="curve"/>
      <point x="162" y="-14" type="line"/>
      <point x="162" y="-53"/>
      <point x="166" y="-73"/>
      <point x="180" y="-92" type="curve"/>
      <point x="199" y="-121"/>
      <point x="228" y="-136"/>
      <point x="264" y="-136" type="curve" smooth="yes"/>
      <point x="321" y="-136"/>
      <point x="360" y="-101"/>
      <point x="360" y="-50" type="curve" smooth="yes"/>
      <point x="360" y="-15"/>
      <point x="344" y="11"/>
      <point x="305" y="38" type="curve" smooth="yes"/>
      <point x="135" y="155" type="line" smooth="yes"/>
      <point x="70" y="200"/>
      <point x="43" y="247"/>
      <point x="43" y="312" type="curve" smooth="yes"/>
      <point x="43" y="378"/>
      <point x="74" y="423"/>
      <point x="148" y="462" type="curve"/>
      <point x="117" y="498"/>
      <point x="104" y="526"/>
      <point x="104" y="564" type="curve" smooth="yes"/>
      <point x="104" y="656"/>
      <point x="185" y="729"/>
      <point x="289" y="729" type="curve" smooth="yes"/>
      <point x="393" y="729"/>
      <point x="464" y="658"/>
      <point x="464" y="552" type="curve" smooth="yes"/>
      <point x="464" y="532" type="line"/>
    </contour>
    <contour>
      <point x="188" y="229" type="curve" smooth="yes"/>
      <point x="354" y="106" type="line"/>
      <point x="401" y="131"/>
      <point x="427" y="168"/>
      <point x="427" y="208" type="curve" smooth="yes"/>
      <point x="427" y="249"/>
      <point x="403" y="286"/>
      <point x="354" y="320" type="curve" smooth="yes"/>
      <point x="193" y="429" type="line"/>
      <point x="141" y="395"/>
      <point x="122" y="368"/>
      <point x="122" y="328" type="curve" smooth="yes"/>
      <point x="122" y="288"/>
      <point x="135" y="268"/>
    </contour>
  </outline>
</glyph>
<glyph name="dieresis" format="1">
  <advance width="333"/>
  <unicode hex="00A8"/>
  <outline>
    <contour>
      <point x="134" y="715" type="line"/>
      <point x="134" y="612" type="line"/>
      <point x="30" y="612" type="line"/>
      <point x="30" y="715" type="line"/>
    </contour>
    <contour>
      <point x="296" y="715" type="line"/>
      <point x="296" y="612" type="line"/>
      <point x="192" y="612" type="line"/>
      <point x="192" y="715" type="line"/>
    </contour>
  </outline>
</glyph>
<glyph name="logicalnot" format="1">
  <advance width="584"/>
  <unicode hex="00AC"/>
  <outline>
    <contour>
      <point x="40" y="375" type="line"/>
      <point x="544" y="375" type="line"/>
      <point x="544" y="86" type="line"/>
      <point x="474" y="86" type="line"/>
      <point x="474" y="305" type="line"/>
      <point x="40" y="305" type="line"/>
    </contour>
  </outline>
</glyph>
<glyph name="degree" format="1">
  <advance width="606"/>
  <unicode hex="00B0"/>
  <outline>
    <contour>
      <point x="303" y="686" type="curve" smooth="yes"/>
      <point x="386" y="686"/>
      <point x="454" y="618"/>
      <point x="454" y="535" type="curve" smooth="yes"/>
      <point x="454" y="450"/>
      <point x="386" y="383"/>
      <point x="301" y="383" type="curve" smooth="yes"/>
      <point x="219" y="383"/>
      <point x="151" y="452"/>
      <point x="151" y="535" type="curve" smooth="yes"/>
      <point x="151" y="618"/>
      <point x="219" y="686"/>
    </contour>
    <contour>
      <point x="303" y="629" type="curve" smooth="yes"/>
      <point x="251" y="629"/>
      <point x="208" y="586"/>
      <point x="208" y="535" type="curve" smooth="yes"/>
      <point x="208" y="483"/>
      <point x="251" y="440"/>
      <point x="301" y="440" type="curve" smooth="yes"/>
      <point x="355" y="440"/>
      <point x="397" y="482"/>
      <point x="397" y="535" type="curve" smooth="yes"/>
      <point x="397" y="587"/>
      <point x="355" y="629"/>
    </contour>
  </outline>
</glyph>
<glyph name="plusminus" format="1">
  <advance width="584"/>
  <unicode hex="00B1"/>
  <outline>
    <contour>
      <point x="534" y="416" type="line"/>
      <point x="534" y="346" type="line"/>
      <point x="327" y="346" type="line"/>
      <point x="327" y="139" type="line"/>
      <point x="257" y="139" type="line"/>
      <point x="257" y="346" type="line"/>
      <point x="50" y="346" type="line"/>
      <point x="50" y="416" type="line"/>
      <point x="257" y="416" type="line"/>
      <point x="257" y="623" type="line"/>
      <point x="327" y="623" type="line"/>
      <point x="327" y="416" type="line"/>
    </contour>
    <contour>
      <point x="534" y="59" type="line"/>
      <point x="534" y="-11" type="line"/>
      <point x="50" y="-11" type="line"/>
      <point x="50" y="59" type="line"/>
    </contour>
  </outline>
</glyph>
<glyph name="twosuperior" format="1">
  <advance width="351"/>
  <unicode hex="00B2"/>
  <outline>
    <contour>
      <point x="323" y="342" type="line"/>
      <point x="323" y="284" type="line"/>
      <point x="19" y="284" type="line"/>
      <point x="24" y="381"/>
      <point x="50" y="420"/>
      <point x="146" y="471" type="curve" smooth="yes"/>
      <point x="204" y="502" type="line" smooth="yes"/>
      <point x="243" y="523"/>
      <point x="263" y="550"/>
      <point x="263" y="581" type="curve" smooth="yes"/>
      <point x="263" y="624"/>
      <point x="226" y="656"/>
      <point x="178" y="656" type="curve" smooth="yes"/>
      <point x="146" y="656"/>
      <point x="118" y="641"/>
      <point x="104" y="617" type="curve" smooth="yes"/>
      <point x="96" y="604"/>
      <point x="93" y="588"/>
      <point x="91" y="557" type="curve"/>
      <point x="29" y="557" type="line"/>
      <point x="32" y="660"/>
      <point x="81" y="709"/>
      <point x="180" y="709" type="curve" smooth="yes"/>
      <point x="266" y="709"/>
      <point x="326" y="657"/>
      <point x="326" y="583" type="curve" smooth="yes"/>
      <point x="326" y="530"/>
      <point x="293" y="485"/>
      <point x="230" y="454" type="curve" smooth="yes"/>
      <point x="167" y="422" type="line"/>
      <point x="124" y="399"/>
      <point x="106" y="380"/>
      <point x="94" y="342" type="curve"/>
    </contour>
  </outline>
</glyph>
<glyph name="paragraph" format="1">
  <advance width="537"/>
  <unicode hex="00B6"/>
  <outline>
    <contour>
      <point x="522" y="729" type="line"/>
      <point x="522" y="665" type="line"/>
      <point x="465" y="665" type="line"/>
      <point x="465" y="-177" type="line"/>
      <point x="401" y="-177" type="line"/>
      <point x="401" y="665" type="line"/>
      <point x="319" y="665" type="line"/>
      <point x="319" y="-177" type="line"/>
      <point x="255" y="-177" type="line"/>
      <point x="255" y="259" type="line"/>
      <point x="200" y="262"/>
      <point x="165" y="274"/>
      <point x="130" y="303" type="curve" smooth="yes"/>
      <point x="78" y="346"/>
      <point x="48" y="415"/>
      <point x="48" y="489" type="curve" smooth="yes"/>
      <point x="48" y="624"/>
      <point x="146" y="729"/>
      <point x="272" y="729" type="curve" smooth="yes"/>
    </contour>
  </outline>
</glyph>
<glyph name="periodcentered" format="1">
  <advance width="278"/>
  <unicode hex="00B7"/>
  <outline>
    <contour>
      <point x="211" y="427" type="line"/>
      <point x="211" y="302" type="line"/>
      <point x="87" y="302" type="line"/>
      <point x="87" y="427" type="line"/>
    </contour>
  </outline>
</glyph>
<glyph name="cedilla" format="1">
  <advance width="333"/>
  <unicode hex="00B8"/>
  <outline>
    <contour>
      <point x="165" y="0" type="line"/>
      <point x="203" y="0" type="line"/>
      <point x="180" y="-56" type="line"/>
      <point x="193" y="-54"/>
      <point x="200" y="-54"/>
      <point x="208" y="-54" type="curve" smooth="yes"/>
      <point x="258" y="-54"/>
      <point x="287" y="-78"/>
      <point x="287" y="-121" type="curve" smooth="yes"/>
      <point x="287" y="-178"/>
      <point x="240" y="-214"/>
      <point x="164" y="-214" type="curve" smooth="yes"/>
      <point x="125" y="-214"/>
      <point x="101" y="-207"/>
      <point x="39" y="-180" type="curve"/>
      <point x="60" y="-140" type="line"/>
      <point x="69" y="-144" type="line"/>
      <point x="115" y="-167"/>
      <point x="132" y="-173"/>
      <point x="158" y="-173" type="curve" smooth="yes"/>
      <point x="189" y="-173"/>
      <point x="212" y="-154"/>
      <point x="212" y="-128" type="curve" smooth="yes"/>
      <point x="212" y="-105"/>
      <point x="195" y="-91"/>
      <point x="166" y="-91" type="curve" smooth="yes"/>
      <point x="154" y="-91"/>
      <point x="147" y="-93"/>
      <point x="135" y="-99" type="curve"/>
      <point x="123" y="-92" type="line"/>
    </contour>
  </outline>
</glyph>
<glyph name="onesuperior" format="1">
  <advance width="351"/>
  <unicode hex="00B9"/>
  <outline>
    <contour>
      <point x="160" y="580" type="line"/>
      <point x="61" y="580" type="line"/>
      <point x="61" y="626" type="line"/>
      <point x="76" y="627" type="line"/>
      <point x="148" y="634"/>
      <point x="162" y="645"/>
      <point x="179" y="709" type="curve"/>
      <point x="222" y="709" type="line"/>
      <point x="222" y="284" type="line"/>
      <point x="160" y="284" type="line"/>
    </contour>
  </outline>
</glyph>
<glyph name="ordmasculine" format="1">
  <advance width="365"/>
  <unicode hex="00BA"/>
  <outline>
    <contour>
      <point x="314" y="354" type="line"/>
      <point x="314" y="303" type="line"/>
      <point x="51" y="303" type="line"/>
      <point x="51" y="354" type="line"/>
    </contour>
    <contour>
      <point x="182" y="742" type="curve" smooth="yes"/>
      <point x="273" y="742"/>
      <point x="324" y="680"/>
      <point x="324" y="568" type="curve" smooth="yes"/>
      <point x="324" y="462"/>
      <point x="271" y="399"/>
      <point x="182" y="399" type="curve" smooth="yes"/>
      <point x="92" y="399"/>
      <point x="40" y="462"/>
      <point x="40" y="571" type="curve" smooth="yes"/>
      <point x="40" y="679"/>
      <point x="92" y="742"/>
    </contour>
    <contour>
      <point x="182" y="690" type="curve" smooth="yes"/>
      <point x="130" y="690"/>
      <point x="98" y="645"/>
      <point x="98" y="571" type="curve" smooth="yes"/>
      <point x="98" y="496"/>
      <point x="130" y="451"/>
      <point x="182" y="451" type="curve" smooth="yes"/>
      <point x="234" y="451"/>
      <point x="266" y="496"/>
      <point x="266" y="569" type="curve" smooth="yes"/>
      <point x="266" y="645"/>
      <point x="235" y="690"/>
    </contour>
  </outline>
</glyph>
<glyph name="onequarter" format="1">
  <advance width="869"/>
  <unicode hex="00BC"/>
  <outline>
    <contour>
      <point x="160" y="580" type="line"/>
      <point x="61" y="580" type="line"/>
      <point x="61" y="626" type="line"/>
      <point x="76" y="627" type="line"/>
      <point x="148" y="634"/>
      <point x="162" y="645"/>
      <point x="179" y="709" type="curve"/>
      <point x="222" y="709" type="line"/>
      <point x="222" y="284" type="line"/>
      <point x="160" y="284" type="line"/>
    </contour>
    <contour>
      <point x="643" y="709" type="line"/>
      <point x="701" y="709" type="line"/>
      <point x="249" y="-20" type="line"/>
      <point x="191" y="-20" type="line"/>
    </contour>
    <contour>
      <point x="720" y="100" type="line"/>
      <point x="532" y="100" type="line"/>
      <point x="532" y="159" type="line"/>
      <point x="736" y="425" type="line"/>
      <point x="782" y="425" type="line"/>
      <point x="782" y="153" type="line"/>
      <point x="849" y="153" type="line"/>
      <point x="849" y="100" type="line"/>
      <point x="782" y="100" type="line"/>
      <point x="782" y="0" type="line"/>
      <point x="720" y="0" type="line"/>
    </contour>
    <contour>
      <point x="720" y="153" type="line"/>
      <point x="720" y="323" type="line"/>
      <point x="591" y="153" type="line"/>
    </contour>
  </outline>
</glyph>
<glyph name="onehalf" format="1">
  <advance width="869"/>
  <unicode hex="00BD"/>
  <outline>
    <contour>
      <point x="160" y="580" type="line"/>
      <point x="61" y="580" type="line"/>
      <point x="61" y="626" type="line"/>
      <point x="76" y="627" type="line"/>
      <point x="148" y="634"/>
      <point x="162" y="645"/>
      <point x="179" y="709" type="curve"/>
      <point x="222" y="709" type="line"/>
      <point x="222" y="284" type="line"/>
      <point x="160" y="284" type="line"/>
    </contour>
    <contour>
      <point x="619" y="709" type="line"/>
      <point x="677" y="709" type="line"/>
      <point x="225" y="-20" type="line"/>
      <point x="167" y="-20" type="line"/>
    </contour>
    <contour>
      <point x="841" y="58" type="line"/>
      <point x="841" y="0" type="line"/>
      <point x="537" y="0" type="line"/>
      <point x="542" y="97"/>
      <point x="568" y="136"/>
      <point x="664" y="187" type="curve" smooth="yes"/>
      <point x="722" y="218" type="line" smooth="yes"/>
      <point x="761" y="239"/>
      <point x="781" y="266"/>
      <point x="781" y="297" type="curve" smooth="yes"/>
      <point x="781" y="340"/>
      <point x="744" y="372"/>
      <point x="696" y="372" type="curve" smooth="yes"/>
      <point x="664" y="372"/>
      <point x="636" y="357"/>
      <point x="622" y="333" type="curve" smooth="yes"/>
      <point x="614" y="320"/>
      <point x="611" y="304"/>
      <point x="609" y="273" type="curve"/>
      <point x="547" y="273" type="line"/>
      <point x="550" y="376"/>
      <point x="599" y="425"/>
      <point x="698" y="425" type="curve" smooth="yes"/>
      <point x="784" y="425"/>
      <point x="844" y="373"/>
      <point x="844" y="299" type="curve" smooth="yes"/>
      <point x="844" y="246"/>
      <point x="811" y="201"/>
      <point x="748" y="170" type="curve" smooth="yes"/>
      <point x="685" y="138" type="line"/>
      <point x="642" y="115"/>
      <point x="624" y="96"/>
      <point x="612" y="58" type="curve"/>
    </contour>
  </outline>
</glyph>
<glyph name="questiondown" format="1">
  <advance width="611"/>
  <unicode hex="00BF"/>
  <outline>
    <contour>
      <point x="275" y="325" type="line"/>
      <point x="365" y="325" type="line"/>
      <point x="365" y="270" type="line" smooth="yes"/>
      <point x="365" y="234"/>
      <point x="358" y="211"/>
      <point x="337" y="183" type="curve" smooth="yes"/>
      <point x="319" y="160"/>
      <point x="319" y="160"/>
      <point x="260" y="107" type="curve" smooth="yes"/>
      <point x="207" y="60"/>
      <point x="185" y="21"/>
      <point x="185" y="-25" type="curve" smooth="yes"/>
      <point x="185" y="-93"/>
      <point x="237" y="-139"/>
      <point x="314" y="-139" type="curve" smooth="yes"/>
      <point x="367" y="-139"/>
      <point x="407" y="-118"/>
      <point x="426" y="-81" type="curve" smooth="yes"/>
      <point x="438" y="-57"/>
      <point x="443" y="-29"/>
      <point x="443" y="17" type="curve"/>
      <point x="528" y="17" type="line"/>
      <point x="528" y="-137"/>
      <point x="453" y="-217"/>
      <point x="309" y="-217" type="curve" smooth="yes"/>
      <point x="178" y="-217"/>
      <point x="95" y="-142"/>
      <point x="95" y="-25" type="curve" smooth="yes"/>
      <point x="95" y="42"/>
      <point x="120" y="86"/>
      <point x="195" y="154" type="curve" smooth="yes"/>
      <point x="265" y="217"/>
      <point x="275" y="233"/>
      <point x="275" y="278" type="curve" smooth="yes"/>
    </contour>
    <contour>
      <point x="275" y="420" type="line"/>
      <point x="275" y="524" type="line"/>
      <point x="365" y="524" type="line"/>
      <point x="365" y="420" type="line"/>
    </contour>
  </outline>
</glyph>
<glyph name="Atilde" format="1">
  <advance width="667"/>
  <unicode hex="00C3"/>
  <outline>
    <contour>
      <point x="474" y="219" type="line"/>
      <point x="193" y="219" type="line"/>
      <point x="116" y="0" type="line"/>
      <point x="17" y="0" type="line"/>
      <point x="277" y="729" type="line"/>
      <point x="397" y="729" type="line"/>
      <point x="653" y="0" type="line"/>
      <point x="549" y="0" type="line"/>
    </contour>
    <contour>
      <point x="448" y="297" type="line"/>
      <point x="336" y="629" type="line"/>
      <point x="216" y="297" type="line"/>
    </contour>
    <contour>
      <point x="434" y="916" type="curve"/>
      <point x="492" y="916" type="line"/>
      <point x="482" y="847"/>
      <point x="452" y="812"/>
      <point x="403" y="812" type="curve" smooth="yes"/>
      <point x="384" y="812"/>
      <point x="372" y="816"/>
      <point x="318" y="837" type="curve" smooth="yes"/>
      <point x="294" y="846"/>
      <point x="280" y="850"/>
      <point x="269" y="850" type="curve" smooth="yes"/>
      <point x="254" y="850"/>
      <point x="242" y="836"/>
      <point x="236" y="813" type="curve"/>
      <point x="178" y="813" type="line"/>
      <point x="189" y="879"/>
      <point x="220" y="916"/>
      <point x="264" y="916" type="curve" smooth="yes"/>
      <point x="285" y="916"/>
      <point x="292" y="914"/>
      <point x="334" y="897" type="curve"/>
      <point x="358" y="886"/>
      <point x="385" y="879"/>
      <point x="397" y="879" type="curve" smooth="yes"/>
      <point x="415" y="879"/>
      <point x="426" y="891"/>
    </contour>
  </outline>
</glyph>
<glyph name="Aring" format="1">
  <advance width="667"/>
  <unicode hex="00C5"/>
  <outline>
    <contour>
      <point x="474" y="219" type="line"/>
      <point x="193" y="219" type="line"/>
      <point x="116" y="0" type="line"/>
      <point x="17" y="0" type="line"/>
      <point x="277" y="729" type="line"/>
      <point x="397" y="729" type="line"/>
      <point x="653" y="0" type="line"/>
      <point x="549" y="0" type="line"/>
    </contour>
    <contour>
      <point x="448" y="297" type="line"/>
      <point x="336" y="629" type="line"/>
      <point x="216" y="297" type="line"/>
    </contour>
    <contour>
      <point x="335" y="953" type="curve" smooth="yes"/>
      <point x="384" y="953"/>
      <point x="423" y="914"/>
      <point x="423" y="865" type="curve" smooth="yes"/>
      <point x="423" y="817"/>
      <point x="383" y="778"/>
      <point x="335" y="778" type="curve" smooth="yes"/>
      <point x="287" y="778"/>
      <point x="247" y="818"/>
      <point x="247" y="866" type="curve" smooth="yes"/>
      <point x="247" y="913"/>
      <point x="287" y="953"/>
    </contour>
    <contour>
      <point x="335" y="909" type="curve" smooth="yes"/>
      <point x="311" y="909"/>
      <point x="291" y="889"/>
      <point x="291" y="866" type="curve" smooth="yes"/>
      <point x="291" y="842"/>
      <point x="311" y="822"/>
      <point x="335" y="822" type="curve" smooth="yes"/>
      <point x="359" y="822"/>
      <point x="379" y="842"/>
      <point x="379" y="865" type="curve" smooth="yes"/>
      <point x="379" y="890"/>
      <point x="360" y="909"/>
    </contour>
  </outline>
</glyph>
<glyph name="Ccedilla" format="1">
  <advance width="722"/>
  <unicode hex="00C7"/>
  <outline>
    <contour>
      <point x="379" y="-23" type="curve"/>
      <point x="366" y="-56" type="line"/>
      <point x="379" y="-54"/>
      <point x="386" y="-54"/>
      <point x="394" y="-54" type="curve" smooth="yes"/>
      <point x="444" y="-54"/>
      <point x="473" y="-78"/>
      <point x="473" y="-121" type="curve" smooth="yes"/>
      <point x="473" y="-178"/>
      <point x="426" y="-214"/>
      <point x="350" y="-214" type="curve" smooth="yes"/>
      <point x="312" y="-214"/>
      <point x="286" y="-207"/>
      <point x="225" y="-180" type="curve"/>
      <point x="246" y="-140" type="line"/>
      <point x="255" y="-144" type="line"/>
      <point x="300" y="-167"/>
      <point x="319" y="-173"/>
      <point x="344" y="-173" type="curve" smooth="yes"/>
      <point x="375" y="-173"/>
      <point x="398" y="-154"/>
      <point x="398" y="-128" type="curve" smooth="yes"/>
      <point x="398" y="-105"/>
      <point x="381" y="-91"/>
      <point x="352" y="-91" type="curve" smooth="yes"/>
      <point x="340" y="-91"/>
      <point x="333" y="-93"/>
      <point x="321" y="-99" type="curve"/>
      <point x="310" y="-92" type="line"/>
      <point x="341" y="-23" type="line"/>
      <point x="265" y="-12"/>
      <point x="235" y="-1"/>
      <point x="192" y="29" type="curve" smooth="yes"/>
      <point x="101" y="94"/>
      <point x="48" y="214"/>
      <point x="48" y="356" type="curve" smooth="yes"/>
      <point x="48" y="473"/>
      <point x="84" y="578"/>
      <point x="150" y="650" type="curve" smooth="yes"/>
      <point x="204" y="710"/>
      <point x="283" y="741"/>
      <point x="381" y="741" type="curve" smooth="yes"/>
      <point x="541" y="741"/>
      <point x="633" y="663"/>
      <point x="662" y="503" type="curve"/>
      <point x="567" y="503" type="line"/>
      <point x="556" y="557"/>
      <point x="541" y="588"/>
      <point x="514" y="613" type="curve" smooth="yes"/>
      <point x="484" y="641"/>
      <point x="429" y="659"/>
      <point x="371" y="659" type="curve" smooth="yes"/>
      <point x="229" y="659"/>
      <point x="141" y="544"/>
      <point x="141" y="357" type="curve" smooth="yes"/>
      <point x="141" y="174"/>
      <point x="233" y="58"/>
      <point x="378" y="58" type="curve" smooth="yes"/>
      <point x="456" y="58"/>
      <point x="518" y="92"/>
      <point x="548" y="152" type="curve" smooth="yes"/>
      <point x="563" y="182"/>
      <point x="573" y="216"/>
      <point x="581" y="266" type="curve"/>
      <point x="677" y="266" type="line"/>
      <point x="655" y="75"/>
      <point x="555" y="-23"/>
    </contour>
  </outline>
</glyph>
<glyph name="Ecircumflex" format="1">
  <advance width="667"/>
  <unicode hex="00CA"/>
  <outline>
    <contour>
      <point x="183" y="332" type="line"/>
      <point x="183" y="82" type="line"/>
      <point x="613" y="82" type="line"/>
      <point x="613" y="0" type="line"/>
      <point x="90" y="0" type="line"/>
      <point x="90" y="729" type="line"/>
      <point x="595" y="729" type="line"/>
      <point x="595" y="647" type="line"/>
      <point x="183" y="647" type="line"/>
      <point x="183" y="414" type="line"/>
      <point x="580" y="414" type="line"/>
      <point x="580" y="332" type="line"/>
    </contour>
    <contour>
      <point x="297" y="940" type="line"/>
      <point x="392" y="940" type="line"/>
      <point x="488" y="790" type="line"/>
      <point x="425" y="790" type="line"/>
      <point x="344" y="886" type="line"/>
      <point x="265" y="790" type="line"/>
      <point x="201" y="790" type="line"/>
    </contour>
  </outline>
</glyph>
<glyph name="Edieresis" format="1">
  <advance width="667"/>
  <unicode hex="00CB"/>
  <outline>
    <contour>
      <point x="183" y="332" type="line"/>
      <point x="183" y="82" type="line"/>
      <point x="613" y="82" type="line"/>
      <point x="613" y="0" type="line"/>
      <point x="90" y="0" type="line"/>
      <point x="90" y="729" type="line"/>
      <point x="595" y="729" type="line"/>
      <point x="595" y="647" type="line"/>
      <point x="183" y="647" type="line"/>
      <point x="183" y="414" type="line"/>
      <point x="580" y="414" type="line"/>
      <point x="580" y="332" type="line"/>
    </contour>
    <contour>
      <point x="315" y="914" type="line"/>
      <point x="315" y="811" type="line"/>
      <point x="211" y="811" type="line"/>
      <point x="211" y="914" type="line"/>
    </contour>
    <contour>
      <point x="477" y="914" type="line"/>
      <point x="477" y="811" type="line"/>
      <point x="373" y="811" type="line"/>
      <point x="373" y="914" type="line"/>
    </contour>
  </outline>
</glyph>
<glyph name="Igrave" format="1">
  <advance width="278"/>
  <unicode hex="00CC"/>
  <outline>
    <contour>
      <point x="193" y="729" type="line"/>
      <point x="193" y="0" type="line"/>
      <point x="100" y="0" type="line"/>
      <point x="100" y="729" type="line"/>
    </contour>
    <contour>
      <point x="114" y="939" type="line"/>
      <point x="210" y="791" type="line"/>
      <point x="150" y="791" type="line"/>
      <point x="1" y="939" type="line"/>
    </contour>
  </outline>
</glyph>
<glyph name="Iacute" format="1">
  <advance width="278"/>
  <unicode hex="00CD"/>
  <outline>
    <contour>
      <point x="193" y="729" type="line"/>
      <point x="193" y="0" type="line"/>
      <point x="100" y="0" type="line"/>
      <point x="100" y="729" type="line"/>
    </contour>
    <contour>
      <point x="167" y="939" type="line"/>
      <point x="280" y="939" type="line"/>
      <point x="131" y="791" type="line"/>
      <point x="71" y="791" type="line"/>
    </contour>
  </outline>
</glyph>
<glyph name="Icircumflex" format="1">
  <advance width="278"/>
  <unicode hex="00CE"/>
  <outline>
    <contour>
      <point x="193" y="729" type="line"/>
      <point x="193" y="0" type="line"/>
      <point x="100" y="0" type="line"/>
      <point x="100" y="729" type="line"/>
    </contour>
    <contour>
      <point x="95" y="940" type="line"/>
      <point x="190" y="940" type="line"/>
      <point x="286" y="790" type="line"/>
      <point x="223" y="790" type="line"/>
      <point x="142" y="886" type="line"/>
      <point x="63" y="790" type="line"/>
      <point x="-1" y="790" type="line"/>
    </contour>
  </outline>
</glyph>
<glyph name="Idieresis" format="1">
  <advance width="278"/>
  <unicode hex="00CF"/>
  <outline>
    <contour>
      <point x="193" y="729" type="line"/>
      <point x="193" y="0" type="line"/>
      <point x="100" y="0" type="line"/>
      <point x="100" y="729" type="line"/>
    </contour>
    <contour>
      <point x="113" y="907" type="line"/>
      <point x="113" y="804" type="line"/>
      <point x="9" y="804" type="line"/>
      <point x="9" y="907" type="line"/>
    </contour>
    <contour>
      <point x="275" y="907" type="line"/>
      <point x="275" y="804" type="line"/>
      <point x="171" y="804" type="line"/>
      <point x="171" y="907" type="line"/>
    </contour>
  </outline>
</glyph>
<glyph name="Eth" format="1">
  <advance width="722"/>
  <unicode hex="00D0"/>
  <outline>
    <contour>
      <point x="89" y="339" type="line"/>
      <point x="20" y="339" type="line"/>
      <point x="20" y="406" type="line"/>
      <point x="89" y="406" type="line"/>
      <point x="89" y="729" type="line"/>
      <point x="371" y="729" type="line" smooth="yes"/>
      <point x="555" y="729"/>
      <point x="667" y="591"/>
      <point x="667" y="365" type="curve" smooth="yes"/>
      <point x="667" y="138"/>
      <point x="555" y="0"/>
      <point x="371" y="0" type="curve" smooth="yes"/>
      <point x="89" y="0" type="line"/>
    </contour>
    <contour>
      <point x="182" y="339" type="line"/>
      <point x="182" y="82" type="line"/>
      <point x="355" y="82" type="line" smooth="yes"/>
      <point x="498" y="82"/>
      <point x="574" y="179"/>
      <point x="574" y="365" type="curve" smooth="yes"/>
      <point x="574" y="550"/>
      <point x="498" y="647"/>
      <point x="355" y="647" type="curve" smooth="yes"/>
      <point x="182" y="647" type="line"/>
      <point x="182" y="406" type="line"/>
      <point x="353" y="406" type="line"/>
      <point x="353" y="339" type="line"/>
    </contour>
  </outline>
</glyph>
<glyph name="Ntilde" format="1">
  <advance width="722"/>
  <unicode hex="00D1"/>
  <outline>
    <contour>
      <point x="646" y="729" type="line"/>
      <point x="646" y="0" type="line"/>
      <point x="541" y="0" type="line"/>
      <point x="164" y="591" type="line"/>
      <point x="164" y="0" type="line"/>
      <point x="76" y="0" type="line"/>
      <point x="76" y="729" type="line"/>
      <point x="177" y="729" type="line"/>
      <point x="558" y="133" type="line"/>
      <point x="558" y="729" type="line"/>
    </contour>
    <contour>
      <point x="467" y="916" type="curve"/>
      <point x="525" y="916" type="line"/>
      <point x="515" y="847"/>
      <point x="485" y="812"/>
      <point x="436" y="812" type="curve" smooth="yes"/>
      <point x="417" y="812"/>
      <point x="405" y="816"/>
      <point x="351" y="837" type="curve" smooth="yes"/>
      <point x="327" y="846"/>
      <point x="313" y="850"/>
      <point x="302" y="850" type="curve" smooth="yes"/>
      <point x="287" y="850"/>
      <point x="275" y="836"/>
      <point x="269" y="813" type="curve"/>
      <point x="211" y="813" type="line"/>
      <point x="222" y="879"/>
      <point x="253" y="916"/>
      <point x="297" y="916" type="curve" smooth="yes"/>
      <point x="318" y="916"/>
      <point x="325" y="914"/>
      <point x="367" y="897" type="curve"/>
      <point x="391" y="886"/>
      <point x="418" y="879"/>
      <point x="430" y="879" type="curve" smooth="yes"/>
      <point x="448" y="879"/>
      <point x="459" y="891"/>
    </contour>
  </outline>
</glyph>
<glyph name="Udieresis" format="1">
  <advance width="722"/>
  <unicode hex="00DC"/>
  <outline>
    <contour>
      <point x="552" y="729" type="line"/>
      <point x="645" y="729" type="line"/>
      <point x="645" y="217" type="line" smooth="yes"/>
      <point x="645" y="71"/>
      <point x="535" y="-23"/>
      <point x="364" y="-23" type="curve" smooth="yes"/>
      <point x="191" y="-23"/>
      <point x="85" y="69"/>
      <point x="85" y="217" type="curve" smooth="yes"/>
      <point x="85" y="729" type="line"/>
      <point x="178" y="729" type="line"/>
      <point x="178" y="217" type="line" smooth="yes"/>
      <point x="178" y="162"/>
      <point x="195" y="125"/>
      <point x="231" y="97" type="curve"/>
      <point x="266" y="72"/>
      <point x="310" y="59"/>
      <point x="364" y="59" type="curve" smooth="yes"/>
      <point x="481" y="59"/>
      <point x="552" y="119"/>
      <point x="552" y="217" type="curve" smooth="yes"/>
    </contour>
    <contour>
      <point x="336" y="914" type="line"/>
      <point x="336" y="811" type="line"/>
      <point x="232" y="811" type="line"/>
      <point x="232" y="914" type="line"/>
    </contour>
    <contour>
      <point x="498" y="914" type="line"/>
      <point x="498" y="811" type="line"/>
      <point x="394" y="811" type="line"/>
      <point x="394" y="914" type="line"/>
    </contour>
  </outline>
</glyph>
<glyph name="Yacute" format="1">
  <advance width="666"/>
  <unicode hex="00DD"/>
  <outline>
    <contour>
      <point x="387" y="286" type="line"/>
      <point x="387" y="0" type="line"/>
      <point x="294" y="0" type="line"/>
      <point x="294" y="286" type="line"/>
      <point x="13" y="729" type="line"/>
      <point x="128" y="729" type="line"/>
      <point x="342" y="374" type="line"/>
      <point x="550" y="729" type="line"/>
      <point x="661" y="729" type="line"/>
    </contour>
    <contour>
      <point x="365" y="939" type="line"/>
      <point x="478" y="939" type="line"/>
      <point x="329" y="791" type="line"/>
      <point x="269" y="791" type="line"/>
    </contour>
  </outline>
</glyph>
<glyph name="Thorn" format="1">
  <advance width="666"/>
  <unicode hex="00DE"/>
  <outline>
    <contour>
      <point x="184" y="189" type="line"/>
      <point x="184" y="0" type="line"/>
      <point x="91" y="0" type="line"/>
      <point x="91" y="729" type="line"/>
      <point x="184" y="729" type="line"/>
      <point x="184" y="609" type="line"/>
      <point x="392" y="609" type="line" smooth="yes"/>
      <point x="531" y="609"/>
      <point x="616" y="529"/>
      <point x="616" y="397" type="curve" smooth="yes"/>
      <point x="616" y="275"/>
      <point x="532" y="189"/>
      <point x="413" y="189" type="curve" smooth="yes"/>
    </contour>
    <contour>
      <point x="184" y="271" type="line"/>
      <point x="378" y="271" type="line" smooth="yes"/>
      <point x="465" y="271"/>
      <point x="516" y="319"/>
      <point x="516" y="399" type="curve" smooth="yes"/>
      <point x="516" y="479"/>
      <point x="465" y="527"/>
      <point x="378" y="527" type="curve" smooth="yes"/>
      <point x="184" y="527" type="line"/>
    </contour>
  </outline>
</glyph>
<glyph name="acircumflex" format="1">
  <advance width="556"/>
  <unicode hex="00E2"/>
  <outline>
    <contour>
      <point x="535" y="49" type="curve"/>
      <point x="535" y="-14" type="line"/>
      <point x="508" y="-21"/>
      <point x="495" y="-23"/>
      <point x="478" y="-23" type="curve" smooth="yes"/>
      <point x="424" y="-23"/>
      <point x="398" y="1"/>
      <point x="392" y="54" type="curve"/>
      <point x="333" y="0"/>
      <point x="280" y="-23"/>
      <point x="214" y="-23" type="curve" smooth="yes"/>
      <point x="108" y="-23"/>
      <point x="42" y="37"/>
      <point x="42" y="132" type="curve" smooth="yes"/>
      <point x="42" y="200"/>
      <point x="73" y="247"/>
      <point x="134" y="272" type="curve" smooth="yes"/>
      <point x="166" y="285"/>
      <point x="184" y="289"/>
      <point x="302" y="304" type="curve" smooth="yes"/>
      <point x="368" y="312"/>
      <point x="389" y="327"/>
      <point x="389" y="362" type="curve" smooth="yes"/>
      <point x="389" y="384" type="line" smooth="yes"/>
      <point x="389" y="434"/>
      <point x="347" y="462"/>
      <point x="272" y="462" type="curve" smooth="yes"/>
      <point x="194" y="462"/>
      <point x="156" y="433"/>
      <point x="149" y="369" type="curve"/>
      <point x="65" y="369" type="line"/>
      <point x="67" y="421"/>
      <point x="77" y="451"/>
      <point x="101" y="478" type="curve" smooth="yes"/>
      <point x="136" y="517"/>
      <point x="199" y="539"/>
      <point x="275" y="539" type="curve" smooth="yes"/>
      <point x="404" y="539"/>
      <point x="472" y="489"/>
      <point x="472" y="396" type="curve" smooth="yes"/>
      <point x="472" y="88" type="line" smooth="yes"/>
      <point x="472" y="62"/>
      <point x="488" y="47"/>
      <point x="517" y="47" type="curve" smooth="yes"/>
      <point x="522" y="47"/>
      <point x="526" y="47"/>
    </contour>
    <contour>
      <point x="389" y="165" type="curve" smooth="yes"/>
      <point x="389" y="259" type="line"/>
      <point x="361" y="246"/>
      <point x="343" y="242"/>
      <point x="255" y="230" type="curve" smooth="yes"/>
      <point x="166" y="217"/>
      <point x="129" y="189"/>
      <point x="129" y="134" type="curve" smooth="yes"/>
      <point x="129" y="81"/>
      <point x="167" y="50"/>
      <point x="232" y="50" type="curve" smooth="yes"/>
      <point x="281" y="50"/>
      <point x="322" y="66"/>
      <point x="356" y="97" type="curve" smooth="yes"/>
      <point x="381" y="120"/>
      <point x="389" y="137"/>
    </contour>
    <contour>
      <point x="228" y="741" type="line"/>
      <point x="323" y="741" type="line"/>
      <point x="419" y="591" type="line"/>
      <point x="356" y="591" type="line"/>
      <point x="275" y="687" type="line"/>
      <point x="196" y="591" type="line"/>
      <point x="132" y="591" type="line"/>
    </contour>
  </outline>
</glyph>
<glyph name="atilde" format="1">
  <advance width="556"/>
  <unicode hex="00E3"/>
  <outline>
    <contour>
      <point x="535" y="49" type="curve"/>
      <point x="535" y="-14" type="line"/>
      <point x="508" y="-21"/>
      <point x="495" y="-23"/>
      <point x="478" y="-23" type="curve" smooth="yes"/>
      <point x="424" y="-23"/>
      <point x="398" y="1"/>
      <point x="392" y="54" type="curve"/>
      <point x="333" y="0"/>
      <point x="280" y="-23"/>
      <point x="214" y="-23" type="curve" smooth="yes"/>
      <point x="108" y="-23"/>
      <point x="42" y="37"/>
      <point x="42" y="132" type="curve" smooth="yes"/>
      <point x="42" y="200"/>
      <point x="73" y="247"/>
      <point x="134" y="272" type="curve" smooth="yes"/>
      <point x="166" y="285"/>
      <point x="184" y="289"/>
      <point x="302" y="304" type="curve" smooth="yes"/>
      <point x="368" y="312"/>
      <point x="389" y="327"/>
      <point x="389" y="362" type="curve" smooth="yes"/>
      <point x="389" y="384" type="line" smooth="yes"/>
      <point x="389" y="434"/>
      <point x="347" y="462"/>
      <point x="272" y="462" type="curve" smooth="yes"/>
      <point x="194" y="462"/>
      <point x="156" y="433"/>
      <point x="149" y="369" type="curve"/>
      <point x="65" y="369" type="line"/>
      <point x="67" y="421"/>
      <point x="77" y="451"/>
      <point x="101" y="478" type="curve" smooth="yes"/>
      <point x="136" y="517"/>
      <point x="199" y="539"/>
      <point x="275" y="539" type="curve" smooth="yes"/>
      <point x="404" y="539"/>
      <point x="472" y="489"/>
      <point x="472" y="396" type="curve" smooth="yes"/>
      <point x="472" y="88" type="line" smooth="yes"/>
      <point x="472" y="62"/>
      <point x="488" y="47"/>
      <point x="517" y="47" type="curve" smooth="yes"/>
      <point x="522" y="47"/>
      <point x="526" y="47"/>
    </contour>
    <contour>
      <point x="389" y="165" type="curve" smooth="yes"/>
      <point x="389" y="259" type="line"/>
      <point x="361" y="246"/>
      <point x="343" y="242"/>
      <point x="255" y="230" type="curve" smooth="yes"/>
      <point x="166" y="217"/>
      <point x="129" y="189"/>
      <point x="129" y="134" type="curve" smooth="yes"/>
      <point x="129" y="81"/>
      <point x="167" y="50"/>
      <point x="232" y="50" type="curve" smooth="yes"/>
      <point x="281" y="50"/>
      <point x="322" y="66"/>
      <point x="356" y="97" type="curve" smooth="yes"/>
      <point x="381" y="120"/>
      <point x="389" y="137"/>
    </contour>
    <contour>
      <point x="374" y="717" type="curve"/>
      <point x="432" y="717" type="line"/>
      <point x="422" y="648"/>
      <point x="392" y="613"/>
      <point x="343" y="613" type="curve" smooth="yes"/>
      <point x="324" y="613"/>
      <point x="312" y="617"/>
      <point x="258" y="638" type="curve" smooth="yes"/>
      <point x="234" y="647"/>
      <point x="220" y="651"/>
      <point x="209" y="651" type="curve" smooth="yes"/>
      <point x="194" y="651"/>
      <point x="182" y="637"/>
      <point x="176" y="614" type="curve"/>
      <point x="118" y="614" type="line"/>
      <point x="129" y="680"/>
      <point x="160" y="717"/>
      <point x="204" y="717" type="curve" smooth="yes"/>
      <point x="225" y="717"/>
      <point x="232" y="715"/>
      <point x="274" y="698" type="curve"/>
      <point x="298" y="687"/>
      <point x="325" y="680"/>
      <point x="337" y="680" type="curve" smooth="yes"/>
      <point x="355" y="680"/>
      <point x="366" y="692"/>
    </contour>
  </outline>
</glyph>
<glyph name="eacute" format="1">
  <advance width="556"/>
  <unicode hex="00E9"/>
  <outline>
    <contour>
      <point x="513" y="234" type="curve"/>
      <point x="127" y="234" type="line"/>
      <point x="128" y="182"/>
      <point x="135" y="152"/>
      <point x="155" y="122" type="curve" smooth="yes"/>
      <point x="183" y="78"/>
      <point x="228" y="54"/>
      <point x="281" y="54" type="curve" smooth="yes"/>
      <point x="348" y="54"/>
      <point x="395" y="90"/>
      <point x="418" y="159" type="curve"/>
      <point x="502" y="159" type="line"/>
      <point x="481" y="45"/>
      <point x="398" y="-23"/>
      <point x="278" y="-23" type="curve" smooth="yes"/>
      <point x="131" y="-23"/>
      <point x="40" y="83"/>
      <point x="40" y="255" type="curve" smooth="yes"/>
      <point x="40" y="427"/>
      <point x="134" y="539"/>
      <point x="280" y="539" type="curve" smooth="yes"/>
      <point x="378" y="539"/>
      <point x="458" y="487"/>
      <point x="492" y="401" type="curve" smooth="yes"/>
      <point x="507" y="362"/>
      <point x="513" y="314"/>
    </contour>
    <contour>
      <point x="129" y="302" type="curve"/>
      <point x="423" y="302" type="line"/>
      <point x="424" y="304"/>
      <point x="424" y="306"/>
      <point x="424" y="308" type="curve" smooth="yes"/>
      <point x="424" y="394"/>
      <point x="361" y="462"/>
      <point x="279" y="462" type="curve" smooth="yes"/>
      <point x="195" y="462"/>
      <point x="136" y="399"/>
    </contour>
    <contour>
      <point x="308" y="740" type="line"/>
      <point x="421" y="740" type="line"/>
      <point x="272" y="592" type="line"/>
      <point x="212" y="592" type="line"/>
    </contour>
  </outline>
</glyph>
<glyph name="igrave" format="1">
  <advance width="278"/>
  <unicode hex="00EC"/>
  <outline>
    <contour>
      <point x="177" y="524" type="line"/>
      <point x="177" y="0" type="line"/>
      <point x="94" y="0" type="line"/>
      <point x="94" y="524" type="line"/>
    </contour>
    <contour>
      <point x="108" y="740" type="line"/>
      <point x="204" y="592" type="line"/>
      <point x="144" y="592" type="line"/>
      <point x="-5" y="740" type="line"/>
    </contour>
  </outline>
</glyph>
<glyph name="iacute" format="1">
  <advance width="278"/>
  <unicode hex="00ED"/>
  <outline>
    <contour>
      <point x="177" y="524" type="line"/>
      <point x="177" y="0" type="line"/>
      <point x="94" y="0" type="line"/>
      <point x="94" y="524" type="line"/>
    </contour>
    <contour>
      <point x="161" y="740" type="line"/>
      <point x="274" y="740" type="line"/>
      <point x="125" y="592" type="line"/>
      <point x="65" y="592" type="line"/>
    </contour>
  </outline>
</glyph>
<glyph name="icircumflex" format="1">
  <advance width="278"/>
  <unicode hex="00EE"/>
  <outline>
    <contour>
      <point x="177" y="524" type="line"/>
      <point x="177" y="0" type="line"/>
      <point x="94" y="0" type="line"/>
      <point x="94" y="524" type="line"/>
    </contour>
    <contour>
      <point x="89" y="741" type="line"/>
      <point x="184" y="741" type="line"/>
      <point x="280" y="591" type="line"/>
      <point x="217" y="591" type="line"/>
      <point x="136" y="687" type="line"/>
      <point x="57" y="591" type="line"/>
      <point x="-7" y="591" type="line"/>
    </contour>
  </outline>
</glyph>
<glyph name="idieresis" format="1">
  <advance width="278"/>
  <unicode hex="00EF"/>
  <outline>
    <contour>
      <point x="177" y="524" type="line"/>
      <point x="177" y="0" type="line"/>
      <point x="94" y="0" type="line"/>
      <point x="94" y="524" type="line"/>
    </contour>
    <contour>
      <point x="107" y="708" type="line"/>
      <point x="107" y="605" type="line"/>
      <point x="3" y="605" type="line"/>
      <point x="3" y="708" type="line"/>
    </contour>
    <contour>
      <point x="269" y="708" type="line"/>
      <point x="269" y="605" type="line"/>
      <point x="165" y="605" type="line"/>
      <point x="165" y="708" type="line"/>
    </contour>
  </outline>
</glyph>
<glyph name="ntilde" format="1">
  <advance width="556"/>
  <unicode hex="00F1"/>
  <outline>
    <contour>
      <point x="70" y="524" type="line"/>
      <point x="147" y="524" type="line"/>
      <point x="147" y="436" type="line"/>
      <point x="193" y="509"/>
      <point x="243" y="539"/>
      <point x="321" y="539" type="curve" smooth="yes"/>
      <point x="422" y="539"/>
      <point x="487" y="483"/>
      <point x="487" y="396" type="curve" smooth="yes"/>
      <point x="487" y="0" type="line"/>
      <point x="404" y="0" type="line"/>
      <point x="404" y="363" type="line" smooth="yes"/>
      <point x="404" y="426"/>
      <point x="362" y="466"/>
      <point x="296" y="466" type="curve" smooth="yes"/>
      <point x="210" y="466"/>
      <point x="154" y="396"/>
      <point x="154" y="289" type="curve" smooth="yes"/>
      <point x="154" y="0" type="line"/>
      <point x="70" y="0" type="line"/>
    </contour>
    <contour>
      <point x="378" y="717" type="curve"/>
      <point x="436" y="717" type="line"/>
      <point x="426" y="648"/>
      <point x="396" y="613"/>
      <point x="347" y="613" type="curve" smooth="yes"/>
      <point x="328" y="613"/>
      <point x="316" y="617"/>
      <point x="262" y="638" type="curve" smooth="yes"/>
      <point x="238" y="647"/>
      <point x="224" y="651"/>
      <point x="213" y="651" type="curve" smooth="yes"/>
      <point x="198" y="651"/>
      <point x="186" y="637"/>
      <point x="180" y="614" type="curve"/>
      <point x="122" y="614" type="line"/>
      <point x="133" y="680"/>
      <point x="164" y="717"/>
      <point x="208" y="717" type="curve" smooth="yes"/>
      <point x="229" y="717"/>
      <point x="236" y="715"/>
      <point x="278" y="698" type="curve"/>
      <point x="302" y="687"/>
      <point x="329" y="680"/>
      <point x="341" y="680" type="curve" smooth="yes"/>
      <point x="359" y="680"/>
      <point x="370" y="692"/>
    </contour>
  </outline>
</glyph>
<glyph name="otilde" format="1">
  <advance width="556"/>
  <unicode hex="00F5"/>
  <outline>
    <contour>
      <point x="272" y="539" type="curve" smooth="yes"/>
      <point x="423" y="539"/>
      <point x="510" y="435"/>
      <point x="510" y="254" type="curve" smooth="yes"/>
      <point x="510" y="82"/>
      <point x="420" y="-23"/>
      <point x="273" y="-23" type="curve" smooth="yes"/>
      <point x="124" y="-23"/>
      <point x="36" y="82"/>
      <point x="36" y="258" type="curve" smooth="yes"/>
      <point x="36" y="434"/>
      <point x="125" y="539"/>
    </contour>
    <contour>
      <point x="273" y="462" type="curve" smooth="yes"/>
      <point x="180" y="462"/>
      <point x="123" y="384"/>
      <point x="123" y="258" type="curve" smooth="yes"/>
      <point x="123" y="131"/>
      <point x="180" y="54"/>
      <point x="273" y="54" type="curve" smooth="yes"/>
      <point x="365" y="54"/>
      <point x="423" y="132"/>
      <point x="423" y="255" type="curve" smooth="yes"/>
      <point x="423" y="385"/>
      <point x="367" y="462"/>
    </contour>
    <contour>
      <point x="375" y="717" type="curve"/>
      <point x="433" y="717" type="line"/>
      <point x="423" y="648"/>
      <point x="393" y="613"/>
      <point x="344" y="613" type="curve" smooth="yes"/>
      <point x="325" y="613"/>
      <point x="313" y="617"/>
      <point x="259" y="638" type="curve" smooth="yes"/>
      <point x="235" y="647"/>
      <point x="221" y="651"/>
      <point x="210" y="651" type="curve" smooth="yes"/>
      <point x="195" y="651"/>
      <point x="183" y="637"/>
      <point x="177" y="614" type="curve"/>
      <point x="119" y="614" type="line"/>
      <point x="130" y="680"/>
      <point x="161" y="717"/>
      <point x="205" y="717" type="curve" smooth="yes"/>
      <point x="226" y="717"/>
      <point x="233" y="715"/>
      <point x="275" y="698" type="curve"/>
      <point x="299" y="687"/>
      <point x="326" y="680"/>
      <point x="338" y="680" type="curve" smooth="yes"/>
      <point x="356" y="680"/>
      <point x="367" y="692"/>
    </contour>
  </outline>
</glyph>
<glyph name="divide" format="1">
  <advance width="584"/>
  <unicode hex="00F7"/>
  <outline>
    <contour>
      <point x="534" y="271" type="line"/>
      <point x="534" y="201" type="line"/>
      <point x="50" y="201" type="line"/>
      <point x="50" y="271" type="line"/>
    </contour>
    <contour>
      <point x="344" y="104" type="line"/>
      <point x="344" y="0" type="line"/>
      <point x="240" y="0" type="line"/>
      <point x="240" y="104" type="line"/>
    </contour>
    <contour>
      <point x="344" y="472" type="line"/>
      <point x="344" y="368" type="line"/>
      <point x="240" y="368" type="line"/>
      <point x="240" y="472" type="line"/>
    </contour>
  </outline>
</glyph>
<glyph name="thorn" format="1">
  <advance width="555"/>
  <unicode hex="00FE"/>
  <outline>
    <contour>
      <point x="54" y="-218" type="line"/>
      <point x="54" y="714" type="line"/>
      <point x="137" y="714" type="line"/>
      <point x="137" y="459" type="line"/>
      <point x="173" y="510"/>
      <point x="231" y="539"/>
      <point x="298" y="539" type="curve" smooth="yes"/>
      <point x="434" y="539"/>
      <point x="522" y="427"/>
      <point x="522" y="253" type="curve" smooth="yes"/>
      <point x="522" y="86"/>
      <point x="433" y="-23"/>
      <point x="298" y="-23" type="curve" smooth="yes"/>
      <point x="230" y="-23"/>
      <point x="181" y="1"/>
      <point x="137" y="55" type="curve"/>
      <point x="137" y="-218" type="line"/>
    </contour>
    <contour>
      <point x="283" y="461" type="curve" smooth="yes"/>
      <point x="195" y="461"/>
      <point x="137" y="381"/>
      <point x="137" y="258" type="curve" smooth="yes"/>
      <point x="137" y="135"/>
      <point x="195" y="55"/>
      <point x="283" y="55" type="curve" smooth="yes"/>
      <point x="374" y="55"/>
      <point x="435" y="136"/>
      <point x="435" y="255" type="curve" smooth="yes"/>
      <point x="435" y="380"/>
      <point x="375" y="461"/>
    </contour>
  </outline>
</glyph>
<glyph name="Amacron" format="1">
  <advance width="667"/>
  <unicode hex="0100"/>
  <outline>
    <contour>
      <point x="474" y="219" type="line"/>
      <point x="193" y="219" type="line"/>
      <point x="116" y="0" type="line"/>
      <point x="17" y="0" type="line"/>
      <point x="277" y="729" type="line"/>
      <point x="397" y="729" type="line"/>
      <point x="653" y="0" type="line"/>
      <point x="549" y="0" type="line"/>
    </contour>
    <contour>
      <point x="448" y="297" type="line"/>
      <point x="336" y="629" type="line"/>
      <point x="216" y="297" type="line"/>
    </contour>
    <contour>
      <point x="472" y="900" type="line"/>
      <point x="472" y="830" type="line"/>
      <point x="198" y="830" type="line"/>
      <point x="198" y="900" type="line"/>
    </contour>
  </outline>
</glyph>
<glyph name="Aogonek" format="1">
  <advance width="667"/>
  <unicode hex="0104"/>
  <outline>
    <contour>
      <point x="474" y="219" type="line"/>
      <point x="193" y="219" type="line"/>
      <point x="116" y="0" type="line"/>
      <point x="17" y="0" type="line"/>
      <point x="277" y="729" type="line"/>
      <point x="397" y="729" type="line"/>
      <point x="653" y="0" type="line"/>
      <point x="588" y="-31"/>
      <point x="557" y="-64"/>
      <point x="557" y="-105" type="curve" smooth="yes"/>
      <point x="557" y="-141"/>
      <point x="582" y="-160"/>
      <point x="629" y="-160" type="curve" smooth="yes"/>
      <point x="653" y="-160"/>
      <point x="674" y="-157"/>
      <point x="692" y="-150" type="curve"/>
      <point x="692" y="-195" type="line"/>
      <point x="668" y="-200"/>
      <point x="635" y="-205"/>
      <point x="616" y="-205" type="curve" smooth="yes"/>
      <point x="594" y="-205"/>
      <point x="569" y="-200"/>
      <point x="547" y="-192" type="curve" smooth="yes"/>
      <point x="505" y="-176"/>
      <point x="484" y="-150"/>
      <point x="484" y="-111" type="curve" smooth="yes"/>
      <point x="484" y="-63"/>
      <point x="514" y="-31"/>
      <point x="585" y="0" type="curve"/>
      <point x="549" y="0" type="line"/>
    </contour>
    <contour>
      <point x="448" y="297" type="line"/>
      <point x="336" y="629" type="line"/>
      <point x="216" y="297" type="line"/>
    </contour>
  </outline>
</glyph>
<glyph name="Ccircumflex" format="1">
  <advance width="722"/>
  <unicode hex="0108"/>
  <outline>
    <contour>
      <point x="330" y="929" type="line"/>
      <point x="425" y="929" type="line"/>
      <point x="521" y="779" type="line"/>
      <point x="458" y="779" type="line"/>
      <point x="377" y="875" type="line"/>
      <point x="298" y="779" type="line"/>
      <point x="234" y="779" type="line"/>
    </contour>
    <contour>
      <point x="662" y="503" type="curve"/>
      <point x="567" y="503" type="line"/>
      <point x="556" y="557"/>
      <point x="541" y="588"/>
      <point x="514" y="613" type="curve" smooth="yes"/>
      <point x="484" y="641"/>
      <point x="429" y="659"/>
      <point x="370" y="659" type="curve" smooth="yes"/>
      <point x="229" y="659"/>
      <point x="141" y="544"/>
      <point x="141" y="357" type="curve" smooth="yes"/>
      <point x="141" y="175"/>
      <point x="233" y="59"/>
      <point x="378" y="59" type="curve" smooth="yes"/>
      <point x="456" y="59"/>
      <point x="518" y="93"/>
      <point x="548" y="153" type="curve" smooth="yes"/>
      <point x="563" y="182"/>
      <point x="573" y="216"/>
      <point x="581" y="266" type="curve"/>
      <point x="677" y="266" type="line"/>
      <point x="655" y="73"/>
      <point x="555" y="-23"/>
      <point x="377" y="-23" type="curve" smooth="yes"/>
      <point x="282" y="-23"/>
      <point x="210" y="4"/>
      <point x="154" y="62" type="curve" smooth="yes"/>
      <point x="85" y="133"/>
      <point x="48" y="236"/>
      <point x="48" y="356" type="curve" smooth="yes"/>
      <point x="48" y="474"/>
      <point x="84" y="578"/>
      <point x="150" y="650" type="curve" smooth="yes"/>
      <point x="204" y="710"/>
      <point x="283" y="741"/>
      <point x="381" y="741" type="curve" smooth="yes"/>
      <point x="541" y="741"/>
      <point x="633" y="663"/>
    </contour>
  </outline>
</glyph>
<glyph name="cdotaccent" format="1">
  <advance width="500"/>
  <unicode hex="010B"/>
  <outline>
    <contour>
      <point x="317" y="668" type="line"/>
      <point x="317" y="564" type="line"/>
      <point x="213" y="564" type="line"/>
      <point x="213" y="668" type="line"/>
    </contour>
    <contour>
      <point x="471" y="348" type="curve"/>
      <point x="387" y="348" type="line"/>
      <point x="377" y="421"/>
      <point x="333" y="462"/>
      <point x="263" y="462" type="curve" smooth="yes"/>
      <point x="172" y="462"/>
      <point x="118" y="384"/>
      <point x="118" y="253" type="curve" smooth="yes"/>
      <point x="118" y="129"/>
      <point x="173" y="54"/>
      <point x="265" y="54" type="curve" smooth="yes"/>
      <point x="336" y="54"/>
      <point x="379" y="96"/>
      <point x="393" y="180" type="curve"/>
      <point x="477" y="180" type="line"/>
      <point x="467" y="52"/>
      <point x="388" y="-23"/>
      <point x="263" y="-23" type="curve" smooth="yes"/>
      <point x="121" y="-23"/>
      <point x="31" y="84"/>
      <point x="31" y="253" type="curve" smooth="yes"/>
      <point x="31" y="427"/>
      <point x="123" y="539"/>
      <point x="264" y="539" type="curve" smooth="yes"/>
      <point x="337" y="539"/>
      <point x="400" y="510"/>
      <point x="436" y="461" type="curve"/>
      <point x="456" y="432"/>
      <point x="467" y="399"/>
    </contour>
  </outline>
</glyph>
<glyph name="dcroat" format="1">
  <advance width="556"/>
  <unicode hex="0111"/>
  <outline>
    <contour>
      <point x="494" y="653" type="line"/>
      <point x="557" y="653" type="line"/>
      <point x="557" y="600" type="line"/>
      <point x="494" y="600" type="line"/>
      <point x="494" y="0" type="line"/>
      <point x="420" y="0" type="line"/>
      <point x="420" y="59" type="line"/>
      <point x="372" y="3"/>
      <point x="319" y="-23"/>
      <point x="252" y="-23" type="curve" smooth="yes"/>
      <point x="116" y="-23"/>
      <point x="26" y="91"/>
      <point x="26" y="264" type="curve" smooth="yes"/>
      <point x="26" y="430"/>
      <point x="115" y="539"/>
      <point x="250" y="539" type="curve" smooth="yes"/>
      <point x="318" y="539"/>
      <point x="367" y="515"/>
      <point x="411" y="461" type="curve"/>
      <point x="411" y="600" type="line"/>
      <point x="261" y="600" type="line"/>
      <point x="261" y="653" type="line"/>
      <point x="411" y="653" type="line"/>
      <point x="411" y="729" type="line"/>
      <point x="494" y="729" type="line"/>
    </contour>
    <contour>
      <point x="265" y="457" type="curve" smooth="yes"/>
      <point x="174" y="457"/>
      <point x="113" y="377"/>
      <point x="113" y="258" type="curve" smooth="yes"/>
      <point x="113" y="139"/>
      <point x="174" y="59"/>
      <point x="265" y="59" type="curve" smooth="yes"/>
      <point x="353" y="59"/>
      <point x="411" y="137"/>
      <point x="411" y="256" type="curve" smooth="yes"/>
      <point x="411" y="379"/>
      <point x="354" y="457"/>
    </contour>
  </outline>
</glyph>
<glyph name="eogonek" format="1">
  <advance width="556"/>
  <unicode hex="0119"/>
  <outline>
    <contour>
      <point x="513" y="234" type="curve"/>
      <point x="127" y="234" type="line"/>
      <point x="128" y="182"/>
      <point x="136" y="152"/>
      <point x="155" y="122" type="curve" smooth="yes"/>
      <point x="184" y="78"/>
      <point x="229" y="54"/>
      <point x="281" y="54" type="curve" smooth="yes"/>
      <point x="348" y="54"/>
      <point x="395" y="90"/>
      <point x="419" y="159" type="curve"/>
      <point x="503" y="159" type="line"/>
      <point x="493" y="104"/>
      <point x="468" y="61"/>
      <point x="422" y="15" type="curve"/>
      <point x="368" y="-41"/>
      <point x="351" y="-71"/>
      <point x="351" y="-109" type="curve" smooth="yes"/>
      <point x="351" y="-141"/>
      <point x="378" y="-160"/>
      <point x="423" y="-160" type="curve" smooth="yes"/>
      <point x="448" y="-160"/>
      <point x="469" y="-157"/>
      <point x="487" y="-150" type="curve"/>
      <point x="487" y="-195" type="line"/>
      <point x="460" y="-201"/>
      <point x="440" y="-204"/>
      <point x="418" y="-204" type="curve" smooth="yes"/>
      <point x="334" y="-204"/>
      <point x="279" y="-169"/>
      <point x="279" y="-116" type="curve" smooth="yes"/>
      <point x="279" y="-93"/>
      <point x="290" y="-67"/>
      <point x="307" y="-48" type="curve" smooth="yes"/>
      <point x="314" y="-41"/>
      <point x="321" y="-35"/>
      <point x="347" y="-15" type="curve"/>
      <point x="317" y="-21"/>
      <point x="302" y="-23"/>
      <point x="279" y="-23" type="curve" smooth="yes"/>
      <point x="130" y="-23"/>
      <point x="40" y="81"/>
      <point x="40" y="254" type="curve" smooth="yes"/>
      <point x="40" y="427"/>
      <point x="134" y="539"/>
      <point x="280" y="539" type="curve" smooth="yes"/>
      <point x="378" y="539"/>
      <point x="459" y="487"/>
      <point x="492" y="401" type="curve" smooth="yes"/>
      <point x="507" y="363"/>
      <point x="514" y="314"/>
    </contour>
    <contour>
      <point x="424" y="302" type="line"/>
      <point x="424" y="308" type="line" smooth="yes"/>
      <point x="424" y="394"/>
      <point x="361" y="462"/>
      <point x="279" y="462" type="curve" smooth="yes"/>
      <point x="195" y="462"/>
      <point x="136" y="399"/>
      <point x="130" y="302" type="curve"/>
    </contour>
  </outline>
</glyph>
<glyph name="Gcircumflex" format="1">
  <advance width="778"/>
  <unicode hex="011C"/>
  <outline>
    <contour>
      <point x="346" y="939" type="line"/>
      <point x="441" y="939" type="line"/>
      <point x="537" y="789" type="line"/>
      <point x="474" y="789" type="line"/>
      <point x="393" y="885" type="line"/>
      <point x="314" y="789" type="line"/>
      <point x="250" y="789" type="line"/>
    </contour>
    <contour>
      <point x="709" y="385" type="line"/>
      <point x="709" y="-4" type="line"/>
      <point x="650" y="-4" type="line"/>
      <point x="627" y="93" type="line"/>
      <point x="556" y="14"/>
      <point x="477" y="-23"/>
      <point x="378" y="-23" type="curve" smooth="yes"/>
      <point x="181" y="-23"/>
      <point x="44" y="133"/>
      <point x="44" y="357" type="curve" smooth="yes"/>
      <point x="44" y="488"/>
      <point x="92" y="601"/>
      <point x="176" y="671" type="curve" smooth="yes"/>
      <point x="233" y="718"/>
      <point x="305" y="741"/>
      <point x="394" y="741" type="curve" smooth="yes"/>
      <point x="561" y="741"/>
      <point x="673" y="656"/>
      <point x="699" y="508" type="curve"/>
      <point x="604" y="508" type="line"/>
      <point x="584" y="602"/>
      <point x="504" y="659"/>
      <point x="393" y="659" type="curve" smooth="yes"/>
      <point x="239" y="659"/>
      <point x="137" y="541"/>
      <point x="137" y="362" type="curve" smooth="yes"/>
      <point x="137" y="272"/>
      <point x="166" y="185"/>
      <point x="214" y="133" type="curve" smooth="yes"/>
      <point x="257" y="86"/>
      <point x="324" y="59"/>
      <point x="398" y="59" type="curve" smooth="yes"/>
      <point x="531" y="59"/>
      <point x="627" y="153"/>
      <point x="627" y="283" type="curve" smooth="yes"/>
      <point x="627" y="303" type="line"/>
      <point x="405" y="303" type="line"/>
      <point x="405" y="385" type="line"/>
    </contour>
  </outline>
</glyph>
<glyph name="Gbreve" format="1">
  <advance width="778"/>
  <unicode hex="011E"/>
  <outline>
    <contour>
      <point x="709" y="385" type="line"/>
      <point x="709" y="-4" type="line"/>
      <point x="650" y="-4" type="line"/>
      <point x="627" y="93" type="line"/>
      <point x="556" y="14"/>
      <point x="477" y="-23"/>
      <point x="378" y="-23" type="curve" smooth="yes"/>
      <point x="181" y="-23"/>
      <point x="44" y="133"/>
      <point x="44" y="357" type="curve" smooth="yes"/>
      <point x="44" y="488"/>
      <point x="92" y="601"/>
      <point x="176" y="671" type="curve" smooth="yes"/>
      <point x="233" y="718"/>
      <point x="305" y="741"/>
      <point x="394" y="741" type="curve" smooth="yes"/>
      <point x="561" y="741"/>
      <point x="673" y="656"/>
      <point x="699" y="508" type="curve"/>
      <point x="604" y="508" type="line"/>
      <point x="584" y="602"/>
      <point x="504" y="659"/>
      <point x="393" y="659" type="curve" smooth="yes"/>
      <point x="239" y="659"/>
      <point x="137" y="541"/>
      <point x="137" y="362" type="curve" smooth="yes"/>
      <point x="137" y="272"/>
      <point x="166" y="185"/>
      <point x="214" y="133" type="curve" smooth="yes"/>
      <point x="257" y="86"/>
      <point x="324" y="59"/>
      <point x="398" y="59" type="curve" smooth="yes"/>
      <point x="531" y="59"/>
      <point x="627" y="153"/>
      <point x="627" y="283" type="curve" smooth="yes"/>
      <point x="627" y="303" type="line"/>
      <point x="405" y="303" type="line"/>
      <point x="405" y="385" type="line"/>
    </contour>
    <contour>
      <point x="249" y="931" type="curve"/>
      <point x="308" y="931" type="line"/>
      <point x="313" y="887"/>
      <point x="343" y="865"/>
      <point x="400" y="865" type="curve" smooth="yes"/>
      <point x="454" y="865"/>
      <point x="487" y="889"/>
      <point x="491" y="931" type="curve"/>
      <point x="550" y="931" type="line"/>
      <point x="543" y="842"/>
      <point x="491" y="796"/>
      <point x="398" y="796" type="curve" smooth="yes"/>
      <point x="342" y="796"/>
      <point x="297" y="816"/>
      <point x="270" y="853" type="curve" smooth="yes"/>
      <point x="255" y="873"/>
      <point x="250" y="892"/>
    </contour>
  </outline>
</glyph>
<glyph name="gdotaccent" format="1">
  <advance width="556"/>
  <unicode hex="0121"/>
  <outline>
    <contour>
      <point x="335" y="698" type="line"/>
      <point x="335" y="594" type="line"/>
      <point x="231" y="594" type="line"/>
      <point x="231" y="698" type="line"/>
    </contour>
    <contour>
      <point x="412" y="524" type="line"/>
      <point x="489" y="524" type="line"/>
      <point x="489" y="86" type="line" smooth="yes"/>
      <point x="489" y="-37"/>
      <point x="474" y="-103"/>
      <point x="434" y="-151" type="curve" smooth="yes"/>
      <point x="400" y="-193"/>
      <point x="333" y="-218"/>
      <point x="255" y="-218" type="curve" smooth="yes"/>
      <point x="132" y="-218"/>
      <point x="55" y="-159"/>
      <point x="46" y="-60" type="curve"/>
      <point x="131" y="-60" type="line"/>
      <point x="136" y="-91"/>
      <point x="144" y="-105"/>
      <point x="163" y="-120" type="curve" smooth="yes"/>
      <point x="186" y="-138"/>
      <point x="220" y="-148"/>
      <point x="258" y="-148" type="curve" smooth="yes"/>
      <point x="309" y="-148"/>
      <point x="352" y="-130"/>
      <point x="374" y="-99" type="curve" smooth="yes"/>
      <point x="395" y="-70"/>
      <point x="404" y="-27"/>
      <point x="404" y="44" type="curve" smooth="yes"/>
      <point x="404" y="71" type="line"/>
      <point x="357" y="5"/>
      <point x="311" y="-23"/>
      <point x="245" y="-23" type="curve" smooth="yes"/>
      <point x="190" y="-23"/>
      <point x="134" y="3"/>
      <point x="95" y="47" type="curve" smooth="yes"/>
      <point x="52" y="97"/>
      <point x="29" y="167"/>
      <point x="29" y="253" type="curve" smooth="yes"/>
      <point x="29" y="423"/>
      <point x="119" y="539"/>
      <point x="252" y="539" type="curve" smooth="yes"/>
      <point x="319" y="539"/>
      <point x="370" y="510"/>
      <point x="412" y="448" type="curve"/>
    </contour>
    <contour>
      <point x="261" y="462" type="curve" smooth="yes"/>
      <point x="172" y="462"/>
      <point x="116" y="384"/>
      <point x="116" y="258" type="curve" smooth="yes"/>
      <point x="116" y="131"/>
      <point x="171" y="54"/>
      <point x="262" y="54" type="curve" smooth="yes"/>
      <point x="350" y="54"/>
      <point x="404" y="130"/>
      <point x="404" y="255" type="curve" smooth="yes"/>
      <point x="404" y="386"/>
      <point x="351" y="462"/>
    </contour>
  </outline>
</glyph>
<glyph name="Gcommaaccent" format="1">
  <advance width="778"/>
  <unicode hex="0122"/>
  <outline>
    <contour>
      <point x="709" y="385" type="line"/>
      <point x="709" y="-4" type="line"/>
      <point x="650" y="-4" type="line"/>
      <point x="627" y="93" type="line"/>
      <point x="556" y="14"/>
      <point x="477" y="-23"/>
      <point x="378" y="-23" type="curve" smooth="yes"/>
      <point x="181" y="-23"/>
      <point x="44" y="133"/>
      <point x="44" y="357" type="curve" smooth="yes"/>
      <point x="44" y="488"/>
      <point x="92" y="601"/>
      <point x="176" y="671" type="curve" smooth="yes"/>
      <point x="233" y="718"/>
      <point x="305" y="741"/>
      <point x="394" y="741" type="curve" smooth="yes"/>
      <point x="561" y="741"/>
      <point x="673" y="656"/>
      <point x="699" y="508" type="curve"/>
      <point x="604" y="508" type="line"/>
      <point x="584" y="602"/>
      <point x="504" y="659"/>
      <point x="393" y="659" type="curve" smooth="yes"/>
      <point x="239" y="659"/>
      <point x="137" y="541"/>
      <point x="137" y="362" type="curve" smooth="yes"/>
      <point x="137" y="272"/>
      <point x="166" y="185"/>
      <point x="214" y="133" type="curve" smooth="yes"/>
      <point x="257" y="86"/>
      <point x="324" y="59"/>
      <point x="398" y="59" type="curve" smooth="yes"/>
      <point x="531" y="59"/>
      <point x="627" y="153"/>
      <point x="627" y="283" type="curve" smooth="yes"/>
      <point x="627" y="303" type="line"/>
      <point x="405" y="303" type="line"/>
      <point x="405" y="385" type="line"/>
    </contour>
    <contour>
      <point x="337" y="-60" type="line"/>
      <point x="437" y="-60" type="line"/>
      <point x="437" y="-163" type="line" smooth="yes"/>
      <point x="437" y="-238"/>
      <point x="399" y="-285"/>
      <point x="337" y="-284" type="curve"/>
      <point x="337" y="-246" type="line"/>
      <point x="375" y="-246"/>
      <point x="394" y="-215"/>
      <point x="392" y="-160" type="curve"/>
      <point x="337" y="-160" type="line"/>
    </contour>
  </outline>
</glyph>
<glyph name="Hbar" format="1">
  <advance width="785"/>
  <unicode hex="0126"/>
  <outline>
    <contour>
      <point x="674" y="601" type="line"/>
      <point x="752" y="601" type="line"/>
      <point x="752" y="531" type="line"/>
      <point x="674" y="531" type="line"/>
      <point x="674" y="0" type="line"/>
      <point x="581" y="0" type="line"/>
      <point x="581" y="332" type="line"/>
      <point x="207" y="332" type="line"/>
      <point x="207" y="0" type="line"/>
      <point x="113" y="0" type="line"/>
      <point x="113" y="531" type="line"/>
      <point x="38" y="531" type="line"/>
      <point x="38" y="601" type="line"/>
      <point x="113" y="601" type="line"/>
      <point x="113" y="729" type="line"/>
      <point x="206" y="729" type="line"/>
      <point x="206" y="601" type="line"/>
      <point x="581" y="601" type="line"/>
      <point x="581" y="729" type="line"/>
      <point x="674" y="729" type="line"/>
    </contour>
    <contour>
      <point x="581" y="531" type="line"/>
      <point x="206" y="531" type="line"/>
      <point x="206" y="414" type="line"/>
      <point x="581" y="414" type="line"/>
    </contour>
  </outline>
</glyph>
<glyph name="Itilde" format="1">
  <advance width="278"/>
  <unicode hex="0128"/>
  <outline>
    <contour>
      <point x="246" y="873" type="curve"/>
      <point x="304" y="873" type="line"/>
      <point x="294" y="804"/>
      <point x="264" y="769"/>
      <point x="215" y="769" type="curve" smooth="yes"/>
      <point x="196" y="769"/>
      <point x="184" y="773"/>
      <point x="130" y="794" type="curve" smooth="yes"/>
      <point x="106" y="803"/>
      <point x="92" y="807"/>
      <point x="81" y="807" type="curve" smooth="yes"/>
      <point x="66" y="807"/>
      <point x="54" y="793"/>
      <point x="48" y="770" type="curve"/>
      <point x="-10" y="770" type="line"/>
      <point x="1" y="836"/>
      <point x="32" y="873"/>
      <point x="76" y="873" type="curve" smooth="yes"/>
      <point x="97" y="873"/>
      <point x="104" y="871"/>
      <point x="146" y="854" type="curve"/>
      <point x="170" y="843"/>
      <point x="197" y="836"/>
      <point x="209" y="836" type="curve" smooth="yes"/>
      <point x="227" y="836"/>
      <point x="238" y="848"/>
    </contour>
    <contour>
      <point x="194" y="729" type="line"/>
      <point x="194" y="0" type="line"/>
      <point x="100" y="0" type="line"/>
      <point x="100" y="729" type="line"/>
    </contour>
  </outline>
</glyph>
<glyph name="itilde" format="1">
  <advance width="278"/>
  <unicode hex="0129"/>
  <outline>
    <contour>
      <point x="235" y="668" type="curve"/>
      <point x="293" y="668" type="line"/>
      <point x="283" y="599"/>
      <point x="253" y="564"/>
      <point x="204" y="564" type="curve" smooth="yes"/>
      <point x="185" y="564"/>
      <point x="173" y="568"/>
      <point x="119" y="589" type="curve" smooth="yes"/>
      <point x="95" y="598"/>
      <point x="81" y="602"/>
      <point x="70" y="602" type="curve" smooth="yes"/>
      <point x="55" y="602"/>
      <point x="43" y="588"/>
      <point x="37" y="565" type="curve"/>
      <point x="-21" y="565" type="line"/>
      <point x="-10" y="631"/>
      <point x="21" y="668"/>
      <point x="65" y="668" type="curve" smooth="yes"/>
      <point x="86" y="668"/>
      <point x="93" y="666"/>
      <point x="135" y="649" type="curve"/>
      <point x="159" y="638"/>
      <point x="186" y="631"/>
      <point x="198" y="631" type="curve" smooth="yes"/>
      <point x="216" y="631"/>
      <point x="227" y="643"/>
    </contour>
    <contour>
      <point x="178" y="524" type="line"/>
      <point x="178" y="0" type="line"/>
      <point x="94" y="0" type="line"/>
      <point x="94" y="524" type="line"/>
    </contour>
  </outline>
</glyph>
<glyph name="Imacron" format="1">
  <advance width="278"/>
  <unicode hex="012A"/>
  <outline>
    <contour>
      <point x="194" y="729" type="line"/>
      <point x="194" y="0" type="line"/>
      <point x="100" y="0" type="line"/>
      <point x="100" y="729" type="line"/>
    </contour>
    <contour>
      <point x="274" y="900" type="line"/>
      <point x="274" y="830" type="line"/>
      <point x="20" y="830" type="line"/>
      <point x="20" y="900" type="line"/>
    </contour>
  </outline>
</glyph>
<glyph name="imacron" format="1">
  <advance width="222"/>
  <unicode hex="012B"/>
  <outline>
    <contour>
      <point x="149" y="524" type="line"/>
      <point x="149" y="0" type="line"/>
      <point x="66" y="0" type="line"/>
      <point x="66" y="524" type="line"/>
    </contour>
    <contour>
      <point x="231" y="701" type="line"/>
      <point x="231" y="631" type="line"/>
      <point x="-16" y="631" type="line"/>
      <point x="-16" y="701" type="line"/>
    </contour>
  </outline>
</glyph>
<glyph name="Ibreve" format="1">
  <advance width="278"/>
  <unicode hex="012C"/>
  <outline>
    <contour>
      <point x="-4" y="904" type="curve"/>
      <point x="55" y="904" type="line"/>
      <point x="60" y="860"/>
      <point x="90" y="838"/>
      <point x="147" y="838" type="curve" smooth="yes"/>
      <point x="201" y="838"/>
      <point x="234" y="862"/>
      <point x="238" y="904" type="curve"/>
      <point x="297" y="904" type="line"/>
      <point x="290" y="815"/>
      <point x="238" y="769"/>
      <point x="145" y="769" type="curve" smooth="yes"/>
      <point x="89" y="769"/>
      <point x="44" y="789"/>
      <point x="17" y="826" type="curve" smooth="yes"/>
      <point x="3" y="846"/>
      <point x="-3" y="865"/>
    </contour>
    <contour>
      <point x="194" y="729" type="line"/>
      <point x="194" y="0" type="line"/>
      <point x="100" y="0" type="line"/>
      <point x="100" y="729" type="line"/>
    </contour>
  </outline>
</glyph>
<glyph name="ibreve" format="1">
  <advance width="278"/>
  <unicode hex="012D"/>
  <outline>
    <contour>
      <point x="-14" y="699" type="curve"/>
      <point x="45" y="699" type="line"/>
      <point x="50" y="655"/>
      <point x="80" y="633"/>
      <point x="137" y="633" type="curve" smooth="yes"/>
      <point x="191" y="633"/>
      <point x="224" y="657"/>
      <point x="228" y="699" type="curve"/>
      <point x="287" y="699" type="line"/>
      <point x="280" y="610"/>
      <point x="228" y="564"/>
      <point x="135" y="564" type="curve" smooth="yes"/>
      <point x="79" y="564"/>
      <point x="34" y="584"/>
      <point x="7" y="621" type="curve" smooth="yes"/>
      <point x="-7" y="641"/>
      <point x="-13" y="660"/>
    </contour>
    <contour>
      <point x="178" y="524" type="line"/>
      <point x="178" y="0" type="line"/>
      <point x="94" y="0" type="line"/>
      <point x="94" y="524" type="line"/>
    </contour>
  </outline>
</glyph>
<glyph name="Iogonek" format="1">
  <advance width="278"/>
  <unicode hex="012E"/>
  <outline>
    <contour>
      <point x="194" y="729" type="line"/>
      <point x="194" y="0" type="line"/>
      <point x="158" y="-33"/>
      <point x="138" y="-71"/>
      <point x="138" y="-107" type="curve" smooth="yes"/>
      <point x="138" y="-138"/>
      <point x="158" y="-159"/>
      <point x="189" y="-159" type="curve" smooth="yes"/>
      <point x="203" y="-159"/>
      <point x="216" y="-156"/>
      <point x="234" y="-150" type="curve"/>
      <point x="234" y="-195" type="line"/>
      <point x="216" y="-200"/>
      <point x="193" y="-204"/>
      <point x="175" y="-204" type="curve" smooth="yes"/>
      <point x="110" y="-204"/>
      <point x="66" y="-169"/>
      <point x="66" y="-116" type="curve" smooth="yes"/>
      <point x="66" y="-72"/>
      <point x="86" y="-41"/>
      <point x="143" y="0" type="curve"/>
      <point x="100" y="0" type="line"/>
      <point x="100" y="729" type="line"/>
    </contour>
  </outline>
</glyph>
<glyph name="iogonek" format="1">
  <advance width="222"/>
  <unicode hex="012F"/>
  <outline>
    <contour>
      <point x="150" y="524" type="line"/>
      <point x="150" y="0" type="line"/>
      <point x="120" y="-27"/>
      <point x="97" y="-71"/>
      <point x="97" y="-103" type="curve" smooth="yes"/>
      <point x="97" y="-136"/>
      <point x="117" y="-159"/>
      <point x="147" y="-159" type="curve" smooth="yes"/>
      <point x="160" y="-159"/>
      <point x="172" y="-156"/>
      <point x="190" y="-150" type="curve"/>
      <point x="190" y="-195" type="line"/>
      <point x="173" y="-200"/>
      <point x="149" y="-204"/>
      <point x="132" y="-204" type="curve" smooth="yes"/>
      <point x="69" y="-204"/>
      <point x="25" y="-168"/>
      <point x="25" y="-116" type="curve" smooth="yes"/>
      <point x="25" y="-74"/>
      <point x="43" y="-45"/>
      <point x="99" y="0" type="curve"/>
      <point x="67" y="0" type="line"/>
      <point x="67" y="524" type="line"/>
    </contour>
    <contour>
      <point x="150" y="729" type="line"/>
      <point x="150" y="624" type="line"/>
      <point x="66" y="624" type="line"/>
      <point x="66" y="729" type="line"/>
    </contour>
  </outline>
</glyph>
<glyph name="Idotaccent" format="1">
  <advance width="278"/>
  <unicode hex="0130"/>
  <outline>
    <contour>
      <point x="195" y="729" type="line"/>
      <point x="195" y="0" type="line"/>
      <point x="101" y="0" type="line"/>
      <point x="101" y="729" type="line"/>
    </contour>
    <contour>
      <point x="196" y="915" type="line"/>
      <point x="196" y="811" type="line"/>
      <point x="92" y="811" type="line"/>
      <point x="92" y="915" type="line"/>
    </contour>
  </outline>
</glyph>
<glyph name="dotlessi" format="1">
  <advance width="278"/>
  <unicode hex="0131"/>
  <outline>
    <contour>
      <point x="178" y="524" type="line"/>
      <point x="178" y="0" type="line"/>
      <point x="94" y="0" type="line"/>
      <point x="94" y="524" type="line"/>
    </contour>
  </outline>
</glyph>
<glyph name="IJ" format="1">
  <advance width="700"/>
  <unicode hex="0132"/>
  <outline>
    <contour>
      <point x="194" y="729" type="line"/>
      <point x="194" y="0" type="line"/>
      <point x="100" y="0" type="line"/>
      <point x="100" y="729" type="line"/>
    </contour>
    <contour>
      <point x="533" y="729" type="line"/>
      <point x="626" y="729" type="line"/>
      <point x="626" y="182" type="line" smooth="yes"/>
      <point x="626" y="56"/>
      <point x="547" y="-23"/>
      <point x="420" y="-23" type="curve" smooth="yes"/>
      <point x="295" y="-23"/>
      <point x="217" y="52"/>
      <point x="217" y="170" type="curve" smooth="yes"/>
      <point x="217" y="234" type="line"/>
      <point x="312" y="234" type="line"/>
      <point x="312" y="187" type="line" smooth="yes"/>
      <point x="312" y="102"/>
      <point x="351" y="55"/>
      <point x="421" y="55" type="curve" smooth="yes"/>
      <point x="458" y="55"/>
      <point x="492" y="72"/>
      <point x="510" y="100" type="curve" smooth="yes"/>
      <point x="527" y="125"/>
      <point x="533" y="158"/>
      <point x="533" y="216" type="curve" smooth="yes"/>
    </contour>
  </outline>
</glyph>
<glyph name="ij" format="1">
  <advance width="374"/>
  <unicode hex="0133"/>
  <outline>
    <contour>
      <point x="150" y="524" type="line"/>
      <point x="150" y="0" type="line"/>
      <point x="67" y="0" type="line"/>
      <point x="67" y="524" type="line"/>
    </contour>
    <contour>
      <point x="150" y="729" type="line"/>
      <point x="150" y="624" type="line"/>
      <point x="66" y="624" type="line"/>
      <point x="66" y="729" type="line"/>
    </contour>
    <contour>
      <point x="222" y="524" type="line"/>
      <point x="305" y="524" type="line"/>
      <point x="305" y="-109" type="line" smooth="yes"/>
      <point x="305" y="-180"/>
      <point x="256" y="-218"/>
      <point x="162" y="-218" type="curve" smooth="yes"/>
      <point x="149" y="-218"/>
      <point x="144" y="-217"/>
      <point x="134" y="-215" type="curve"/>
      <point x="134" y="-144" type="line"/>
      <point x="151" y="-145"/>
      <point x="151" y="-145"/>
      <point x="154" y="-145" type="curve" smooth="yes"/>
      <point x="205" y="-145"/>
      <point x="222" y="-128"/>
      <point x="222" y="-76" type="curve" smooth="yes"/>
    </contour>
    <contour>
      <point x="305" y="729" type="line"/>
      <point x="305" y="624" type="line"/>
      <point x="222" y="624" type="line"/>
      <point x="222" y="729" type="line"/>
    </contour>
  </outline>
</glyph>
<glyph name="Kcommaaccent" format="1">
  <advance width="667"/>
  <unicode hex="0136"/>
  <outline>
    <contour>
      <point x="172" y="255" type="line"/>
      <point x="172" y="0" type="line"/>
      <point x="79" y="0" type="line"/>
      <point x="79" y="729" type="line"/>
      <point x="172" y="729" type="line"/>
      <point x="172" y="360" type="line"/>
      <point x="535" y="729" type="line"/>
      <point x="655" y="729" type="line"/>
      <point x="358" y="432" type="line"/>
      <point x="658" y="0" type="line"/>
      <point x="548" y="0" type="line"/>
      <point x="291" y="374" type="line"/>
    </contour>
    <contour>
      <point x="299" y="-60" type="line"/>
      <point x="399" y="-60" type="line"/>
      <point x="399" y="-163" type="line" smooth="yes"/>
      <point x="399" y="-238"/>
      <point x="361" y="-285"/>
      <point x="299" y="-284" type="curve"/>
      <point x="299" y="-246" type="line"/>
      <point x="337" y="-246"/>
      <point x="356" y="-215"/>
      <point x="354" y="-160" type="curve"/>
      <point x="299" y="-160" type="line"/>
    </contour>
  </outline>
</glyph>
<glyph name="kcommaaccent" format="1">
  <advance width="500"/>
  <unicode hex="0137"/>
  <outline>
    <contour>
      <point x="141" y="729" type="line"/>
      <point x="141" y="302" type="line"/>
      <point x="363" y="524" type="line"/>
      <point x="470" y="524" type="line"/>
      <point x="288" y="343" type="line"/>
      <point x="502" y="0" type="line"/>
      <point x="399" y="0" type="line"/>
      <point x="222" y="284" type="line"/>
      <point x="141" y="204" type="line"/>
      <point x="141" y="0" type="line"/>
      <point x="58" y="0" type="line"/>
      <point x="58" y="729" type="line"/>
    </contour>
    <contour>
      <point x="217" y="-60" type="line"/>
      <point x="317" y="-60" type="line"/>
      <point x="317" y="-163" type="line" smooth="yes"/>
      <point x="317" y="-238"/>
      <point x="279" y="-285"/>
      <point x="217" y="-284" type="curve"/>
      <point x="217" y="-246" type="line"/>
      <point x="255" y="-246"/>
      <point x="274" y="-215"/>
      <point x="272" y="-160" type="curve"/>
      <point x="217" y="-160" type="line"/>
    </contour>
  </outline>
</glyph>
<glyph name="Lacute" format="1">
  <advance width="556"/>
  <unicode hex="0139"/>
  <outline>
    <contour>
      <point x="173" y="729" type="line"/>
      <point x="173" y="82" type="line"/>
      <point x="533" y="82" type="line"/>
      <point x="533" y="0" type="line"/>
      <point x="80" y="0" type="line"/>
      <point x="80" y="729" type="line"/>
    </contour>
    <contour>
      <point x="166" y="939" type="line"/>
      <point x="279" y="939" type="line"/>
      <point x="130" y="791" type="line"/>
      <point x="70" y="791" type="line"/>
    </contour>
  </outline>
</glyph>
<glyph name="Lcommaaccent" format="1">
  <advance width="556"/>
  <unicode hex="013B"/>
  <outline>
    <contour>
      <point x="173" y="729" type="line"/>
      <point x="173" y="82" type="line"/>
      <point x="533" y="82" type="line"/>
      <point x="533" y="0" type="line"/>
      <point x="80" y="0" type="line"/>
      <point x="80" y="729" type="line"/>
    </contour>
    <contour>
      <point x="257" y="-60" type="line"/>
      <point x="357" y="-60" type="line"/>
      <point x="357" y="-163" type="line" smooth="yes"/>
      <point x="357" y="-238"/>
      <point x="319" y="-285"/>
      <point x="257" y="-284" type="curve"/>
      <point x="257" y="-246" type="line"/>
      <point x="295" y="-246"/>
      <point x="314" y="-215"/>
      <point x="312" y="-160" type="curve"/>
      <point x="257" y="-160" type="line"/>
    </contour>
  </outline>
</glyph>
<glyph name="lcommaaccent" format="1">
  <advance width="222"/>
  <unicode hex="013C"/>
  <outline>
    <contour>
      <point x="152" y="729" type="line"/>
      <point x="152" y="0" type="line"/>
      <point x="68" y="0" type="line"/>
      <point x="68" y="729" type="line"/>
    </contour>
    <contour>
      <point x="63" y="-60" type="line"/>
      <point x="163" y="-60" type="line"/>
      <point x="163" y="-163" type="line" smooth="yes"/>
      <point x="163" y="-238"/>
      <point x="125" y="-285"/>
      <point x="63" y="-284" type="curve"/>
      <point x="63" y="-246" type="line"/>
      <point x="101" y="-246"/>
      <point x="120" y="-215"/>
      <point x="118" y="-160" type="curve"/>
      <point x="63" y="-160" type="line"/>
    </contour>
  </outline>
</glyph>
<glyph name="lcaron" format="1">
  <advance width="292"/>
  <unicode hex="013E"/>
  <outline>
    <contour>
      <point x="152" y="729" type="line"/>
      <point x="152" y="0" type="line"/>
      <point x="68" y="0" type="line"/>
      <point x="68" y="729" type="line"/>
    </contour>
    <contour>
      <point x="205" y="729" type="line"/>
      <point x="305" y="729" type="line"/>
      <point x="305" y="626" type="line" smooth="yes"/>
      <point x="305" y="556"/>
      <point x="267" y="505"/>
      <point x="213" y="505" type="curve" smooth="yes"/>
      <point x="205" y="505" type="line"/>
      <point x="205" y="543" type="line"/>
      <point x="243" y="543"/>
      <point x="262" y="574"/>
      <point x="260" y="629" type="curve"/>
      <point x="205" y="629" type="line"/>
    </contour>
  </outline>
</glyph>
<glyph name="Ldot" format="1">
  <advance width="556"/>
  <unicode hex="013F"/>
  <outline>
    <contour>
      <point x="374" y="429" type="line"/>
      <point x="374" y="304" type="line"/>
      <point x="250" y="304" type="line"/>
      <point x="250" y="429" type="line"/>
    </contour>
    <contour>
      <point x="173" y="729" type="line"/>
      <point x="173" y="82" type="line"/>
      <point x="533" y="82" type="line"/>
      <point x="533" y="0" type="line"/>
      <point x="80" y="0" type="line"/>
      <point x="80" y="729" type="line"/>
    </contour>
  </outline>
</glyph>
<glyph name="ldot" format="1">
  <advance width="404"/>
  <unicode hex="0140"/>
  <outline>
    <contour>
      <point x="152" y="729" type="line"/>
      <point x="152" y="0" type="line"/>
      <point x="68" y="0" type="line"/>
      <point x="68" y="729" type="line"/>
    </contour>
    <contour>
      <point x="357" y="429" type="line"/>
      <point x="357" y="304" type="line"/>
      <point x="233" y="304" type="line"/>
      <point x="233" y="429" type="line"/>
    </contour>
  </outline>
</glyph>
<glyph name="Lslash" format="1">
  <advance width="556"/>
  <unicode hex="0141"/>
  <outline>
    <contour>
      <point x="173" y="406" type="line"/>
      <point x="344" y="527" type="line"/>
      <point x="344" y="451" type="line"/>
      <point x="173" y="329" type="line"/>
      <point x="173" y="82" type="line"/>
      <point x="552" y="82" type="line"/>
      <point x="552" y="0" type="line"/>
      <point x="80" y="0" type="line"/>
      <point x="80" y="280" type="line"/>
      <point x="0" y="223" type="line"/>
      <point x="0" y="300" type="line"/>
      <point x="80" y="356" type="line"/>
      <point x="80" y="729" type="line"/>
      <point x="173" y="729" type="line"/>
    </contour>
  </outline>
</glyph>
<glyph name="lslash" format="1">
  <advance width="222"/>
  <unicode hex="0142"/>
  <outline>
    <contour>
      <point x="146" y="421" type="line"/>
      <point x="212" y="472" type="line"/>
      <point x="212" y="408" type="line"/>
      <point x="146" y="357" type="line"/>
      <point x="146" y="0" type="line"/>
      <point x="63" y="0" type="line"/>
      <point x="63" y="313" type="line"/>
      <point x="0" y="263" type="line"/>
      <point x="0" y="327" type="line"/>
      <point x="63" y="377" type="line"/>
      <point x="63" y="729" type="line"/>
      <point x="146" y="729" type="line"/>
    </contour>
  </outline>
</glyph>
<glyph name="Nacute" format="1">
  <advance width="722"/>
  <unicode hex="0143"/>
  <outline>
    <contour>
      <point x="646" y="729" type="line"/>
      <point x="646" y="0" type="line"/>
      <point x="541" y="0" type="line"/>
      <point x="164" y="591" type="line"/>
      <point x="164" y="0" type="line"/>
      <point x="76" y="0" type="line"/>
      <point x="76" y="729" type="line"/>
      <point x="177" y="729" type="line"/>
      <point x="558" y="133" type="line"/>
      <point x="558" y="729" type="line"/>
    </contour>
    <contour>
      <point x="389" y="939" type="line"/>
      <point x="502" y="939" type="line"/>
      <point x="353" y="791" type="line"/>
      <point x="293" y="791" type="line"/>
    </contour>
  </outline>
</glyph>
<glyph name="Ncommaaccent" format="1">
  <advance width="722"/>
  <unicode hex="0145"/>
  <outline>
    <contour>
      <point x="646" y="729" type="line"/>
      <point x="646" y="0" type="line"/>
      <point x="541" y="0" type="line"/>
      <point x="164" y="591" type="line"/>
      <point x="164" y="0" type="line"/>
      <point x="76" y="0" type="line"/>
      <point x="76" y="729" type="line"/>
      <point x="177" y="729" type="line"/>
      <point x="558" y="133" type="line"/>
      <point x="558" y="729" type="line"/>
    </contour>
    <contour>
      <point x="298" y="-60" type="line"/>
      <point x="398" y="-60" type="line"/>
      <point x="398" y="-163" type="line" smooth="yes"/>
      <point x="398" y="-238"/>
      <point x="360" y="-285"/>
      <point x="298" y="-284" type="curve"/>
      <point x="298" y="-246" type="line"/>
      <point x="336" y="-246"/>
      <point x="355" y="-215"/>
      <point x="353" y="-160" type="curve"/>
      <point x="298" y="-160" type="line"/>
    </contour>
  </outline>
</glyph>
<glyph name="ncommaaccent" format="1">
  <advance width="556"/>
  <unicode hex="0146"/>
  <outline>
    <contour>
      <point x="70" y="524" type="line"/>
      <point x="147" y="524" type="line"/>
      <point x="147" y="436" type="line"/>
      <point x="193" y="509"/>
      <point x="243" y="539"/>
      <point x="321" y="539" type="curve" smooth="yes"/>
      <point x="422" y="539"/>
      <point x="487" y="483"/>
      <point x="487" y="396" type="curve" smooth="yes"/>
      <point x="487" y="0" type="line"/>
      <point x="404" y="0" type="line"/>
      <point x="404" y="363" type="line" smooth="yes"/>
      <point x="404" y="426"/>
      <point x="362" y="466"/>
      <point x="296" y="466" type="curve" smooth="yes"/>
      <point x="210" y="466"/>
      <point x="154" y="396"/>
      <point x="154" y="289" type="curve" smooth="yes"/>
      <point x="154" y="0" type="line"/>
      <point x="70" y="0" type="line"/>
    </contour>
    <contour>
      <point x="229" y="-60" type="line"/>
      <point x="329" y="-60" type="line"/>
      <point x="329" y="-163" type="line" smooth="yes"/>
      <point x="329" y="-238"/>
      <point x="291" y="-285"/>
      <point x="229" y="-284" type="curve"/>
      <point x="229" y="-246" type="line"/>
      <point x="267" y="-246"/>
      <point x="286" y="-215"/>
      <point x="284" y="-160" type="curve"/>
      <point x="229" y="-160" type="line"/>
    </contour>
  </outline>
</glyph>
<glyph name="Ncaron" format="1">
  <advance width="722"/>
  <unicode hex="0147"/>
  <outline>
    <contour>
      <point x="646" y="729" type="line"/>
      <point x="646" y="0" type="line"/>
      <point x="541" y="0" type="line"/>
      <point x="164" y="591" type="line"/>
      <point x="164" y="0" type="line"/>
      <point x="76" y="0" type="line"/>
      <point x="76" y="729" type="line"/>
      <point x="177" y="729" type="line"/>
      <point x="558" y="133" type="line"/>
      <point x="558" y="729" type="line"/>
    </contour>
    <contour>
      <point x="409" y="790" type="line"/>
      <point x="314" y="790" type="line"/>
      <point x="218" y="940" type="line"/>
      <point x="281" y="940" type="line"/>
      <point x="362" y="844" type="line"/>
      <point x="441" y="940" type="line"/>
      <point x="505" y="940" type="line"/>
    </contour>
  </outline>
</glyph>
<glyph name="Eng" format="1">
  <advance width="722"/>
  <unicode hex="014A"/>
  <outline>
    <contour>
      <point x="541" y="0" type="curve" smooth="yes"/>
      <point x="164" y="591" type="line"/>
      <point x="164" y="0" type="line"/>
      <point x="76" y="0" type="line"/>
      <point x="76" y="729" type="line"/>
      <point x="177" y="729" type="line"/>
      <point x="558" y="133" type="line"/>
      <point x="558" y="729" type="line"/>
      <point x="646" y="729" type="line"/>
      <point x="646" y="18" type="line" smooth="yes"/>
      <point x="646" y="-98"/>
      <point x="587" y="-174"/>
      <point x="461" y="-174" type="curve" smooth="yes"/>
      <point x="409" y="-174" type="line"/>
      <point x="409" y="-92" type="line"/>
      <point x="457" y="-92" type="line" smooth="yes"/>
      <point x="506" y="-92"/>
      <point x="550" y="-65"/>
      <point x="550" y="-29" type="curve" smooth="yes"/>
      <point x="550" y="-20"/>
      <point x="547" y="-10"/>
    </contour>
  </outline>
</glyph>
<glyph name="Obreve" format="1">
  <advance width="778"/>
  <unicode hex="014E"/>
  <outline>
    <contour>
      <point x="240" y="904" type="curve"/>
      <point x="299" y="904" type="line"/>
      <point x="304" y="860"/>
      <point x="334" y="838"/>
      <point x="391" y="838" type="curve" smooth="yes"/>
      <point x="445" y="838"/>
      <point x="478" y="862"/>
      <point x="482" y="904" type="curve"/>
      <point x="541" y="904" type="line"/>
      <point x="534" y="815"/>
      <point x="482" y="769"/>
      <point x="389" y="769" type="curve" smooth="yes"/>
      <point x="333" y="769"/>
      <point x="288" y="789"/>
      <point x="261" y="826" type="curve" smooth="yes"/>
      <point x="247" y="846"/>
      <point x="241" y="865"/>
    </contour>
    <contour>
      <point x="389" y="741" type="curve" smooth="yes"/>
      <point x="603" y="741"/>
      <point x="742" y="588"/>
      <point x="742" y="353" type="curve" smooth="yes"/>
      <point x="742" y="234"/>
      <point x="695" y="121"/>
      <point x="616" y="54" type="curve" smooth="yes"/>
      <point x="557" y="4"/>
      <point x="478" y="-23"/>
      <point x="390" y="-23" type="curve" smooth="yes"/>
      <point x="180" y="-23"/>
      <point x="38" y="131"/>
      <point x="38" y="359" type="curve" smooth="yes"/>
      <point x="38" y="587"/>
      <point x="180" y="741"/>
    </contour>
    <contour>
      <point x="389" y="659" type="curve" smooth="yes"/>
      <point x="235" y="659"/>
      <point x="131" y="539"/>
      <point x="131" y="359" type="curve" smooth="yes"/>
      <point x="131" y="179"/>
      <point x="235" y="59"/>
      <point x="390" y="59" type="curve" smooth="yes"/>
      <point x="544" y="59"/>
      <point x="649" y="179"/>
      <point x="649" y="355" type="curve" smooth="yes"/>
      <point x="649" y="539"/>
      <point x="547" y="659"/>
    </contour>
  </outline>
</glyph>
<glyph name="obreve" format="1">
  <advance width="556"/>
  <unicode hex="014F"/>
  <outline>
    <contour>
      <point x="122" y="699" type="curve"/>
      <point x="181" y="699" type="line"/>
      <point x="186" y="655"/>
      <point x="216" y="633"/>
      <point x="273" y="633" type="curve" smooth="yes"/>
      <point x="327" y="633"/>
      <point x="360" y="657"/>
      <point x="364" y="699" type="curve"/>
      <point x="423" y="699" type="line"/>
      <point x="416" y="610"/>
      <point x="364" y="564"/>
      <point x="271" y="564" type="curve" smooth="yes"/>
      <point x="215" y="564"/>
      <point x="170" y="584"/>
      <point x="143" y="621" type="curve" smooth="yes"/>
      <point x="129" y="641"/>
      <point x="123" y="660"/>
    </contour>
    <contour>
      <point x="272" y="539" type="curve" smooth="yes"/>
      <point x="423" y="539"/>
      <point x="510" y="435"/>
      <point x="510" y="254" type="curve" smooth="yes"/>
      <point x="510" y="82"/>
      <point x="420" y="-23"/>
      <point x="273" y="-23" type="curve" smooth="yes"/>
      <point x="124" y="-23"/>
      <point x="36" y="82"/>
      <point x="36" y="258" type="curve" smooth="yes"/>
      <point x="36" y="434"/>
      <point x="125" y="539"/>
    </contour>
    <contour>
      <point x="273" y="462" type="curve" smooth="yes"/>
      <point x="180" y="462"/>
      <point x="123" y="384"/>
      <point x="123" y="258" type="curve" smooth="yes"/>
      <point x="123" y="131"/>
      <point x="180" y="54"/>
      <point x="273" y="54" type="curve" smooth="yes"/>
      <point x="365" y="54"/>
      <point x="423" y="132"/>
      <point x="423" y="255" type="curve" smooth="yes"/>
      <point x="423" y="385"/>
      <point x="367" y="462"/>
    </contour>
  </outline>
</glyph>
<glyph name="oe" format="1">
  <advance width="944"/>
  <unicode hex="0153"/>
  <outline>
    <contour>
      <point x="804" y="159" type="curve"/>
      <point x="888" y="159" type="line"/>
      <point x="867" y="45"/>
      <point x="784" y="-23"/>
      <point x="665" y="-23" type="curve" smooth="yes"/>
      <point x="580" y="-23"/>
      <point x="511" y="14"/>
      <point x="471" y="80" type="curve"/>
      <point x="429" y="11"/>
      <point x="365" y="-23"/>
      <point x="277" y="-23" type="curve" smooth="yes"/>
      <point x="126" y="-23"/>
      <point x="40" y="79"/>
      <point x="40" y="259" type="curve" smooth="yes"/>
      <point x="40" y="438"/>
      <point x="126" y="539"/>
      <point x="277" y="539" type="curve" smooth="yes"/>
      <point x="366" y="539"/>
      <point x="433" y="503"/>
      <point x="473" y="433" type="curve"/>
      <point x="514" y="500"/>
      <point x="585" y="539"/>
      <point x="666" y="539" type="curve" smooth="yes"/>
      <point x="764" y="539"/>
      <point x="844" y="487"/>
      <point x="878" y="401" type="curve" smooth="yes"/>
      <point x="893" y="362"/>
      <point x="899" y="314"/>
      <point x="899" y="234" type="curve"/>
      <point x="513" y="234" type="line"/>
      <point x="514" y="182"/>
      <point x="521" y="152"/>
      <point x="541" y="122" type="curve" smooth="yes"/>
      <point x="569" y="78"/>
      <point x="614" y="54"/>
      <point x="667" y="54" type="curve" smooth="yes"/>
      <point x="734" y="54"/>
      <point x="781" y="90"/>
    </contour>
    <contour>
      <point x="277" y="462" type="curve" smooth="yes"/>
      <point x="184" y="462"/>
      <point x="127" y="385"/>
      <point x="127" y="259" type="curve" smooth="yes"/>
      <point x="127" y="131"/>
      <point x="184" y="54"/>
      <point x="277" y="54" type="curve" smooth="yes"/>
      <point x="369" y="54"/>
      <point x="427" y="131"/>
      <point x="427" y="256" type="curve" smooth="yes"/>
      <point x="427" y="385"/>
      <point x="371" y="462"/>
    </contour>
    <contour>
      <point x="515" y="302" type="curve"/>
      <point x="809" y="302" type="line"/>
      <point x="809" y="397"/>
      <point x="750" y="462"/>
      <point x="665" y="462" type="curve" smooth="yes"/>
      <point x="581" y="462"/>
      <point x="522" y="399"/>
    </contour>
  </outline>
</glyph>
<glyph name="racute" format="1">
  <advance width="333"/>
  <unicode hex="0155"/>
  <outline>
    <contour>
      <point x="69" y="524" type="line"/>
      <point x="146" y="524" type="line"/>
      <point x="146" y="429" type="line"/>
      <point x="194" y="507"/>
      <point x="235" y="539"/>
      <point x="289" y="539" type="curve" smooth="yes"/>
      <point x="300" y="539"/>
      <point x="307" y="538"/>
      <point x="321" y="536" type="curve"/>
      <point x="321" y="451" type="line"/>
      <point x="263" y="450"/>
      <point x="238" y="444"/>
      <point x="212" y="425" type="curve" smooth="yes"/>
      <point x="172" y="396"/>
      <point x="153" y="347"/>
      <point x="153" y="272" type="curve" smooth="yes"/>
      <point x="153" y="0" type="line"/>
      <point x="69" y="0" type="line"/>
    </contour>
    <contour>
      <point x="218" y="740" type="line"/>
      <point x="331" y="740" type="line"/>
      <point x="182" y="592" type="line"/>
      <point x="122" y="592" type="line"/>
    </contour>
  </outline>
</glyph>
<glyph name="Rcommaaccent" format="1">
  <advance width="722"/>
  <unicode hex="0156"/>
  <outline>
    <contour>
      <point x="186" y="314" type="line"/>
      <point x="186" y="0" type="line"/>
      <point x="93" y="0" type="line"/>
      <point x="93" y="729" type="line"/>
      <point x="429" y="729" type="line" smooth="yes"/>
      <point x="572" y="729"/>
      <point x="651" y="660"/>
      <point x="651" y="534" type="curve" smooth="yes"/>
      <point x="651" y="451"/>
      <point x="618" y="400"/>
      <point x="536" y="360" type="curve"/>
      <point x="615" y="326"/>
      <point x="634" y="290"/>
      <point x="635" y="170" type="curve"/>
      <point x="637" y="73"/>
      <point x="644" y="47"/>
      <point x="679" y="23" type="curve"/>
      <point x="679" y="0" type="line"/>
      <point x="566" y="0" type="line"/>
      <point x="553" y="30"/>
      <point x="545" y="74"/>
      <point x="545" y="119" type="curve" smooth="yes"/>
      <point x="546" y="184" type="line"/>
      <point x="546" y="274"/>
      <point x="509" y="314"/>
      <point x="426" y="314" type="curve" smooth="yes"/>
    </contour>
    <contour>
      <point x="186" y="396" type="line"/>
      <point x="411" y="396" type="line" smooth="yes"/>
      <point x="510" y="396"/>
      <point x="554" y="435"/>
      <point x="554" y="521" type="curve" smooth="yes"/>
      <point x="554" y="565"/>
      <point x="541" y="598"/>
      <point x="516" y="619" type="curve" smooth="yes"/>
      <point x="493" y="639"/>
      <point x="463" y="647"/>
      <point x="411" y="647" type="curve" smooth="yes"/>
      <point x="186" y="647" type="line"/>
    </contour>
    <contour>
      <point x="319" y="-60" type="line"/>
      <point x="419" y="-60" type="line"/>
      <point x="419" y="-163" type="line" smooth="yes"/>
      <point x="419" y="-238"/>
      <point x="381" y="-285"/>
      <point x="319" y="-284" type="curve"/>
      <point x="319" y="-246" type="line"/>
      <point x="357" y="-246"/>
      <point x="376" y="-215"/>
      <point x="374" y="-160" type="curve"/>
      <point x="319" y="-160" type="line"/>
    </contour>
  </outline>
</glyph>
<glyph name="Scedilla" format="1">
  <advance width="667"/>
  <unicode hex="015E"/>
  <outline>
    <contour>
      <point x="335" y="-24" type="curve"/>
      <point x="320" y="-56" type="line"/>
      <point x="334" y="-54"/>
      <point x="340" y="-54"/>
      <point x="348" y="-54" type="curve" smooth="yes"/>
      <point x="398" y="-54"/>
      <point x="427" y="-78"/>
      <point x="427" y="-121" type="curve" smooth="yes"/>
      <point x="427" y="-178"/>
      <point x="380" y="-214"/>
      <point x="304" y="-214" type="curve" smooth="yes"/>
      <point x="266" y="-214"/>
      <point x="241" y="-207"/>
      <point x="179" y="-180" type="curve"/>
      <point x="200" y="-140" type="line"/>
      <point x="209" y="-144" type="line"/>
      <point x="254" y="-167"/>
      <point x="273" y="-173"/>
      <point x="298" y="-173" type="curve" smooth="yes"/>
      <point x="329" y="-173"/>
      <point x="352" y="-154"/>
      <point x="352" y="-128" type="curve" smooth="yes"/>
      <point x="352" y="-105"/>
      <point x="335" y="-91"/>
      <point x="306" y="-91" type="curve" smooth="yes"/>
      <point x="295" y="-91"/>
      <point x="287" y="-93"/>
      <point x="275" y="-98" type="curve"/>
      <point x="264" y="-92" type="line"/>
      <point x="295" y="-23" type="line"/>
      <point x="289" y="-21"/>
      <point x="285" y="-20"/>
      <point x="284" y="-20" type="curve" smooth="yes"/>
      <point x="240" y="-13" type="line"/>
      <point x="119" y="13"/>
      <point x="45" y="108"/>
      <point x="48" y="232" type="curve"/>
      <point x="136" y="232" type="line"/>
      <point x="135" y="187"/>
      <point x="147" y="152"/>
      <point x="174" y="120" type="curve" smooth="yes"/>
      <point x="209" y="78"/>
      <point x="263" y="59"/>
      <point x="342" y="59" type="curve" smooth="yes"/>
      <point x="401" y="59"/>
      <point x="447" y="70"/>
      <point x="476" y="90" type="curve" smooth="yes"/>
      <point x="507" y="112"/>
      <point x="528" y="152"/>
      <point x="528" y="191" type="curve" smooth="yes"/>
      <point x="528" y="248"/>
      <point x="486" y="285"/>
      <point x="394" y="309" type="curve" smooth="yes"/>
      <point x="213" y="357" type="line" smooth="yes"/>
      <point x="117" y="382"/>
      <point x="70" y="438"/>
      <point x="70" y="527" type="curve" smooth="yes"/>
      <point x="70" y="659"/>
      <point x="169" y="741"/>
      <point x="329" y="741" type="curve" smooth="yes"/>
      <point x="497" y="741"/>
      <point x="595" y="658"/>
      <point x="596" y="515" type="curve"/>
      <point x="508" y="515" type="line"/>
      <point x="507" y="610"/>
      <point x="442" y="663"/>
      <point x="326" y="663" type="curve" smooth="yes"/>
      <point x="228" y="663"/>
      <point x="163" y="614"/>
      <point x="163" y="540" type="curve" smooth="yes"/>
      <point x="163" y="484"/>
      <point x="195" y="456"/>
      <point x="283" y="432" type="curve" smooth="yes"/>
      <point x="466" y="383" type="line" smooth="yes"/>
      <point x="565" y="356"/>
      <point x="621" y="290"/>
      <point x="621" y="200" type="curve" smooth="yes"/>
      <point x="621" y="114"/>
      <point x="568" y="35"/>
      <point x="487" y="2" type="curve" smooth="yes"/>
      <point x="446" y="-14"/>
      <point x="406" y="-21"/>
    </contour>
  </outline>
</glyph>
<glyph name="Tcommaaccent" format="1">
  <advance width="611"/>
  <unicode hex="0162"/>
  <outline>
    <contour>
      <point x="354" y="647" type="line"/>
      <point x="354" y="0" type="line"/>
      <point x="261" y="0" type="line"/>
      <point x="261" y="647" type="line"/>
      <point x="21" y="647" type="line"/>
      <point x="21" y="729" type="line"/>
      <point x="593" y="729" type="line"/>
      <point x="593" y="647" type="line"/>
    </contour>
    <contour>
      <point x="260" y="-60" type="line"/>
      <point x="360" y="-60" type="line"/>
      <point x="360" y="-163" type="line" smooth="yes"/>
      <point x="360" y="-238"/>
      <point x="322" y="-285"/>
      <point x="260" y="-284" type="curve"/>
      <point x="260" y="-246" type="line"/>
      <point x="298" y="-246"/>
      <point x="317" y="-215"/>
      <point x="315" y="-160" type="curve"/>
      <point x="260" y="-160" type="line"/>
    </contour>
  </outline>
</glyph>
<glyph name="tcommaaccent" format="1">
  <advance width="278"/>
  <unicode hex="0163"/>
  <outline>
    <contour>
      <point x="254" y="524" type="line"/>
      <point x="254" y="456" type="line"/>
      <point x="168" y="456" type="line"/>
      <point x="168" y="97" type="line" smooth="yes"/>
      <point x="168" y="60"/>
      <point x="178" y="50"/>
      <point x="214" y="50" type="curve" smooth="yes"/>
      <point x="230" y="50"/>
      <point x="243" y="51"/>
      <point x="254" y="54" type="curve"/>
      <point x="254" y="-16" type="line"/>
      <point x="226" y="-21"/>
      <point x="206" y="-23"/>
      <point x="186" y="-23" type="curve" smooth="yes"/>
      <point x="121" y="-23"/>
      <point x="85" y="7"/>
      <point x="85" y="60" type="curve" smooth="yes"/>
      <point x="85" y="456" type="line"/>
      <point x="14" y="456" type="line"/>
      <point x="14" y="524" type="line"/>
      <point x="85" y="524" type="line"/>
      <point x="85" y="668" type="line"/>
      <point x="168" y="668" type="line"/>
      <point x="168" y="524" type="line"/>
    </contour>
    <contour>
      <point x="111" y="-60" type="line"/>
      <point x="211" y="-60" type="line"/>
      <point x="211" y="-163" type="line" smooth="yes"/>
      <point x="211" y="-238"/>
      <point x="173" y="-285"/>
      <point x="111" y="-284" type="curve"/>
      <point x="111" y="-246" type="line"/>
      <point x="149" y="-246"/>
      <point x="168" y="-215"/>
      <point x="166" y="-160" type="curve"/>
      <point x="111" y="-160" type="line"/>
    </contour>
  </outline>
</glyph>
<glyph name="Tcaron" format="1">
  <advance width="611"/>
  <unicode hex="0164"/>
  <outline>
    <contour>
      <point x="354" y="647" type="line"/>
      <point x="354" y="0" type="line"/>
      <point x="261" y="0" type="line"/>
      <point x="261" y="647" type="line"/>
      <point x="21" y="647" type="line"/>
      <point x="21" y="729" type="line"/>
      <point x="593" y="729" type="line"/>
      <point x="593" y="647" type="line"/>
    </contour>
    <contour>
      <point x="355" y="790" type="line"/>
      <point x="260" y="790" type="line"/>
      <point x="164" y="940" type="line"/>
      <point x="227" y="940" type="line"/>
      <point x="308" y="844" type="line"/>
      <point x="387" y="940" type="line"/>
      <point x="451" y="940" type="line"/>
    </contour>
  </outline>
</glyph>
<glyph name="tcaron" format="1">
  <advance width="308"/>
  <unicode hex="0165"/>
  <outline>
    <contour>
      <point x="254" y="524" type="line"/>
      <point x="254" y="456" type="line"/>
      <point x="168" y="456" type="line"/>
      <point x="168" y="97" type="line" smooth="yes"/>
      <point x="168" y="60"/>
      <point x="178" y="50"/>
      <point x="214" y="50" type="curve" smooth="yes"/>
      <point x="230" y="50"/>
      <point x="243" y="51"/>
      <point x="254" y="54" type="curve"/>
      <point x="254" y="-16" type="line"/>
      <point x="226" y="-21"/>
      <point x="206" y="-23"/>
      <point x="186" y="-23" type="curve" smooth="yes"/>
      <point x="121" y="-23"/>
      <point x="85" y="7"/>
      <point x="85" y="60" type="curve" smooth="yes"/>
      <point x="85" y="456" type="line"/>
      <point x="14" y="456" type="line"/>
      <point x="14" y="524" type="line"/>
      <point x="85" y="524" type="line"/>
      <point x="85" y="668" type="line"/>
      <point x="168" y="668" type="line"/>
      <point x="168" y="524" type="line"/>
    </contour>
    <contour>
      <point x="221" y="800" type="line"/>
      <point x="321" y="800" type="line"/>
      <point x="321" y="697" type="line" smooth="yes"/>
      <point x="321" y="627"/>
      <point x="283" y="576"/>
      <point x="229" y="576" type="curve" smooth="yes"/>
      <point x="221" y="576" type="line"/>
      <point x="221" y="614" type="line"/>
      <point x="259" y="614"/>
      <point x="278" y="645"/>
      <point x="276" y="700" type="curve"/>
      <point x="221" y="700" type="line"/>
    </contour>
  </outline>
</glyph>
<glyph name="Tbar" format="1">
  <advance width="611"/>
  <unicode hex="0166"/>
  <outline>
    <contour>
      <point x="261" y="417" type="line"/>
      <point x="261" y="647" type="line"/>
      <point x="21" y="647" type="line"/>
      <point x="21" y="729" type="line"/>
      <point x="593" y="729" type="line"/>
      <point x="593" y="647" type="line"/>
      <point x="354" y="647" type="line"/>
      <point x="354" y="417" type="line"/>
      <point x="446" y="417" type="line"/>
      <point x="446" y="347" type="line"/>
      <point x="354" y="347" type="line"/>
      <point x="354" y="0" type="line"/>
      <point x="261" y="0" type="line"/>
      <point x="261" y="347" type="line"/>
      <point x="172" y="347" type="line"/>
      <point x="172" y="417" type="line"/>
    </contour>
  </outline>
</glyph>
<glyph name="tbar" format="1">
  <advance width="278"/>
  <unicode hex="0167"/>
  <outline>
    <contour>
      <point x="85" y="322" type="line"/>
      <point x="84" y="322" type="line"/>
      <point x="84" y="456" type="line"/>
      <point x="13" y="456" type="line"/>
      <point x="13" y="524" type="line"/>
      <point x="84" y="524" type="line"/>
      <point x="84" y="668" type="line"/>
      <point x="167" y="668" type="line"/>
      <point x="167" y="524" type="line"/>
      <point x="253" y="524" type="line"/>
      <point x="253" y="456" type="line"/>
      <point x="167" y="456" type="line"/>
      <point x="167" y="322" type="line"/>
      <point x="253" y="322" type="line"/>
      <point x="253" y="252" type="line"/>
      <point x="167" y="252" type="line"/>
      <point x="167" y="97" type="line" smooth="yes"/>
      <point x="167" y="60"/>
      <point x="177" y="50"/>
      <point x="213" y="50" type="curve" smooth="yes"/>
      <point x="229" y="50"/>
      <point x="242" y="51"/>
      <point x="253" y="54" type="curve"/>
      <point x="253" y="-16" type="line"/>
      <point x="225" y="-21"/>
      <point x="205" y="-23"/>
      <point x="185" y="-23" type="curve" smooth="yes"/>
      <point x="120" y="-23"/>
      <point x="84" y="7"/>
      <point x="84" y="60" type="curve" smooth="yes"/>
      <point x="84" y="252" type="line"/>
      <point x="13" y="252" type="line"/>
      <point x="13" y="322" type="line"/>
    </contour>
  </outline>
</glyph>
<glyph name="utilde" format="1">
  <advance width="556"/>
  <unicode hex="0169"/>
  <outline>
    <contour>
      <point x="373" y="668" type="curve"/>
      <point x="431" y="668" type="line"/>
      <point x="421" y="599"/>
      <point x="391" y="564"/>
      <point x="342" y="564" type="curve" smooth="yes"/>
      <point x="323" y="564"/>
      <point x="311" y="568"/>
      <point x="257" y="589" type="curve" smooth="yes"/>
      <point x="233" y="598"/>
      <point x="219" y="602"/>
      <point x="208" y="602" type="curve" smooth="yes"/>
      <point x="193" y="602"/>
      <point x="181" y="588"/>
      <point x="175" y="565" type="curve"/>
      <point x="117" y="565" type="line"/>
      <point x="128" y="631"/>
      <point x="159" y="668"/>
      <point x="203" y="668" type="curve" smooth="yes"/>
      <point x="224" y="668"/>
      <point x="231" y="666"/>
      <point x="273" y="649" type="curve"/>
      <point x="297" y="638"/>
      <point x="324" y="631"/>
      <point x="336" y="631" type="curve" smooth="yes"/>
      <point x="354" y="631"/>
      <point x="365" y="643"/>
    </contour>
    <contour>
      <point x="482" y="0" type="line"/>
      <point x="407" y="0" type="line"/>
      <point x="407" y="73" type="line"/>
      <point x="358" y="4"/>
      <point x="309" y="-23"/>
      <point x="232" y="-23" type="curve" smooth="yes"/>
      <point x="130" y="-23"/>
      <point x="65" y="33"/>
      <point x="65" y="120" type="curve" smooth="yes"/>
      <point x="65" y="524" type="line"/>
      <point x="148" y="524" type="line"/>
      <point x="148" y="153" type="line" smooth="yes"/>
      <point x="148" y="90"/>
      <point x="190" y="50"/>
      <point x="256" y="50" type="curve" smooth="yes"/>
      <point x="343" y="50"/>
      <point x="399" y="120"/>
      <point x="399" y="227" type="curve" smooth="yes"/>
      <point x="399" y="524" type="line"/>
      <point x="482" y="524" type="line"/>
    </contour>
  </outline>
</glyph>
<glyph name="Umacron" format="1">
  <advance width="722"/>
  <unicode hex="016A"/>
  <outline>
    <contour>
      <point x="552" y="729" type="line"/>
      <point x="645" y="729" type="line"/>
      <point x="645" y="217" type="line" smooth="yes"/>
      <point x="645" y="71"/>
      <point x="535" y="-23"/>
      <point x="364" y="-23" type="curve" smooth="yes"/>
      <point x="191" y="-23"/>
      <point x="85" y="69"/>
      <point x="85" y="217" type="curve" smooth="yes"/>
      <point x="85" y="729" type="line"/>
      <point x="178" y="729" type="line"/>
      <point x="178" y="217" type="line" smooth="yes"/>
      <point x="178" y="162"/>
      <point x="195" y="125"/>
      <point x="231" y="97" type="curve"/>
      <point x="266" y="72"/>
      <point x="310" y="59"/>
      <point x="364" y="59" type="curve" smooth="yes"/>
      <point x="481" y="59"/>
      <point x="552" y="119"/>
      <point x="552" y="217" type="curve" smooth="yes"/>
    </contour>
    <contour>
      <point x="502" y="900" type="line"/>
      <point x="502" y="830" type="line"/>
      <point x="228" y="830" type="line"/>
      <point x="228" y="900" type="line"/>
    </contour>
  </outline>
</glyph>
<glyph name="umacron" format="1">
  <advance width="556"/>
  <unicode hex="016B"/>
  <outline>
    <contour>
      <point x="482" y="0" type="line"/>
      <point x="407" y="0" type="line"/>
      <point x="407" y="73" type="line"/>
      <point x="358" y="4"/>
      <point x="309" y="-23"/>
      <point x="232" y="-23" type="curve" smooth="yes"/>
      <point x="130" y="-23"/>
      <point x="65" y="33"/>
      <point x="65" y="120" type="curve" smooth="yes"/>
      <point x="65" y="524" type="line"/>
      <point x="148" y="524" type="line"/>
      <point x="148" y="153" type="line" smooth="yes"/>
      <point x="148" y="90"/>
      <point x="190" y="50"/>
      <point x="256" y="50" type="curve" smooth="yes"/>
      <point x="343" y="50"/>
      <point x="399" y="120"/>
      <point x="399" y="227" type="curve" smooth="yes"/>
      <point x="399" y="524" type="line"/>
      <point x="482" y="524" type="line"/>
    </contour>
    <contour>
      <point x="411" y="701" type="line"/>
      <point x="411" y="631" type="line"/>
      <point x="137" y="631" type="line"/>
      <point x="137" y="701" type="line"/>
    </contour>
  </outline>
</glyph>
<glyph name="Ubreve" format="1">
  <advance width="722"/>
  <unicode hex="016C"/>
  <outline>
    <contour>
      <point x="215" y="904" type="curve"/>
      <point x="274" y="904" type="line"/>
      <point x="279" y="860"/>
      <point x="309" y="838"/>
      <point x="366" y="838" type="curve" smooth="yes"/>
      <point x="420" y="838"/>
      <point x="453" y="862"/>
      <point x="457" y="904" type="curve"/>
      <point x="516" y="904" type="line"/>
      <point x="509" y="815"/>
      <point x="457" y="769"/>
      <point x="364" y="769" type="curve" smooth="yes"/>
      <point x="308" y="769"/>
      <point x="263" y="789"/>
      <point x="236" y="826" type="curve" smooth="yes"/>
      <point x="222" y="846"/>
      <point x="216" y="865"/>
    </contour>
    <contour>
      <point x="552" y="729" type="line"/>
      <point x="645" y="729" type="line"/>
      <point x="645" y="217" type="line" smooth="yes"/>
      <point x="645" y="71"/>
      <point x="535" y="-23"/>
      <point x="364" y="-23" type="curve" smooth="yes"/>
      <point x="191" y="-23"/>
      <point x="85" y="69"/>
      <point x="85" y="217" type="curve" smooth="yes"/>
      <point x="85" y="729" type="line"/>
      <point x="178" y="729" type="line"/>
      <point x="178" y="217" type="line" smooth="yes"/>
      <point x="178" y="162"/>
      <point x="195" y="125"/>
      <point x="231" y="97" type="curve"/>
      <point x="266" y="72"/>
      <point x="310" y="59"/>
      <point x="364" y="59" type="curve" smooth="yes"/>
      <point x="481" y="59"/>
      <point x="552" y="119"/>
      <point x="552" y="217" type="curve" smooth="yes"/>
    </contour>
  </outline>
</glyph>
<glyph name="ubreve" format="1">
  <advance width="556"/>
  <unicode hex="016D"/>
  <outline>
    <contour>
      <point x="123" y="699" type="curve"/>
      <point x="182" y="699" type="line"/>
      <point x="187" y="655"/>
      <point x="217" y="633"/>
      <point x="274" y="633" type="curve" smooth="yes"/>
      <point x="328" y="633"/>
      <point x="361" y="657"/>
      <point x="365" y="699" type="curve"/>
      <point x="424" y="699" type="line"/>
      <point x="417" y="610"/>
      <point x="365" y="564"/>
      <point x="272" y="564" type="curve" smooth="yes"/>
      <point x="216" y="564"/>
      <point x="171" y="584"/>
      <point x="144" y="621" type="curve" smooth="yes"/>
      <point x="130" y="641"/>
      <point x="124" y="660"/>
    </contour>
    <contour>
      <point x="482" y="0" type="line"/>
      <point x="407" y="0" type="line"/>
      <point x="407" y="73" type="line"/>
      <point x="358" y="4"/>
      <point x="309" y="-23"/>
      <point x="232" y="-23" type="curve" smooth="yes"/>
      <point x="130" y="-23"/>
      <point x="65" y="33"/>
      <point x="65" y="120" type="curve" smooth="yes"/>
      <point x="65" y="524" type="line"/>
      <point x="148" y="524" type="line"/>
      <point x="148" y="153" type="line" smooth="yes"/>
      <point x="148" y="90"/>
      <point x="190" y="50"/>
      <point x="256" y="50" type="curve" smooth="yes"/>
      <point x="343" y="50"/>
      <point x="399" y="120"/>
      <point x="399" y="227" type="curve" smooth="yes"/>
      <point x="399" y="524" type="line"/>
      <point x="482" y="524" type="line"/>
    </contour>
  </outline>
</glyph>
<glyph name="Uring" format="1">
  <advance width="722"/>
  <unicode hex="016E"/>
  <outline>
    <contour>
      <point x="552" y="729" type="line"/>
      <point x="645" y="729" type="line"/>
      <point x="645" y="217" type="line" smooth="yes"/>
      <point x="645" y="71"/>
      <point x="535" y="-23"/>
      <point x="364" y="-23" type="curve" smooth="yes"/>
      <point x="191" y="-23"/>
      <point x="85" y="69"/>
      <point x="85" y="217" type="curve" smooth="yes"/>
      <point x="85" y="729" type="line"/>
      <point x="178" y="729" type="line"/>
      <point x="178" y="217" type="line" smooth="yes"/>
      <point x="178" y="162"/>
      <point x="195" y="125"/>
      <point x="231" y="97" type="curve"/>
      <point x="266" y="72"/>
      <point x="310" y="59"/>
      <point x="364" y="59" type="curve" smooth="yes"/>
      <point x="481" y="59"/>
      <point x="552" y="119"/>
      <point x="552" y="217" type="curve" smooth="yes"/>
    </contour>
    <contour>
      <point x="365" y="953" type="curve" smooth="yes"/>
      <point x="414" y="953"/>
      <point x="453" y="914"/>
      <point x="453" y="865" type="curve" smooth="yes"/>
      <point x="453" y="817"/>
      <point x="413" y="778"/>
      <point x="365" y="778" type="curve" smooth="yes"/>
      <point x="317" y="778"/>
      <point x="277" y="818"/>
      <point x="277" y="866" type="curve" smooth="yes"/>
      <point x="277" y="913"/>
      <point x="317" y="953"/>
    </contour>
    <contour>
      <point x="365" y="909" type="curve" smooth="yes"/>
      <point x="341" y="909"/>
      <point x="321" y="889"/>
      <point x="321" y="866" type="curve" smooth="yes"/>
      <point x="321" y="842"/>
      <point x="341" y="822"/>
      <point x="365" y="822" type="curve" smooth="yes"/>
      <point x="389" y="822"/>
      <point x="409" y="842"/>
      <point x="409" y="865" type="curve" smooth="yes"/>
      <point x="409" y="890"/>
      <point x="390" y="909"/>
    </contour>
  </outline>
</glyph>
<glyph name="uring" format="1">
  <advance width="556"/>
  <unicode hex="016F"/>
  <outline>
    <contour>
      <point x="482" y="0" type="line"/>
      <point x="407" y="0" type="line"/>
      <point x="407" y="73" type="line"/>
      <point x="358" y="4"/>
      <point x="309" y="-23"/>
      <point x="232" y="-23" type="curve" smooth="yes"/>
      <point x="130" y="-23"/>
      <point x="65" y="33"/>
      <point x="65" y="120" type="curve" smooth="yes"/>
      <point x="65" y="524" type="line"/>
      <point x="148" y="524" type="line"/>
      <point x="148" y="153" type="line" smooth="yes"/>
      <point x="148" y="90"/>
      <point x="190" y="50"/>
      <point x="256" y="50" type="curve" smooth="yes"/>
      <point x="343" y="50"/>
      <point x="399" y="120"/>
      <point x="399" y="227" type="curve" smooth="yes"/>
      <point x="399" y="524" type="line"/>
      <point x="482" y="524" type="line"/>
    </contour>
    <contour>
      <point x="273" y="754" type="curve" smooth="yes"/>
      <point x="322" y="754"/>
      <point x="361" y="715"/>
      <point x="361" y="666" type="curve" smooth="yes"/>
      <point x="361" y="618"/>
      <point x="321" y="579"/>
      <point x="273" y="579" type="curve" smooth="yes"/>
      <point x="225" y="579"/>
      <point x="185" y="619"/>
      <point x="185" y="667" type="curve" smooth="yes"/>
      <point x="185" y="714"/>
      <point x="225" y="754"/>
    </contour>
    <contour>
      <point x="273" y="710" type="curve" smooth="yes"/>
      <point x="249" y="710"/>
      <point x="229" y="690"/>
      <point x="229" y="667" type="curve" smooth="yes"/>
      <point x="229" y="643"/>
      <point x="249" y="623"/>
      <point x="273" y="623" type="curve" smooth="yes"/>
      <point x="297" y="623"/>
      <point x="317" y="643"/>
      <point x="317" y="666" type="curve" smooth="yes"/>
      <point x="317" y="691"/>
      <point x="298" y="710"/>
    </contour>
  </outline>
</glyph>
<glyph name="uogonek" format="1">
  <advance width="556"/>
  <unicode hex="0173"/>
  <outline>
    <contour>
      <point x="482" y="524" type="line"/>
      <point x="482" y="0" type="line"/>
      <point x="436" y="-26"/>
      <point x="405" y="-69"/>
      <point x="405" y="-108" type="curve" smooth="yes"/>
      <point x="405" y="-140"/>
      <point x="431" y="-160"/>
      <point x="472" y="-160" type="curve" smooth="yes"/>
      <point x="488" y="-160"/>
      <point x="500" y="-158"/>
      <point x="521" y="-150" type="curve"/>
      <point x="521" y="-195" type="line"/>
      <point x="515" y="-196"/>
      <point x="510" y="-197"/>
      <point x="508" y="-198" type="curve" smooth="yes"/>
      <point x="488" y="-203"/>
      <point x="481" y="-204"/>
      <point x="469" y="-204" type="curve" smooth="yes"/>
      <point x="386" y="-204"/>
      <point x="333" y="-168"/>
      <point x="333" y="-111" type="curve" smooth="yes"/>
      <point x="333" y="-68"/>
      <point x="363" y="-34"/>
      <point x="429" y="0" type="curve"/>
      <point x="407" y="0" type="line"/>
      <point x="407" y="73" type="line"/>
      <point x="358" y="4"/>
      <point x="309" y="-23"/>
      <point x="232" y="-23" type="curve" smooth="yes"/>
      <point x="130" y="-23"/>
      <point x="65" y="33"/>
      <point x="65" y="120" type="curve" smooth="yes"/>
      <point x="65" y="524" type="line"/>
      <point x="148" y="524" type="line"/>
      <point x="148" y="153" type="line" smooth="yes"/>
      <point x="148" y="90"/>
      <point x="190" y="50"/>
      <point x="256" y="50" type="curve" smooth="yes"/>
      <point x="343" y="50"/>
      <point x="399" y="120"/>
      <point x="399" y="227" type="curve" smooth="yes"/>
      <point x="399" y="524" type="line"/>
    </contour>
  </outline>
</glyph>
<glyph name="Wcircumflex" format="1">
  <advance width="944"/>
  <unicode hex="0174"/>
  <outline>
    <contour>
      <point x="428" y="919" type="line"/>
      <point x="523" y="919" type="line"/>
      <point x="619" y="769" type="line"/>
      <point x="556" y="769" type="line"/>
      <point x="475" y="865" type="line"/>
      <point x="396" y="769" type="line"/>
      <point x="332" y="769" type="line"/>
    </contour>
    <contour>
      <point x="744" y="0" type="line"/>
      <point x="642" y="0" type="line"/>
      <point x="474" y="599" type="line"/>
      <point x="311" y="0" type="line"/>
      <point x="209" y="0" type="line"/>
      <point x="22" y="729" type="line"/>
      <point x="126" y="729" type="line"/>
      <point x="263" y="137" type="line"/>
      <point x="425" y="729" type="line"/>
      <point x="525" y="729" type="line"/>
      <point x="691" y="137" type="line"/>
      <point x="825" y="729" type="line"/>
      <point x="929" y="729" type="line"/>
    </contour>
  </outline>
</glyph>
<glyph name="wcircumflex" format="1">
  <advance width="722"/>
  <unicode hex="0175"/>
  <outline>
    <contour>
      <point x="310" y="714" type="line"/>
      <point x="405" y="714" type="line"/>
      <point x="501" y="564" type="line"/>
      <point x="438" y="564" type="line"/>
      <point x="357" y="660" type="line"/>
      <point x="278" y="564" type="line"/>
      <point x="214" y="564" type="line"/>
    </contour>
    <contour>
      <point x="554" y="0" type="line"/>
      <point x="459" y="0" type="line"/>
      <point x="353" y="411" type="line"/>
      <point x="252" y="0" type="line"/>
      <point x="158" y="0" type="line"/>
      <point x="6" y="524" type="line"/>
      <point x="98" y="524" type="line"/>
      <point x="205" y="116" type="line"/>
      <point x="305" y="524" type="line"/>
      <point x="407" y="524" type="line"/>
      <point x="510" y="116" type="line"/>
      <point x="614" y="524" type="line"/>
      <point x="708" y="524" type="line"/>
    </contour>
  </outline>
</glyph>
<glyph name="Ycircumflex" format="1">
  <advance width="667"/>
  <unicode hex="0176"/>
  <outline>
    <contour>
      <point x="289" y="919" type="line"/>
      <point x="384" y="919" type="line"/>
      <point x="480" y="769" type="line"/>
      <point x="417" y="769" type="line"/>
      <point x="336" y="865" type="line"/>
      <point x="257" y="769" type="line"/>
      <point x="193" y="769" type="line"/>
    </contour>
    <contour>
      <point x="387" y="286" type="line"/>
      <point x="387" y="0" type="line"/>
      <point x="294" y="0" type="line"/>
      <point x="294" y="286" type="line"/>
      <point x="13" y="729" type="line"/>
      <point x="128" y="729" type="line"/>
      <point x="342" y="374" type="line"/>
      <point x="550" y="729" type="line"/>
      <point x="661" y="729" type="line"/>
    </contour>
  </outline>
</glyph>
<glyph name="Ydieresis" format="1">
  <advance width="667"/>
  <unicode hex="0178"/>
  <outline>
    <contour>
      <point x="387" y="286" type="line"/>
      <point x="387" y="0" type="line"/>
      <point x="294" y="0" type="line"/>
      <point x="294" y="286" type="line"/>
      <point x="13" y="729" type="line"/>
      <point x="128" y="729" type="line"/>
      <point x="342" y="374" type="line"/>
      <point x="550" y="729" type="line"/>
      <point x="661" y="729" type="line"/>
    </contour>
    <contour>
      <point x="312" y="914" type="line"/>
      <point x="312" y="811" type="line"/>
      <point x="208" y="811" type="line"/>
      <point x="208" y="914" type="line"/>
    </contour>
    <contour>
      <point x="474" y="914" type="line"/>
      <point x="474" y="811" type="line"/>
      <point x="370" y="811" type="line"/>
      <point x="370" y="914" type="line"/>
    </contour>
  </outline>
</glyph>
<glyph name="Zacute" format="1">
  <advance width="611"/>
  <unicode hex="0179"/>
  <outline>
    <contour>
      <point x="581" y="729" type="line"/>
      <point x="581" y="645" type="line"/>
      <point x="145" y="82" type="line"/>
      <point x="583" y="82" type="line"/>
      <point x="583" y="0" type="line"/>
      <point x="28" y="0" type="line"/>
      <point x="28" y="82" type="line"/>
      <point x="466" y="647" type="line"/>
      <point x="56" y="647" type="line"/>
      <point x="56" y="729" type="line"/>
    </contour>
    <contour>
      <point x="347" y="939" type="line"/>
      <point x="460" y="939" type="line"/>
      <point x="311" y="791" type="line"/>
      <point x="251" y="791" type="line"/>
    </contour>
  </outline>
</glyph>
<glyph name="Zdotaccent" format="1">
  <advance width="611"/>
  <unicode hex="017B"/>
  <outline>
    <contour>
      <point x="581" y="729" type="line"/>
      <point x="581" y="645" type="line"/>
      <point x="145" y="82" type="line"/>
      <point x="583" y="82" type="line"/>
      <point x="583" y="0" type="line"/>
      <point x="28" y="0" type="line"/>
      <point x="28" y="82" type="line"/>
      <point x="466" y="647" type="line"/>
      <point x="56" y="647" type="line"/>
      <point x="56" y="729" type="line"/>
    </contour>
    <contour>
      <point x="371" y="915" type="line"/>
      <point x="371" y="811" type="line"/>
      <point x="267" y="811" type="line"/>
      <point x="267" y="915" type="line"/>
    </contour>
  </outline>
</glyph>
<glyph name="zdotaccent" format="1">
  <advance width="500"/>
  <unicode hex="017C"/>
  <outline>
    <contour>
      <point x="443" y="524" type="line"/>
      <point x="443" y="450" type="line"/>
      <point x="132" y="73" type="line"/>
      <point x="457" y="73" type="line"/>
      <point x="457" y="0" type="line"/>
      <point x="31" y="0" type="line"/>
      <point x="31" y="75" type="line"/>
      <point x="344" y="451" type="line"/>
      <point x="52" y="451" type="line"/>
      <point x="52" y="524" type="line"/>
    </contour>
    <contour>
      <point x="303" y="716" type="line"/>
      <point x="303" y="612" type="line"/>
      <point x="199" y="612" type="line"/>
      <point x="199" y="716" type="line"/>
    </contour>
  </outline>
</glyph>
<glyph name="Zcaron" format="1">
  <advance width="611"/>
  <unicode hex="017D"/>
  <outline>
    <contour>
      <point x="581" y="729" type="line"/>
      <point x="581" y="645" type="line"/>
      <point x="145" y="82" type="line"/>
      <point x="583" y="82" type="line"/>
      <point x="583" y="0" type="line"/>
      <point x="28" y="0" type="line"/>
      <point x="28" y="82" type="line"/>
      <point x="466" y="647" type="line"/>
      <point x="56" y="647" type="line"/>
      <point x="56" y="729" type="line"/>
    </contour>
    <contour>
      <point x="366" y="790" type="line"/>
      <point x="271" y="790" type="line"/>
      <point x="175" y="940" type="line"/>
      <point x="238" y="940" type="line"/>
      <point x="319" y="844" type="line"/>
      <point x="398" y="940" type="line"/>
      <point x="462" y="940" type="line"/>
    </contour>
  </outline>
</glyph>
<glyph name="zcaron" format="1">
  <advance width="500"/>
  <unicode hex="017E"/>
  <outline>
    <contour>
      <point x="443" y="524" type="line"/>
      <point x="443" y="450" type="line"/>
      <point x="132" y="73" type="line"/>
      <point x="457" y="73" type="line"/>
      <point x="457" y="0" type="line"/>
      <point x="31" y="0" type="line"/>
      <point x="31" y="75" type="line"/>
      <point x="344" y="451" type="line"/>
      <point x="52" y="451" type="line"/>
      <point x="52" y="524" type="line"/>
    </contour>
    <contour>
      <point x="298" y="591" type="line"/>
      <point x="203" y="591" type="line"/>
      <point x="107" y="741" type="line"/>
      <point x="170" y="741" type="line"/>
      <point x="251" y="645" type="line"/>
      <point x="330" y="741" type="line"/>
      <point x="394" y="741" type="line"/>
    </contour>
  </outline>
</glyph>
<glyph name="florin" format="1">
  <advance width="556"/>
  <unicode hex="0192"/>
  <outline>
    <contour>
      <point x="467" y="462" type="line"/>
      <point x="467" y="392" type="line"/>
      <point x="341" y="392" type="line"/>
      <point x="266" y="-5" type="line" smooth="yes"/>
      <point x="253" y="-75"/>
      <point x="233" y="-122"/>
      <point x="201" y="-155" type="curve" smooth="yes"/>
      <point x="167" y="-190"/>
      <point x="116" y="-212"/>
      <point x="66" y="-212" type="curve" smooth="yes"/>
      <point x="42" y="-212"/>
      <point x="24" y="-209"/>
      <point x="11" y="-202" type="curve"/>
      <point x="28" y="-118" type="line"/>
      <point x="45" y="-129"/>
      <point x="59" y="-134"/>
      <point x="79" y="-134" type="curve" smooth="yes"/>
      <point x="130" y="-134"/>
      <point x="160" y="-98"/>
      <point x="175" y="-21" type="curve" smooth="yes"/>
      <point x="253" y="392" type="line"/>
      <point x="140" y="392" type="line"/>
      <point x="140" y="462" type="line"/>
      <point x="265" y="462" type="line"/>
      <point x="287" y="566" type="line" smooth="yes"/>
      <point x="298" y="622"/>
      <point x="318" y="661"/>
      <point x="348" y="690" type="curve" smooth="yes"/>
      <point x="380" y="720"/>
      <point x="423" y="738"/>
      <point x="463" y="738" type="curve" smooth="yes"/>
      <point x="489" y="738"/>
      <point x="512" y="732"/>
      <point x="542" y="719" type="curve"/>
      <point x="512" y="640" type="line"/>
      <point x="487" y="654"/>
      <point x="475" y="658"/>
      <point x="460" y="658" type="curve" smooth="yes"/>
      <point x="413" y="658"/>
      <point x="381" y="614"/>
      <point x="366" y="532" type="curve" smooth="yes"/>
      <point x="354" y="462" type="line"/>
    </contour>
  </outline>
</glyph>
<glyph name="ogonek" format="1">
  <advance width="333"/>
  <unicode hex="02DB"/>
  <outline>
    <contour>
      <point x="154" y="0" type="curve"/>
      <point x="224" y="0" type="line"/>
      <point x="151" y="-41"/>
      <point x="130" y="-64"/>
      <point x="130" y="-106" type="curve" smooth="yes"/>
      <point x="130" y="-141"/>
      <point x="155" y="-160"/>
      <point x="202" y="-160" type="curve" smooth="yes"/>
      <point x="226" y="-160"/>
      <point x="247" y="-157"/>
      <point x="265" y="-150" type="curve"/>
      <point x="265" y="-195" type="line"/>
      <point x="241" y="-200"/>
      <point x="208" y="-205"/>
      <point x="189" y="-205" type="curve" smooth="yes"/>
      <point x="167" y="-205"/>
      <point x="142" y="-200"/>
      <point x="120" y="-192" type="curve" smooth="yes"/>
      <point x="78" y="-176"/>
      <point x="57" y="-150"/>
      <point x="57" y="-111" type="curve" smooth="yes"/>
      <point x="57" y="-63"/>
      <point x="93" y="-22"/>
    </contour>
  </outline>
</glyph>
<glyph name="tilde" format="1">
  <advance width="333"/>
  <unicode hex="02DC"/>
  <outline>
    <contour>
      <point x="261" y="717" type="curve"/>
      <point x="319" y="717" type="line"/>
      <point x="309" y="648"/>
      <point x="279" y="613"/>
      <point x="230" y="613" type="curve" smooth="yes"/>
      <point x="211" y="613"/>
      <point x="199" y="617"/>
      <point x="145" y="638" type="curve" smooth="yes"/>
      <point x="121" y="647"/>
      <point x="107" y="651"/>
      <point x="96" y="651" type="curve" smooth="yes"/>
      <point x="81" y="651"/>
      <point x="69" y="637"/>
      <point x="63" y="614" type="curve"/>
      <point x="5" y="614" type="line"/>
      <point x="16" y="680"/>
      <point x="47" y="717"/>
      <point x="91" y="717" type="curve" smooth="yes"/>
      <point x="112" y="717"/>
      <point x="119" y="715"/>
      <point x="161" y="698" type="curve"/>
      <point x="185" y="687"/>
      <point x="212" y="680"/>
      <point x="224" y="680" type="curve" smooth="yes"/>
      <point x="242" y="680"/>
      <point x="253" y="692"/>
    </contour>
  </outline>
</glyph>
<glyph name="hungarumlaut" format="1">
  <advance width="333"/>
  <unicode hex="02DD"/>
  <outline>
    <contour>
      <point x="61" y="740" type="line"/>
      <point x="174" y="740" type="line"/>
      <point x="25" y="590" type="line"/>
      <point x="-35" y="590" type="line"/>
    </contour>
    <contour>
      <point x="235" y="740" type="line"/>
      <point x="348" y="740" type="line"/>
      <point x="199" y="590" type="line"/>
      <point x="139" y="590" type="line"/>
    </contour>
  </outline>
</glyph>
<glyph name="Delta" format="1">
  <advance width="711"/>
  <unicode hex="0394"/>
  <outline>
    <contour>
      <point x="10" y="0" type="line"/>
      <point x="304" y="729" type="line"/>
      <point x="404" y="729" type="line"/>
      <point x="701" y="0" type="line"/>
    </contour>
    <contour>
      <point x="355" y="616" type="line"/>
      <point x="143" y="82" type="line"/>
      <point x="566" y="82" type="line"/>
    </contour>
  </outline>
</glyph>
<glyph name="uni0400" format="1">
  <advance width="667"/>
  <unicode hex="0400"/>
  <outline>
    <contour>
      <point x="351" y="917" type="line"/>
      <point x="447" y="769" type="line"/>
      <point x="387" y="769" type="line"/>
      <point x="238" y="917" type="line"/>
    </contour>
    <contour>
      <point x="183" y="332" type="line"/>
      <point x="183" y="82" type="line"/>
      <point x="613" y="82" type="line"/>
      <point x="613" y="0" type="line"/>
      <point x="90" y="0" type="line"/>
      <point x="90" y="729" type="line"/>
      <point x="595" y="729" type="line"/>
      <point x="595" y="647" type="line"/>
      <point x="183" y="647" type="line"/>
      <point x="183" y="414" type="line"/>
      <point x="580" y="414" type="line"/>
      <point x="580" y="332" type="line"/>
    </contour>
  </outline>
</glyph>
<glyph name="afii10023" format="1">
  <advance width="667"/>
  <unicode hex="0401"/>
  <outline>
    <contour>
      <point x="172" y="332" type="line"/>
      <point x="172" y="82" type="line"/>
      <point x="602" y="82" type="line"/>
      <point x="602" y="0" type="line"/>
      <point x="79" y="0" type="line"/>
      <point x="79" y="729" type="line"/>
      <point x="584" y="729" type="line"/>
      <point x="584" y="647" type="line"/>
      <point x="172" y="647" type="line"/>
      <point x="172" y="414" type="line"/>
      <point x="569" y="414" type="line"/>
      <point x="569" y="332" type="line"/>
    </contour>
    <contour>
      <point x="303" y="914" type="line"/>
      <point x="303" y="811" type="line"/>
      <point x="199" y="811" type="line"/>
      <point x="199" y="914" type="line"/>
    </contour>
    <contour>
      <point x="465" y="914" type="line"/>
      <point x="465" y="811" type="line"/>
      <point x="361" y="811" type="line"/>
      <point x="361" y="914" type="line"/>
    </contour>
  </outline>
</glyph>
<glyph name="afii10051" format="1">
  <advance width="738"/>
  <unicode hex="0402"/>
  <outline>
    <contour>
      <point x="464" y="-174" type="line"/>
      <point x="464" y="-92" type="line"/>
      <point x="512" y="-92" type="line" smooth="yes"/>
      <point x="567" y="-92"/>
      <point x="608" y="-62"/>
      <point x="608" y="0" type="curve" smooth="yes"/>
      <point x="608" y="295" type="line" smooth="yes"/>
      <point x="608" y="357"/>
      <point x="567" y="387"/>
      <point x="512" y="387" type="curve" smooth="yes"/>
      <point x="314" y="387" type="line"/>
      <point x="314" y="0" type="line"/>
      <point x="221" y="0" type="line"/>
      <point x="221" y="647" type="line"/>
      <point x="21" y="647" type="line"/>
      <point x="21" y="729" type="line"/>
      <point x="513" y="729" type="line"/>
      <point x="513" y="647" type="line"/>
      <point x="314" y="647" type="line"/>
      <point x="314" y="469" type="line"/>
      <point x="516" y="469" type="line" smooth="yes"/>
      <point x="642" y="469"/>
      <point x="701" y="393"/>
      <point x="701" y="277" type="curve" smooth="yes"/>
      <point x="701" y="18" type="line" smooth="yes"/>
      <point x="701" y="-98"/>
      <point x="642" y="-174"/>
      <point x="516" y="-174" type="curve" smooth="yes"/>
    </contour>
  </outline>
</glyph>
<glyph name="afii10052" format="1">
  <advance width="611"/>
  <unicode hex="0403"/>
  <outline>
    <contour>
      <point x="183" y="0" type="line"/>
      <point x="90" y="0" type="line"/>
      <point x="90" y="729" type="line"/>
      <point x="579" y="729" type="line"/>
      <point x="579" y="647" type="line"/>
      <point x="183" y="647" type="line"/>
    </contour>
    <contour>
      <point x="326" y="917" type="line"/>
      <point x="439" y="917" type="line"/>
      <point x="290" y="769" type="line"/>
      <point x="230" y="769" type="line"/>
    </contour>
  </outline>
</glyph>
<glyph name="afii10056" format="1">
  <advance width="278"/>
  <unicode hex="0407"/>
  <outline>
    <contour>
      <point x="112" y="908" type="line"/>
      <point x="112" y="805" type="line"/>
      <point x="8" y="805" type="line"/>
      <point x="8" y="908" type="line"/>
    </contour>
    <contour>
      <point x="274" y="908" type="line"/>
      <point x="274" y="805" type="line"/>
      <point x="170" y="805" type="line"/>
      <point x="170" y="908" type="line"/>
    </contour>
    <contour>
      <point x="194" y="729" type="line"/>
      <point x="194" y="0" type="line"/>
      <point x="100" y="0" type="line"/>
      <point x="100" y="729" type="line"/>
    </contour>
  </outline>
</glyph>
<glyph name="afii10057" format="1">
  <advance width="500"/>
  <unicode hex="0408"/>
  <outline>
    <contour>
      <point x="333" y="729" type="line"/>
      <point x="426" y="729" type="line"/>
      <point x="426" y="182" type="line" smooth="yes"/>
      <point x="426" y="56"/>
      <point x="347" y="-23"/>
      <point x="220" y="-23" type="curve" smooth="yes"/>
      <point x="95" y="-23"/>
      <point x="17" y="52"/>
      <point x="17" y="170" type="curve" smooth="yes"/>
      <point x="17" y="234" type="line"/>
      <point x="112" y="234" type="line"/>
      <point x="112" y="187" type="line" smooth="yes"/>
      <point x="112" y="102"/>
      <point x="151" y="55"/>
      <point x="221" y="55" type="curve" smooth="yes"/>
      <point x="258" y="55"/>
      <point x="292" y="72"/>
      <point x="310" y="100" type="curve" smooth="yes"/>
      <point x="327" y="125"/>
      <point x="333" y="158"/>
      <point x="333" y="216" type="curve" smooth="yes"/>
    </contour>
  </outline>
</glyph>
<glyph name="afii10058" format="1">
  <advance width="1080"/>
  <unicode hex="0409"/>
  <outline>
    <contour>
      <point x="513" y="0" type="line"/>
      <point x="513" y="647" type="line"/>
      <point x="288" y="647" type="line"/>
      <point x="288" y="422"/>
      <point x="310" y="0"/>
      <point x="83" y="0" type="curve"/>
      <point x="83" y="94" type="line"/>
      <point x="208" y="94"/>
      <point x="194" y="424"/>
      <point x="194" y="729" type="curve"/>
      <point x="607" y="729" type="line"/>
      <point x="607" y="415" type="line"/>
      <point x="751" y="415" type="line" smooth="yes"/>
      <point x="929" y="415"/>
      <point x="1006" y="338"/>
      <point x="1022" y="208" type="curve"/>
      <point x="1022" y="151"/>
      <point x="1002" y="99"/>
      <point x="966" y="61" type="curve" smooth="yes"/>
      <point x="927" y="19"/>
      <point x="876" y="0"/>
      <point x="807" y="0" type="curve" smooth="yes"/>
    </contour>
    <contour>
      <point x="607" y="82" type="line"/>
      <point x="798" y="82" type="line" smooth="yes"/>
      <point x="843" y="82"/>
      <point x="873" y="93"/>
      <point x="895" y="117" type="curve" smooth="yes"/>
      <point x="917" y="140"/>
      <point x="929" y="172"/>
      <point x="929" y="207" type="curve" smooth="yes"/>
      <point x="929" y="243"/>
      <point x="917" y="275"/>
      <point x="895" y="298" type="curve" smooth="yes"/>
      <point x="873" y="322"/>
      <point x="843" y="333"/>
      <point x="798" y="333" type="curve" smooth="yes"/>
      <point x="607" y="333" type="line"/>
    </contour>
  </outline>
</glyph>
<glyph name="afii10059" format="1">
  <advance width="1014"/>
  <unicode hex="040A"/>
  <outline>
    <contour>
      <point x="481" y="0" type="line"/>
      <point x="481" y="332" type="line"/>
      <point x="177" y="332" type="line"/>
      <point x="177" y="0" type="line"/>
      <point x="83" y="0" type="line"/>
      <point x="83" y="729" type="line"/>
      <point x="176" y="729" type="line"/>
      <point x="176" y="414" type="line"/>
      <point x="481" y="414" type="line"/>
      <point x="481" y="729" type="line"/>
      <point x="574" y="729" type="line"/>
      <point x="574" y="415" type="line"/>
      <point x="701" y="415" type="line" smooth="yes"/>
      <point x="879" y="415"/>
      <point x="956" y="338"/>
      <point x="972" y="208" type="curve"/>
      <point x="972" y="151"/>
      <point x="952" y="99"/>
      <point x="916" y="61" type="curve" smooth="yes"/>
      <point x="877" y="19"/>
      <point x="826" y="0"/>
      <point x="757" y="0" type="curve" smooth="yes"/>
    </contour>
    <contour>
      <point x="574" y="82" type="line"/>
      <point x="748" y="82" type="line" smooth="yes"/>
      <point x="793" y="82"/>
      <point x="823" y="93"/>
      <point x="845" y="117" type="curve" smooth="yes"/>
      <point x="867" y="140"/>
      <point x="879" y="172"/>
      <point x="879" y="207" type="curve" smooth="yes"/>
      <point x="879" y="243"/>
      <point x="867" y="275"/>
      <point x="845" y="298" type="curve" smooth="yes"/>
      <point x="823" y="322"/>
      <point x="793" y="333"/>
      <point x="748" y="333" type="curve" smooth="yes"/>
      <point x="574" y="333" type="line"/>
    </contour>
  </outline>
</glyph>
<glyph name="afii10060" format="1">
  <advance width="748"/>
  <unicode hex="040B"/>
  <outline>
    <contour>
      <point x="314" y="469" type="line"/>
      <point x="526" y="469" type="line" smooth="yes"/>
      <point x="652" y="469"/>
      <point x="711" y="393"/>
      <point x="711" y="277" type="curve" smooth="yes"/>
      <point x="711" y="0" type="line"/>
      <point x="618" y="0" type="line"/>
      <point x="618" y="295" type="line" smooth="yes"/>
      <point x="618" y="357"/>
      <point x="577" y="387"/>
      <point x="522" y="387" type="curve" smooth="yes"/>
      <point x="314" y="387" type="line"/>
      <point x="314" y="0" type="line"/>
      <point x="221" y="0" type="line"/>
      <point x="221" y="647" type="line"/>
      <point x="21" y="647" type="line"/>
      <point x="21" y="729" type="line"/>
      <point x="513" y="729" type="line"/>
      <point x="513" y="647" type="line"/>
      <point x="314" y="647" type="line"/>
    </contour>
  </outline>
</glyph>
<glyph name="uni040D" format="1">
  <advance width="722"/>
  <unicode hex="040D"/>
  <outline>
    <contour>
      <point x="76" y="729" type="line"/>
      <point x="164" y="729" type="line"/>
      <point x="164" y="133" type="line"/>
      <point x="545" y="729" type="line"/>
      <point x="646" y="729" type="line"/>
      <point x="646" y="0" type="line"/>
      <point x="558" y="0" type="line"/>
      <point x="558" y="591" type="line"/>
      <point x="181" y="0" type="line"/>
      <point x="76" y="0" type="line"/>
    </contour>
    <contour>
      <point x="370" y="917" type="line"/>
      <point x="466" y="769" type="line"/>
      <point x="406" y="769" type="line"/>
      <point x="257" y="917" type="line"/>
    </contour>
  </outline>
</glyph>
<glyph name="afii10062" format="1">
  <advance width="650"/>
  <unicode hex="040E"/>
  <outline>
    <contour>
      <point x="252" y="0" type="line"/>
      <point x="139" y="0" type="line"/>
      <point x="268" y="244" type="line"/>
      <point x="26" y="729" type="line"/>
      <point x="139" y="729" type="line"/>
      <point x="324" y="350" type="line"/>
      <point x="508" y="729" type="line"/>
      <point x="619" y="729" type="line"/>
    </contour>
    <contour>
      <point x="172" y="904" type="curve"/>
      <point x="231" y="904" type="line"/>
      <point x="236" y="860"/>
      <point x="266" y="838"/>
      <point x="323" y="838" type="curve" smooth="yes"/>
      <point x="377" y="838"/>
      <point x="410" y="862"/>
      <point x="414" y="904" type="curve"/>
      <point x="473" y="904" type="line"/>
      <point x="466" y="815"/>
      <point x="414" y="769"/>
      <point x="321" y="769" type="curve" smooth="yes"/>
      <point x="265" y="769"/>
      <point x="220" y="789"/>
      <point x="193" y="826" type="curve" smooth="yes"/>
      <point x="179" y="846"/>
      <point x="173" y="865"/>
    </contour>
  </outline>
</glyph>
<glyph name="afii10145" format="1">
  <advance width="722"/>
  <unicode hex="040F"/>
  <outline>
    <contour>
      <point x="404" y="0" type="line"/>
      <point x="404" y="-135" type="line"/>
      <point x="324" y="-135" type="line"/>
      <point x="324" y="0" type="line"/>
      <point x="83" y="0" type="line"/>
      <point x="83" y="729" type="line"/>
      <point x="177" y="729" type="line"/>
      <point x="177" y="82" type="line"/>
      <point x="551" y="82" type="line"/>
      <point x="551" y="729" type="line"/>
      <point x="645" y="729" type="line"/>
      <point x="645" y="0" type="line"/>
    </contour>
  </outline>
</glyph>
<glyph name="afii10018" format="1">
  <advance width="667"/>
  <unicode hex="0411"/>
  <outline>
    <contour>
      <point x="623" y="218" type="curve" smooth="yes"/>
      <point x="623" y="161"/>
      <point x="603" y="99"/>
      <point x="567" y="61" type="curve" smooth="yes"/>
      <point x="528" y="19"/>
      <point x="477" y="0"/>
      <point x="408" y="0" type="curve" smooth="yes"/>
      <point x="79" y="0" type="line"/>
      <point x="79" y="729" type="line"/>
      <point x="568" y="729" type="line"/>
      <point x="568" y="647" type="line"/>
      <point x="172" y="647" type="line"/>
      <point x="172" y="435" type="line"/>
      <point x="408" y="435" type="line" smooth="yes"/>
      <point x="498" y="435"/>
      <point x="623" y="396"/>
    </contour>
    <contour>
      <point x="172" y="82" type="line"/>
      <point x="399" y="82" type="line" smooth="yes"/>
      <point x="444" y="82"/>
      <point x="474" y="93"/>
      <point x="496" y="117" type="curve" smooth="yes"/>
      <point x="518" y="140"/>
      <point x="530" y="182"/>
      <point x="530" y="217" type="curve" smooth="yes"/>
      <point x="530" y="253"/>
      <point x="518" y="295"/>
      <point x="496" y="318" type="curve" smooth="yes"/>
      <point x="474" y="342"/>
      <point x="444" y="353"/>
      <point x="399" y="353" type="curve" smooth="yes"/>
      <point x="172" y="353" type="line"/>
    </contour>
  </outline>
</glyph>
<glyph name="afii10020" format="1">
  <advance width="611"/>
  <unicode hex="0413"/>
  <outline>
    <contour>
      <point x="172" y="0" type="line"/>
      <point x="79" y="0" type="line"/>
      <point x="79" y="729" type="line"/>
      <point x="568" y="729" type="line"/>
      <point x="568" y="647" type="line"/>
      <point x="172" y="647" type="line"/>
    </contour>
  </outline>
</glyph>
<glyph name="afii10021" format="1">
  <advance width="812"/>
  <unicode hex="0414"/>
  <outline>
    <contour>
      <point x="262" y="82" type="curve"/>
      <point x="593" y="82" type="line"/>
      <point x="593" y="647" type="line"/>
      <point x="331" y="647" type="line"/>
      <point x="331" y="404" type="line" smooth="yes"/>
      <point x="331" y="282"/>
      <point x="312" y="160"/>
    </contour>
    <contour>
      <point x="126" y="74" type="line"/>
      <point x="205" y="110"/>
      <point x="237" y="240"/>
      <point x="237" y="404" type="curve" smooth="yes"/>
      <point x="237" y="729" type="line"/>
      <point x="687" y="729" type="line"/>
      <point x="687" y="74" type="line"/>
      <point x="778" y="74" type="line"/>
      <point x="778" y="-135" type="line"/>
      <point x="698" y="-135" type="line"/>
      <point x="698" y="0" type="line"/>
      <point x="114" y="0" type="line"/>
      <point x="114" y="-135" type="line"/>
      <point x="34" y="-135" type="line"/>
      <point x="34" y="74" type="line"/>
    </contour>
  </outline>
</glyph>
<glyph name="afii10022" format="1">
  <advance width="667"/>
  <unicode hex="0415"/>
  <outline>
    <contour>
      <point x="172" y="332" type="line"/>
      <point x="172" y="82" type="line"/>
      <point x="602" y="82" type="line"/>
      <point x="602" y="0" type="line"/>
      <point x="79" y="0" type="line"/>
      <point x="79" y="729" type="line"/>
      <point x="584" y="729" type="line"/>
      <point x="584" y="647" type="line"/>
      <point x="172" y="647" type="line"/>
      <point x="172" y="414" type="line"/>
      <point x="569" y="414" type="line"/>
      <point x="569" y="332" type="line"/>
    </contour>
  </outline>
</glyph>
